Maitree-500.ufo
<glyph name="exclam" format="1">
  <advance width="324"/>
  <unicode hex="0021"/>
  <note>
	exclam
  </note>
  <outline>
    <contour>
      <point x="192" y="163" type="line"/>
      <point x="217" y="708" type="line"/>
      <point x="107" y="708" type="line"/>
      <point x="133" y="163" type="line"/>
    </contour>
    <contour>
      <point x="190" y="-13"/>
      <point x="214" y="7"/>
      <point x="214" y="39" type="curve" smooth="yes"/>
      <point x="214" y="71"/>
      <point x="190" y="91"/>
      <point x="162" y="91" type="curve" smooth="yes"/>
      <point x="133" y="91"/>
      <point x="110" y="71"/>
      <point x="110" y="39" type="curve" smooth="yes"/>
      <point x="110" y="7"/>
      <point x="133" y="-13"/>
      <point x="162" y="-13" type="curve" smooth="yes"/>
    </contour>
  </outline>
</glyph>
<glyph name="quotedbl" format="1">
  <advance width="366"/>
  <unicode hex="0022"/>
  <note>
	quotedbl
  </note>
  <outline>
    <contour>
      <point x="269" y="451" type="line"/>
      <point x="332" y="700" type="line"/>
      <point x="240" y="708" type="line"/>
      <point x="201" y="451" type="line"/>
    </contour>
    <contour>
      <point x="103" y="451" type="line"/>
      <point x="166" y="700" type="line"/>
      <point x="74" y="708" type="line"/>
      <point x="35" y="451" type="line"/>
    </contour>
  </outline>
</glyph>
<glyph name="numbersign" format="1">
  <advance width="614"/>
  <unicode hex="0023"/>
  <note>
	numbersign
  </note>
  <outline>
    <contour>
      <point x="175" y="0" type="line"/>
      <point x="205" y="160" type="line"/>
      <point x="341" y="160" type="line"/>
      <point x="311" y="0" type="line"/>
      <point x="394" y="0" type="line"/>
      <point x="424" y="160" type="line"/>
      <point x="538" y="160" type="line"/>
      <point x="538" y="225" type="line"/>
      <point x="436" y="225" type="line"/>
      <point x="464" y="375" type="line"/>
      <point x="573" y="375" type="line"/>
      <point x="573" y="441" type="line"/>
      <point x="477" y="441" type="line"/>
      <point x="503" y="582" type="line"/>
      <point x="420" y="582" type="line"/>
      <point x="394" y="441" type="line"/>
      <point x="258" y="441" type="line"/>
      <point x="284" y="582" type="line"/>
      <point x="201" y="582" type="line"/>
      <point x="175" y="441" type="line"/>
      <point x="62" y="441" type="line"/>
      <point x="62" y="375" type="line"/>
      <point x="162" y="375" type="line"/>
      <point x="134" y="225" type="line"/>
      <point x="25" y="225" type="line"/>
      <point x="25" y="160" type="line"/>
      <point x="122" y="160" type="line"/>
      <point x="92" y="0" type="line"/>
    </contour>
    <contour>
      <point x="245" y="375" type="line"/>
      <point x="381" y="375" type="line"/>
      <point x="353" y="225" type="line"/>
      <point x="217" y="225" type="line"/>
    </contour>
  </outline>
</glyph>
<glyph name="dollar" format="1">
  <advance width="686"/>
  <unicode hex="0024"/>
  <note>
	dollar
  </note>
  <outline>
    <contour>
      <point x="339" y="-92" type="line"/>
      <point x="339" y="-12" type="line"/>
      <point x="463" y="-5"/>
      <point x="562" y="48"/>
      <point x="562" y="166" type="curve" smooth="yes"/>
      <point x="562" y="281"/>
      <point x="484" y="331"/>
      <point x="366" y="381" type="curve" smooth="yes"/>
      <point x="244" y="435"/>
      <point x="173" y="463"/>
      <point x="173" y="536" type="curve" smooth="yes"/>
      <point x="173" y="605"/>
      <point x="236" y="632"/>
      <point x="310" y="632" type="curve" smooth="yes"/>
      <point x="371" y="632"/>
      <point x="423" y="618"/>
      <point x="458" y="593" type="curve"/>
      <point x="472" y="533" type="line" smooth="yes"/>
      <point x="481" y="496"/>
      <point x="492" y="484"/>
      <point x="510" y="484" type="curve" smooth="yes"/>
      <point x="521" y="484"/>
      <point x="527" y="492"/>
      <point x="527" y="501" type="curve" smooth="yes"/>
      <point x="527" y="628" type="line"/>
      <point x="484" y="662"/>
      <point x="418" y="687"/>
      <point x="350" y="695" type="curve"/>
      <point x="350" y="779" type="line"/>
      <point x="275" y="779" type="line"/>
      <point x="275" y="697" type="line"/>
      <point x="169" y="689"/>
      <point x="73" y="638"/>
      <point x="73" y="524" type="curve" smooth="yes"/>
      <point x="73" y="416"/>
      <point x="167" y="362"/>
      <point x="282" y="314" type="curve" smooth="yes"/>
      <point x="413" y="259"/>
      <point x="462" y="230"/>
      <point x="462" y="157" type="curve" smooth="yes"/>
      <point x="462" y="77"/>
      <point x="380" y="53"/>
      <point x="300" y="53" type="curve" smooth="yes"/>
      <point x="245" y="53"/>
      <point x="175" y="66"/>
      <point x="139" y="92" type="curve"/>
      <point x="125" y="154" type="line" smooth="yes"/>
      <point x="116" y="192"/>
      <point x="105" y="202"/>
      <point x="88" y="202" type="curve" smooth="yes"/>
      <point x="75" y="202"/>
      <point x="70" y="194"/>
      <point x="70" y="185" type="curve" smooth="yes"/>
      <point x="70" y="51" type="line"/>
      <point x="116" y="19"/>
      <point x="195" y="-3"/>
      <point x="264" y="-11" type="curve"/>
      <point x="264" y="-92" type="line"/>
    </contour>
  </outline>
</glyph>
<glyph name="percent" format="1">
  <advance width="825"/>
  <unicode hex="0025"/>
  <note>
	percent
  </note>
  <outline>
    <contour>
      <point x="682" y="650" type="line"/>
      <point x="608" y="698" type="line"/>
      <point x="142" y="37" type="line"/>
      <point x="213" y="-10" type="line"/>
    </contour>
    <contour>
      <point x="291" y="368"/>
      <point x="352" y="430"/>
      <point x="352" y="533" type="curve" smooth="yes"/>
      <point x="352" y="636"/>
      <point x="291" y="698"/>
      <point x="201" y="698" type="curve" smooth="yes"/>
      <point x="110" y="698"/>
      <point x="50" y="636"/>
      <point x="50" y="533" type="curve" smooth="yes"/>
      <point x="50" y="430"/>
      <point x="110" y="368"/>
      <point x="201" y="368" type="curve" smooth="yes"/>
    </contour>
    <contour>
      <point x="161" y="429"/>
      <point x="127" y="460"/>
      <point x="127" y="533" type="curve" smooth="yes"/>
      <point x="127" y="607"/>
      <point x="161" y="638"/>
      <point x="201" y="638" type="curve" smooth="yes"/>
      <point x="241" y="638"/>
      <point x="275" y="607"/>
      <point x="275" y="533" type="curve" smooth="yes"/>
      <point x="275" y="460"/>
      <point x="241" y="429"/>
      <point x="201" y="429" type="curve" smooth="yes"/>
    </contour>
    <contour>
      <point x="714" y="-13"/>
      <point x="775" y="50"/>
      <point x="775" y="153" type="curve" smooth="yes"/>
      <point x="775" y="255"/>
      <point x="714" y="317"/>
      <point x="624" y="317" type="curve" smooth="yes"/>
      <point x="533" y="317"/>
      <point x="473" y="255"/>
      <point x="473" y="153" type="curve" smooth="yes"/>
      <point x="473" y="50"/>
      <point x="533" y="-13"/>
      <point x="624" y="-13" type="curve" smooth="yes"/>
    </contour>
    <contour>
      <point x="584" y="48"/>
      <point x="550" y="79"/>
      <point x="550" y="153" type="curve" smooth="yes"/>
      <point x="550" y="226"/>
      <point x="584" y="257"/>
      <point x="624" y="257" type="curve" smooth="yes"/>
      <point x="664" y="257"/>
      <point x="698" y="226"/>
      <point x="698" y="153" type="curve" smooth="yes"/>
      <point x="698" y="79"/>
      <point x="664" y="48"/>
      <point x="624" y="48" type="curve" smooth="yes"/>
    </contour>
  </outline>
</glyph>
<glyph name="ampersand" format="1">
  <advance width="720"/>
  <unicode hex="0026"/>
  <note>
	ampersand
  </note>
  <outline>
    <contour>
      <point x="363" y="-13"/>
      <point x="434" y="24"/>
      <point x="478" y="73" type="curve"/>
      <point x="552" y="0" type="line"/>
      <point x="701" y="0" type="line" smooth="yes"/>
      <point x="712" y="0"/>
      <point x="715" y="7"/>
      <point x="715" y="15" type="curve" smooth="yes"/>
      <point x="715" y="30"/>
      <point x="704" y="39"/>
      <point x="681" y="45" type="curve" smooth="yes"/>
      <point x="629" y="58" type="line"/>
      <point x="538" y="147" type="line"/>
      <point x="575" y="201"/>
      <point x="594" y="267"/>
      <point x="602" y="326" type="curve"/>
      <point x="670" y="345" type="line" smooth="yes"/>
      <point x="689" y="350"/>
      <point x="697" y="359"/>
      <point x="697" y="374" type="curve" smooth="yes"/>
      <point x="697" y="382"/>
      <point x="694" y="389"/>
      <point x="684" y="389" type="curve" smooth="yes"/>
      <point x="512" y="389" type="line" smooth="yes"/>
      <point x="484" y="389"/>
      <point x="466" y="377"/>
      <point x="466" y="354" type="curve" smooth="yes"/>
      <point x="466" y="339"/>
      <point x="474" y="329"/>
      <point x="487" y="329" type="curve" smooth="yes"/>
      <point x="540" y="329" type="line"/>
      <point x="534" y="278"/>
      <point x="524" y="231"/>
      <point x="497" y="187" type="curve"/>
      <point x="322" y="357" type="line"/>
      <point x="412" y="395"/>
      <point x="473" y="449"/>
      <point x="473" y="529" type="curve" smooth="yes"/>
      <point x="473" y="616"/>
      <point x="401" y="687"/>
      <point x="284" y="687" type="curve" smooth="yes"/>
      <point x="177" y="687"/>
      <point x="94" y="629"/>
      <point x="94" y="534" type="curve" smooth="yes"/>
      <point x="94" y="466"/>
      <point x="130" y="418"/>
      <point x="186" y="362" type="curve"/>
      <point x="105" y="327"/>
      <point x="40" y="270"/>
      <point x="40" y="174" type="curve" smooth="yes"/>
      <point x="40" y="57"/>
      <point x="145" y="-13"/>
      <point x="273" y="-13" type="curve" smooth="yes"/>
    </contour>
    <contour>
      <point x="205" y="48"/>
      <point x="136" y="90"/>
      <point x="136" y="175" type="curve" smooth="yes"/>
      <point x="136" y="249"/>
      <point x="185" y="290"/>
      <point x="231" y="313" type="curve"/>
      <point x="436" y="115" type="line"/>
      <point x="401" y="78"/>
      <point x="349" y="48"/>
      <point x="283" y="48" type="curve" smooth="yes"/>
    </contour>
    <contour>
      <point x="230" y="440"/>
      <point x="190" y="486"/>
      <point x="190" y="539" type="curve" smooth="yes"/>
      <point x="190" y="597"/>
      <point x="230" y="627"/>
      <point x="284" y="627" type="curve" smooth="yes"/>
      <point x="337" y="627"/>
      <point x="377" y="593"/>
      <point x="377" y="531" type="curve" smooth="yes"/>
      <point x="377" y="472"/>
      <point x="329" y="429"/>
      <point x="273" y="401" type="curve"/>
    </contour>
  </outline>
</glyph>
<glyph name="quotesingle" format="1">
  <advance width="200"/>
  <unicode hex="0027"/>
  <note>
	quotesingle
  </note>
  <outline>
    <contour>
      <point x="103" y="451" type="line"/>
      <point x="166" y="700" type="line"/>
      <point x="74" y="708" type="line"/>
      <point x="35" y="451" type="line"/>
    </contour>
  </outline>
</glyph>
<glyph name="parenleft" format="1">
  <advance width="306"/>
  <unicode hex="0028"/>
  <note>
	parenleft
  </note>
  <outline>
    <contour>
      <point x="260" y="-79" type="line"/>
      <point x="197" y="42"/>
      <point x="148" y="171"/>
      <point x="148" y="350" type="curve" smooth="yes"/>
      <point x="148" y="528"/>
      <point x="197" y="654"/>
      <point x="260" y="775" type="curve"/>
      <point x="171" y="775" type="line"/>
      <point x="99" y="661"/>
      <point x="47" y="518"/>
      <point x="47" y="350" type="curve" smooth="yes"/>
      <point x="47" y="181"/>
      <point x="99" y="35"/>
      <point x="171" y="-79" type="curve"/>
    </contour>
  </outline>
</glyph>
<glyph name="parenright" format="1">
  <advance width="306"/>
  <unicode hex="0029"/>
  <note>
	parenright
  </note>
  <outline>
    <contour>
      <point x="136" y="-79" type="line"/>
      <point x="208" y="35"/>
      <point x="260" y="181"/>
      <point x="260" y="350" type="curve" smooth="yes"/>
      <point x="260" y="518"/>
      <point x="208" y="661"/>
      <point x="136" y="775" type="curve"/>
      <point x="47" y="775" type="line"/>
      <point x="110" y="654"/>
      <point x="159" y="528"/>
      <point x="159" y="350" type="curve" smooth="yes"/>
      <point x="159" y="171"/>
      <point x="110" y="42"/>
      <point x="47" y="-79" type="curve"/>
    </contour>
  </outline>
</glyph>
<glyph name="asterisk" format="1">
  <advance width="401"/>
  <unicode hex="002A"/>
  <note>
	asterisk
  </note>
  <outline>
    <contour>
      <point x="242" y="386" type="line"/>
      <point x="218" y="520" type="line"/>
      <point x="325" y="434" type="line"/>
      <point x="371" y="509" type="line"/>
      <point x="239" y="560" type="line"/>
      <point x="369" y="610" type="line"/>
      <point x="327" y="687" type="line"/>
      <point x="220" y="598" type="line"/>
      <point x="244" y="733" type="line"/>
      <point x="157" y="733" type="line"/>
      <point x="181" y="598" type="line"/>
      <point x="67" y="687" type="line"/>
      <point x="30" y="608" type="line"/>
      <point x="161" y="560" type="line"/>
      <point x="30" y="511" type="line"/>
      <point x="73" y="437" type="line"/>
      <point x="181" y="520" type="line"/>
      <point x="157" y="386" type="line"/>
    </contour>
  </outline>
</glyph>
<glyph name="plus" format="1">
  <advance width="602"/>
  <unicode hex="002B"/>
  <note>
	plus
  </note>
  <outline>
    <contour>
      <point x="350" y="96" type="line"/>
      <point x="350" y="293" type="line"/>
      <point x="545" y="293" type="line"/>
      <point x="545" y="371" type="line"/>
      <point x="350" y="371" type="line"/>
      <point x="350" y="572" type="line"/>
      <point x="253" y="572" type="line"/>
      <point x="253" y="371" type="line"/>
      <point x="57" y="371" type="line"/>
      <point x="57" y="293" type="line"/>
      <point x="253" y="293" type="line"/>
      <point x="253" y="96" type="line"/>
    </contour>
  </outline>
</glyph>
<glyph name="comma" format="1">
  <advance width="313"/>
  <unicode hex="002C"/>
  <note>
	comma
  </note>
  <outline>
    <contour>
      <point x="172" y="-77"/>
      <point x="217" y="22"/>
      <point x="234" y="91" type="curve"/>
      <point x="133" y="113" type="line" smooth="yes"/>
      <point x="105" y="119"/>
      <point x="85" y="106"/>
      <point x="85" y="82" type="curve" smooth="yes"/>
      <point x="85" y="70"/>
      <point x="91" y="64"/>
      <point x="101" y="61" type="curve" smooth="yes"/>
      <point x="133" y="50" type="line"/>
      <point x="129" y="9"/>
      <point x="95" y="-68"/>
      <point x="65" y="-111" type="curve"/>
      <point x="116" y="-141" type="line"/>
    </contour>
  </outline>
</glyph>
<glyph name="hyphen" format="1">
  <advance width="329"/>
  <unicode hex="002D"/>
  <note>
	hyphen
  </note>
  <outline>
    <contour>
      <point x="307" y="275" type="line"/>
      <point x="307" y="353" type="line"/>
      <point x="23" y="353" type="line"/>
      <point x="23" y="275" type="line"/>
    </contour>
  </outline>
</glyph>
<glyph name="period" format="1">
  <advance width="260"/>
  <unicode hex="002E"/>
  <note>
	period
  </note>
  <outline>
    <contour>
      <point x="164" y="-13"/>
      <point x="191" y="13"/>
      <point x="191" y="48" type="curve" smooth="yes"/>
      <point x="191" y="83"/>
      <point x="164" y="109"/>
      <point x="131" y="109" type="curve" smooth="yes"/>
      <point x="97" y="109"/>
      <point x="70" y="83"/>
      <point x="70" y="48" type="curve" smooth="yes"/>
      <point x="70" y="13"/>
      <point x="97" y="-13"/>
      <point x="131" y="-13" type="curve" smooth="yes"/>
    </contour>
  </outline>
</glyph>
<glyph name="slash" format="1">
  <advance width="378"/>
  <unicode hex="002F"/>
  <note>
	slash
  </note>
  <outline>
    <contour>
      <point x="403" y="717" type="line"/>
      <point x="315" y="750" type="line"/>
      <point x="-30" y="-100" type="line"/>
      <point x="57" y="-133" type="line"/>
    </contour>
  </outline>
</glyph>
<glyph name="zero" format="1">
  <advance width="716"/>
  <unicode hex="0030"/>
  <note>
	zero
  </note>
  <outline>
    <contour>
      <point x="555" y="-13"/>
      <point x="661" y="139"/>
      <point x="661" y="342" type="curve" smooth="yes"/>
      <point x="661" y="545"/>
      <point x="555" y="698"/>
      <point x="358" y="698" type="curve" smooth="yes"/>
      <point x="162" y="698"/>
      <point x="55" y="545"/>
      <point x="55" y="342" type="curve" smooth="yes"/>
      <point x="55" y="139"/>
      <point x="162" y="-13"/>
      <point x="358" y="-13" type="curve" smooth="yes"/>
    </contour>
    <contour>
      <point x="230" y="53"/>
      <point x="156" y="167"/>
      <point x="156" y="342" type="curve" smooth="yes"/>
      <point x="156" y="517"/>
      <point x="230" y="632"/>
      <point x="358" y="632" type="curve" smooth="yes"/>
      <point x="486" y="632"/>
      <point x="560" y="517"/>
      <point x="560" y="342" type="curve" smooth="yes"/>
      <point x="560" y="167"/>
      <point x="486" y="53"/>
      <point x="358" y="53" type="curve" smooth="yes"/>
    </contour>
  </outline>
</glyph>
<glyph name="one" format="1">
  <advance width="443"/>
  <unicode hex="0031"/>
  <note>
	one
  </note>
  <outline>
    <contour>
      <point x="369" y="0" type="line" smooth="yes"/>
      <point x="379" y="0"/>
      <point x="382" y="8"/>
      <point x="382" y="17" type="curve" smooth="yes"/>
      <point x="382" y="32"/>
      <point x="374" y="43"/>
      <point x="344" y="48" type="curve" smooth="yes"/>
      <point x="272" y="60" type="line"/>
      <point x="272" y="685" type="line"/>
      <point x="175" y="685" type="line"/>
      <point x="92" y="659" type="line" smooth="yes"/>
      <point x="68" y="651"/>
      <point x="54" y="640"/>
      <point x="54" y="617" type="curve" smooth="yes"/>
      <point x="54" y="601"/>
      <point x="64" y="593"/>
      <point x="76" y="593" type="curve"/>
      <point x="172" y="622" type="line"/>
      <point x="172" y="60" type="line"/>
      <point x="97" y="60" type="line" smooth="yes"/>
      <point x="70" y="60"/>
      <point x="52" y="48"/>
      <point x="52" y="26" type="curve" smooth="yes"/>
      <point x="52" y="10"/>
      <point x="59" y="0"/>
      <point x="72" y="0" type="curve" smooth="yes"/>
    </contour>
  </outline>
</glyph>
<glyph name="two" format="1">
  <advance width="587"/>
  <unicode hex="0032"/>
  <note>
	two
  </note>
  <outline>
    <contour>
      <point x="527" y="0" type="line"/>
      <point x="527" y="65" type="line"/>
      <point x="184" y="65" type="line"/>
      <point x="184" y="69" type="line"/>
      <point x="366" y="254" type="line" smooth="yes"/>
      <point x="456" y="344"/>
      <point x="515" y="423"/>
      <point x="515" y="510" type="curve" smooth="yes"/>
      <point x="515" y="635"/>
      <point x="431" y="695"/>
      <point x="306" y="695" type="curve" smooth="yes"/>
      <point x="226" y="695"/>
      <point x="145" y="668"/>
      <point x="80" y="627" type="curve"/>
      <point x="80" y="499" type="line" smooth="yes"/>
      <point x="80" y="489"/>
      <point x="85" y="481"/>
      <point x="97" y="481" type="curve" smooth="yes"/>
      <point x="115" y="481"/>
      <point x="125" y="491"/>
      <point x="135" y="531" type="curve" smooth="yes"/>
      <point x="150" y="593" type="line"/>
      <point x="188" y="614"/>
      <point x="238" y="629"/>
      <point x="288" y="629" type="curve" smooth="yes"/>
      <point x="357" y="629"/>
      <point x="412" y="595"/>
      <point x="412" y="516" type="curve" smooth="yes"/>
      <point x="412" y="445"/>
      <point x="358" y="382"/>
      <point x="295" y="318" type="curve" smooth="yes"/>
      <point x="62" y="81" type="line"/>
      <point x="62" y="0" type="line"/>
    </contour>
  </outline>
</glyph>
<glyph name="three" format="1">
  <advance width="588"/>
  <unicode hex="0033"/>
  <note>
	three
  </note>
  <outline>
    <contour>
      <point x="413" y="-10"/>
      <point x="522" y="58"/>
      <point x="522" y="183" type="curve" smooth="yes"/>
      <point x="522" y="276"/>
      <point x="456" y="343"/>
      <point x="352" y="358" type="curve"/>
      <point x="441" y="383"/>
      <point x="497" y="443"/>
      <point x="497" y="528" type="curve" smooth="yes"/>
      <point x="497" y="645"/>
      <point x="399" y="695"/>
      <point x="290" y="695" type="curve" smooth="yes"/>
      <point x="209" y="695"/>
      <point x="127" y="668"/>
      <point x="61" y="627" type="curve"/>
      <point x="61" y="499" type="line" smooth="yes"/>
      <point x="61" y="489"/>
      <point x="66" y="481"/>
      <point x="79" y="481" type="curve" smooth="yes"/>
      <point x="97" y="481"/>
      <point x="105" y="492"/>
      <point x="116" y="531" type="curve" smooth="yes"/>
      <point x="132" y="593" type="line"/>
      <point x="169" y="614"/>
      <point x="220" y="629"/>
      <point x="270" y="629" type="curve" smooth="yes"/>
      <point x="344" y="629"/>
      <point x="397" y="593"/>
      <point x="397" y="517" type="curve" smooth="yes"/>
      <point x="397" y="436"/>
      <point x="332" y="394"/>
      <point x="245" y="383" type="curve" smooth="yes"/>
      <point x="169" y="373" type="line"/>
      <point x="169" y="308" type="line"/>
      <point x="227" y="316"/>
      <point x="251" y="320"/>
      <point x="276" y="320" type="curve" smooth="yes"/>
      <point x="363" y="320"/>
      <point x="422" y="264"/>
      <point x="422" y="191" type="curve" smooth="yes"/>
      <point x="422" y="106"/>
      <point x="367" y="55"/>
      <point x="255" y="55" type="curve" smooth="yes"/>
      <point x="188" y="55"/>
      <point x="110" y="73"/>
      <point x="52" y="97" type="curve"/>
      <point x="52" y="29" type="line"/>
      <point x="101" y="8"/>
      <point x="183" y="-10"/>
      <point x="263" y="-10" type="curve" smooth="yes"/>
    </contour>
  </outline>
</glyph>
<glyph name="four" format="1">
  <advance width="632"/>
  <unicode hex="0034"/>
  <note>
	four
  </note>
  <outline>
    <contour>
      <point x="482" y="0" type="line"/>
      <point x="482" y="154" type="line"/>
      <point x="577" y="154" type="line"/>
      <point x="577" y="220" type="line"/>
      <point x="482" y="220" type="line"/>
      <point x="482" y="685" type="line"/>
      <point x="362" y="685" type="line"/>
      <point x="35" y="224" type="line"/>
      <point x="35" y="154" type="line"/>
      <point x="383" y="154" type="line"/>
      <point x="383" y="0" type="line"/>
    </contour>
    <contour>
      <point x="383" y="596" type="line"/>
      <point x="383" y="220" type="line"/>
      <point x="117" y="220" type="line"/>
    </contour>
  </outline>
</glyph>
<glyph name="five" format="1">
  <advance width="548"/>
  <unicode hex="0035"/>
  <note>
	five
  </note>
  <outline>
    <contour>
      <point x="387" y="-10"/>
      <point x="504" y="57"/>
      <point x="504" y="208" type="curve" smooth="yes"/>
      <point x="504" y="347"/>
      <point x="406" y="417"/>
      <point x="284" y="417" type="curve" smooth="yes"/>
      <point x="248" y="417"/>
      <point x="202" y="410"/>
      <point x="167" y="402" type="curve"/>
      <point x="185" y="620" type="line"/>
      <point x="450" y="620" type="line"/>
      <point x="450" y="685" type="line"/>
      <point x="91" y="685" type="line"/>
      <point x="65" y="373" type="line"/>
      <point x="110" y="332" type="line"/>
      <point x="156" y="343"/>
      <point x="198" y="351"/>
      <point x="244" y="351" type="curve" smooth="yes"/>
      <point x="334" y="351"/>
      <point x="404" y="308"/>
      <point x="404" y="200" type="curve" smooth="yes"/>
      <point x="404" y="99"/>
      <point x="329" y="55"/>
      <point x="234" y="55" type="curve" smooth="yes"/>
      <point x="167" y="55"/>
      <point x="96" y="75"/>
      <point x="45" y="95" type="curve"/>
      <point x="45" y="28" type="line"/>
      <point x="100" y="5"/>
      <point x="171" y="-10"/>
      <point x="247" y="-10" type="curve" smooth="yes"/>
    </contour>
  </outline>
</glyph>
<glyph name="six" format="1">
  <advance width="595"/>
  <unicode hex="0036"/>
  <note>
	six
  </note>
  <outline>
    <contour>
      <point x="435" y="-10"/>
      <point x="540" y="69"/>
      <point x="540" y="215" type="curve" smooth="yes"/>
      <point x="540" y="336"/>
      <point x="461" y="416"/>
      <point x="326" y="416" type="curve" smooth="yes"/>
      <point x="258" y="416"/>
      <point x="199" y="390"/>
      <point x="154" y="361" type="curve"/>
      <point x="154" y="537"/>
      <point x="248" y="630"/>
      <point x="386" y="630" type="curve" smooth="yes"/>
      <point x="412" y="630"/>
      <point x="437" y="628"/>
      <point x="463" y="621" type="curve"/>
      <point x="463" y="685" type="line"/>
      <point x="437" y="691"/>
      <point x="411" y="695"/>
      <point x="384" y="695" type="curve" smooth="yes"/>
      <point x="163" y="695"/>
      <point x="55" y="535"/>
      <point x="55" y="325" type="curve" smooth="yes"/>
      <point x="55" y="120"/>
      <point x="138" y="-10"/>
      <point x="308" y="-10" type="curve" smooth="yes"/>
    </contour>
    <contour>
      <point x="205" y="55"/>
      <point x="155" y="152"/>
      <point x="155" y="293" type="curve"/>
      <point x="193" y="324"/>
      <point x="254" y="350"/>
      <point x="304" y="350" type="curve" smooth="yes"/>
      <point x="388" y="350"/>
      <point x="440" y="306"/>
      <point x="440" y="212" type="curve" smooth="yes"/>
      <point x="440" y="123"/>
      <point x="388" y="55"/>
      <point x="304" y="55" type="curve" smooth="yes"/>
    </contour>
  </outline>
</glyph>
<glyph name="seven" format="1">
  <advance width="564"/>
  <unicode hex="0037"/>
  <note>
	seven
  </note>
  <outline>
    <contour>
      <point x="266" y="0" type="line"/>
      <point x="520" y="628" type="line"/>
      <point x="520" y="685" type="line"/>
      <point x="45" y="685" type="line"/>
      <point x="45" y="554" type="line" smooth="yes"/>
      <point x="45" y="544"/>
      <point x="50" y="536"/>
      <point x="63" y="536" type="curve" smooth="yes"/>
      <point x="81" y="536"/>
      <point x="91" y="549"/>
      <point x="96" y="573" type="curve" smooth="yes"/>
      <point x="107" y="621" type="line"/>
      <point x="410" y="621" type="line"/>
      <point x="156" y="0" type="line"/>
    </contour>
  </outline>
</glyph>
<glyph name="eight" format="1">
  <advance width="632"/>
  <unicode hex="0038"/>
  <note>
	eight
  </note>
  <outline>
    <contour>
      <point x="463" y="-12"/>
      <point x="567" y="62"/>
      <point x="567" y="178" type="curve" smooth="yes"/>
      <point x="567" y="250"/>
      <point x="519" y="309"/>
      <point x="406" y="361" type="curve"/>
      <point x="498" y="411"/>
      <point x="538" y="465"/>
      <point x="538" y="533" type="curve" smooth="yes"/>
      <point x="538" y="627"/>
      <point x="456" y="697"/>
      <point x="318" y="697" type="curve" smooth="yes"/>
      <point x="181" y="697"/>
      <point x="92" y="626"/>
      <point x="92" y="532" type="curve" smooth="yes"/>
      <point x="92" y="460"/>
      <point x="137" y="407"/>
      <point x="226" y="359" type="curve"/>
      <point x="122" y="313"/>
      <point x="65" y="247"/>
      <point x="65" y="174" type="curve" smooth="yes"/>
      <point x="65" y="57"/>
      <point x="169" y="-12"/>
      <point x="315" y="-12" type="curve" smooth="yes"/>
    </contour>
    <contour>
      <point x="225" y="53"/>
      <point x="161" y="97"/>
      <point x="161" y="172" type="curve" smooth="yes"/>
      <point x="161" y="240"/>
      <point x="230" y="286"/>
      <point x="312" y="320" type="curve"/>
      <point x="398" y="285"/>
      <point x="463" y="239"/>
      <point x="463" y="173" type="curve" smooth="yes"/>
      <point x="463" y="98"/>
      <point x="399" y="53"/>
      <point x="312" y="53" type="curve" smooth="yes"/>
    </contour>
    <contour>
      <point x="247" y="435"/>
      <point x="193" y="472"/>
      <point x="193" y="532" type="curve" smooth="yes"/>
      <point x="193" y="596"/>
      <point x="248" y="632"/>
      <point x="317" y="632" type="curve" smooth="yes"/>
      <point x="388" y="632"/>
      <point x="443" y="596"/>
      <point x="443" y="532" type="curve" smooth="yes"/>
      <point x="443" y="475"/>
      <point x="392" y="433"/>
      <point x="319" y="399" type="curve"/>
    </contour>
  </outline>
</glyph>
<glyph name="nine" format="1">
  <advance width="595"/>
  <unicode hex="0039"/>
  <note>
	nine
  </note>
  <outline>
    <contour>
      <point x="436" y="-10"/>
      <point x="540" y="148"/>
      <point x="540" y="360" type="curve" smooth="yes"/>
      <point x="540" y="571"/>
      <point x="462" y="695"/>
      <point x="293" y="695" type="curve" smooth="yes"/>
      <point x="162" y="695"/>
      <point x="55" y="612"/>
      <point x="55" y="465" type="curve" smooth="yes"/>
      <point x="55" y="335"/>
      <point x="147" y="249"/>
      <point x="278" y="249" type="curve" smooth="yes"/>
      <point x="341" y="249"/>
      <point x="398" y="273"/>
      <point x="441" y="307" type="curve"/>
      <point x="438" y="133"/>
      <point x="345" y="55"/>
      <point x="214" y="55" type="curve" smooth="yes"/>
      <point x="185" y="55"/>
      <point x="155" y="58"/>
      <point x="126" y="66" type="curve"/>
      <point x="126" y="3" type="line"/>
      <point x="151" y="-5"/>
      <point x="192" y="-10"/>
      <point x="224" y="-10" type="curve" smooth="yes"/>
    </contour>
    <contour>
      <point x="213" y="315"/>
      <point x="155" y="368"/>
      <point x="155" y="467" type="curve" smooth="yes"/>
      <point x="155" y="562"/>
      <point x="207" y="630"/>
      <point x="296" y="630" type="curve" smooth="yes"/>
      <point x="394" y="630"/>
      <point x="440" y="528"/>
      <point x="440" y="376" type="curve"/>
      <point x="398" y="340"/>
      <point x="348" y="315"/>
      <point x="294" y="315" type="curve" smooth="yes"/>
    </contour>
  </outline>
</glyph>
<glyph name="colon" format="1">
  <advance width="275"/>
  <unicode hex="003A"/>
  <note>
	colon
  </note>
  <outline>
    <contour>
      <point x="175" y="381"/>
      <point x="205" y="409"/>
      <point x="205" y="449" type="curve" smooth="yes"/>
      <point x="205" y="489"/>
      <point x="175" y="517"/>
      <point x="138" y="517" type="curve" smooth="yes"/>
      <point x="100" y="517"/>
      <point x="70" y="489"/>
      <point x="70" y="449" type="curve" smooth="yes"/>
      <point x="70" y="409"/>
      <point x="100" y="381"/>
      <point x="138" y="381" type="curve" smooth="yes"/>
    </contour>
    <contour>
      <point x="175" y="21"/>
      <point x="205" y="49"/>
      <point x="205" y="89" type="curve" smooth="yes"/>
      <point x="205" y="129"/>
      <point x="175" y="157"/>
      <point x="138" y="157" type="curve" smooth="yes"/>
      <point x="100" y="157"/>
      <point x="70" y="129"/>
      <point x="70" y="89" type="curve" smooth="yes"/>
      <point x="70" y="49"/>
      <point x="100" y="21"/>
      <point x="138" y="21" type="curve" smooth="yes"/>
    </contour>
  </outline>
</glyph>
<glyph name="semicolon" format="1">
  <advance width="276"/>
  <unicode hex="003B"/>
  <note>
	semicolon
  </note>
  <outline>
    <contour>
      <point x="143" y="-77"/>
      <point x="194" y="22"/>
      <point x="211" y="91" type="curve"/>
      <point x="110" y="113" type="line" smooth="yes"/>
      <point x="82" y="119"/>
      <point x="62" y="106"/>
      <point x="62" y="82" type="curve" smooth="yes"/>
      <point x="62" y="70"/>
      <point x="68" y="64"/>
      <point x="78" y="61" type="curve" smooth="yes"/>
      <point x="110" y="50" type="line"/>
      <point x="106" y="9"/>
      <point x="71" y="-65"/>
      <point x="42" y="-105" type="curve"/>
      <point x="93" y="-136" type="line"/>
    </contour>
    <contour>
      <point x="181" y="381"/>
      <point x="211" y="409"/>
      <point x="211" y="449" type="curve" smooth="yes"/>
      <point x="211" y="489"/>
      <point x="181" y="517"/>
      <point x="144" y="517" type="curve" smooth="yes"/>
      <point x="106" y="517"/>
      <point x="76" y="489"/>
      <point x="76" y="449" type="curve" smooth="yes"/>
      <point x="76" y="409"/>
      <point x="106" y="381"/>
      <point x="144" y="381" type="curve" smooth="yes"/>
    </contour>
  </outline>
</glyph>
<glyph name="less" format="1">
  <advance width="566"/>
  <unicode hex="003C"/>
  <note>
	less
  </note>
  <outline>
    <contour>
      <point x="496" y="100" type="line"/>
      <point x="154" y="301" type="line"/>
      <point x="496" y="502" type="line"/>
      <point x="458" y="575" type="line"/>
      <point x="60" y="340" type="line"/>
      <point x="60" y="262" type="line"/>
      <point x="458" y="27" type="line"/>
    </contour>
  </outline>
</glyph>
<glyph name="equal" format="1">
  <advance width="558"/>
  <unicode hex="003D"/>
  <note>
	equal
  </note>
  <outline>
    <contour>
      <point x="501" y="372" type="line"/>
      <point x="501" y="447" type="line"/>
      <point x="57" y="447" type="line"/>
      <point x="57" y="372" type="line"/>
    </contour>
    <contour>
      <point x="501" y="185" type="line"/>
      <point x="501" y="260" type="line"/>
      <point x="57" y="260" type="line"/>
      <point x="57" y="185" type="line"/>
    </contour>
  </outline>
</glyph>
<glyph name="greater" format="1">
  <advance width="566"/>
  <unicode hex="003E"/>
  <note>
	greater
  </note>
  <outline>
    <contour>
      <point x="506" y="262" type="line"/>
      <point x="506" y="340" type="line"/>
      <point x="108" y="575" type="line"/>
      <point x="70" y="502" type="line"/>
      <point x="413" y="301" type="line"/>
      <point x="70" y="100" type="line"/>
      <point x="108" y="27" type="line"/>
    </contour>
  </outline>
</glyph>
<glyph name="question" format="1">
  <advance width="478"/>
  <unicode hex="003F"/>
  <note>
	question
  </note>
  <outline>
    <contour>
      <point x="276" y="163" type="line"/>
      <point x="276" y="259" type="line" smooth="yes"/>
      <point x="276" y="334"/>
      <point x="293" y="358"/>
      <point x="344" y="410" type="curve" smooth="yes"/>
      <point x="384" y="448"/>
      <point x="428" y="494"/>
      <point x="428" y="571" type="curve" smooth="yes"/>
      <point x="428" y="662"/>
      <point x="361" y="718"/>
      <point x="251" y="718" type="curve" smooth="yes"/>
      <point x="179" y="718"/>
      <point x="112" y="687"/>
      <point x="75" y="658" type="curve"/>
      <point x="75" y="563" type="line" smooth="yes"/>
      <point x="75" y="554"/>
      <point x="81" y="547"/>
      <point x="93" y="547" type="curve" smooth="yes"/>
      <point x="110" y="547"/>
      <point x="119" y="558"/>
      <point x="124" y="580" type="curve" smooth="yes"/>
      <point x="134" y="627" type="line"/>
      <point x="164" y="646"/>
      <point x="205" y="657"/>
      <point x="242" y="657" type="curve" smooth="yes"/>
      <point x="302" y="657"/>
      <point x="340" y="622"/>
      <point x="340" y="566" type="curve" smooth="yes"/>
      <point x="340" y="509"/>
      <point x="309" y="474"/>
      <point x="274" y="439" type="curve" smooth="yes"/>
      <point x="225" y="390"/>
      <point x="194" y="352"/>
      <point x="194" y="276" type="curve" smooth="yes"/>
      <point x="194" y="163" type="line"/>
    </contour>
    <contour>
      <point x="263" y="-13"/>
      <point x="287" y="7"/>
      <point x="287" y="39" type="curve" smooth="yes"/>
      <point x="287" y="71"/>
      <point x="263" y="91"/>
      <point x="235" y="91" type="curve" smooth="yes"/>
      <point x="206" y="91"/>
      <point x="183" y="71"/>
      <point x="183" y="39" type="curve" smooth="yes"/>
      <point x="183" y="7"/>
      <point x="206" y="-13"/>
      <point x="235" y="-13" type="curve" smooth="yes"/>
    </contour>
  </outline>
</glyph>
<glyph name="at" format="1">
  <advance width="865"/>
  <unicode hex="0040"/>
  <note>
	at
  </note>
  <outline>
    <contour>
      <point x="498" y="-93"/>
      <point x="578" y="-76"/>
      <point x="647" y="-52" type="curve"/>
      <point x="647" y="19" type="line"/>
      <point x="559" y="-13"/>
      <point x="488" y="-25"/>
      <point x="426" y="-25" type="curve" smooth="yes"/>
      <point x="238" y="-25"/>
      <point x="120" y="85"/>
      <point x="120" y="281" type="curve" smooth="yes"/>
      <point x="120" y="505"/>
      <point x="260" y="651"/>
      <point x="476" y="651" type="curve" smooth="yes"/>
      <point x="648" y="651"/>
      <point x="768" y="535"/>
      <point x="768" y="358" type="curve" smooth="yes"/>
      <point x="768" y="245"/>
      <point x="727" y="170"/>
      <point x="671" y="170" type="curve" smooth="yes"/>
      <point x="634" y="170"/>
      <point x="602" y="197"/>
      <point x="605" y="245" type="curve" smooth="yes"/>
      <point x="621" y="497" type="line"/>
      <point x="567" y="513"/>
      <point x="512" y="523"/>
      <point x="463" y="523" type="curve" smooth="yes"/>
      <point x="333" y="523"/>
      <point x="253" y="428"/>
      <point x="253" y="294" type="curve" smooth="yes"/>
      <point x="253" y="165"/>
      <point x="321" y="103"/>
      <point x="422" y="103" type="curve" smooth="yes"/>
      <point x="474" y="103"/>
      <point x="522" y="128"/>
      <point x="560" y="174" type="curve"/>
      <point x="580" y="129"/>
      <point x="622" y="103"/>
      <point x="670" y="103" type="curve" smooth="yes"/>
      <point x="770" y="103"/>
      <point x="841" y="219"/>
      <point x="841" y="357" type="curve" smooth="yes"/>
      <point x="841" y="580"/>
      <point x="688" y="718"/>
      <point x="467" y="718" type="curve" smooth="yes"/>
      <point x="214" y="718"/>
      <point x="47" y="532"/>
      <point x="47" y="278" type="curve" smooth="yes"/>
      <point x="47" y="40"/>
      <point x="195" y="-93"/>
      <point x="426" y="-93" type="curve" smooth="yes"/>
    </contour>
    <contour>
      <point x="361" y="170"/>
      <point x="327" y="211"/>
      <point x="327" y="292" type="curve" smooth="yes"/>
      <point x="327" y="394"/>
      <point x="381" y="455"/>
      <point x="465" y="455" type="curve" smooth="yes"/>
      <point x="487" y="455"/>
      <point x="516" y="453"/>
      <point x="546" y="446" type="curve"/>
      <point x="532" y="235" type="line"/>
      <point x="507" y="196"/>
      <point x="476" y="170"/>
      <point x="423" y="170" type="curve" smooth="yes"/>
    </contour>
  </outline>
</glyph>
<glyph name="A" format="1">
  <advance width="728"/>
  <unicode hex="0041"/>
  <note>
	A
  </note>
  <outline>
    <contour>
      <point x="229" y="0" type="line" smooth="yes"/>
      <point x="238" y="0"/>
      <point x="242" y="6"/>
      <point x="242" y="16" type="curve" smooth="yes"/>
      <point x="242" y="30"/>
      <point x="234" y="39"/>
      <point x="208" y="45" type="curve" smooth="yes"/>
      <point x="150" y="59" type="line"/>
      <point x="207" y="219" type="line"/>
      <point x="491" y="219" type="line"/>
      <point x="549" y="60" type="line"/>
      <point x="512" y="60" type="line" smooth="yes"/>
      <point x="485" y="60"/>
      <point x="467" y="48"/>
      <point x="467" y="25" type="curve" smooth="yes"/>
      <point x="467" y="10"/>
      <point x="475" y="0"/>
      <point x="488" y="0" type="curve" smooth="yes"/>
      <point x="711" y="0" type="line" smooth="yes"/>
      <point x="721" y="0"/>
      <point x="724" y="8"/>
      <point x="724" y="18" type="curve" smooth="yes"/>
      <point x="724" y="34"/>
      <point x="715" y="43"/>
      <point x="692" y="49" type="curve" smooth="yes"/>
      <point x="651" y="59" type="line"/>
      <point x="418" y="695" type="line"/>
      <point x="306" y="695" type="line"/>
      <point x="74" y="60" type="line"/>
      <point x="50" y="60" type="line" smooth="yes"/>
      <point x="23" y="60"/>
      <point x="5" y="48"/>
      <point x="5" y="25" type="curve" smooth="yes"/>
      <point x="5" y="10"/>
      <point x="12" y="0"/>
      <point x="25" y="0" type="curve" smooth="yes"/>
    </contour>
    <contour>
      <point x="349" y="611" type="line"/>
      <point x="467" y="284" type="line"/>
      <point x="231" y="284" type="line"/>
    </contour>
  </outline>
</glyph>
<glyph name="B" format="1">
  <advance width="700"/>
  <unicode hex="0042"/>
  <note>
	B
  </note>
  <outline>
    <contour>
      <point x="415" y="0" type="line" smooth="yes"/>
      <point x="553" y="0"/>
      <point x="645" y="67"/>
      <point x="645" y="192" type="curve" smooth="yes"/>
      <point x="645" y="279"/>
      <point x="592" y="339"/>
      <point x="505" y="364" type="curve"/>
      <point x="505" y="368" type="line"/>
      <point x="567" y="392"/>
      <point x="605" y="443"/>
      <point x="605" y="511" type="curve" smooth="yes"/>
      <point x="605" y="628"/>
      <point x="521" y="695"/>
      <point x="378" y="695" type="curve" smooth="yes"/>
      <point x="71" y="695" type="line" smooth="yes"/>
      <point x="62" y="695"/>
      <point x="55" y="689"/>
      <point x="55" y="675" type="curve" smooth="yes"/>
      <point x="55" y="654"/>
      <point x="69" y="641"/>
      <point x="101" y="635" type="curve" smooth="yes"/>
      <point x="128" y="630" type="line"/>
      <point x="128" y="65" type="line"/>
      <point x="101" y="60" type="line" smooth="yes"/>
      <point x="68" y="54"/>
      <point x="55" y="41"/>
      <point x="55" y="20" type="curve" smooth="yes"/>
      <point x="55" y="6"/>
      <point x="62" y="0"/>
      <point x="71" y="0" type="curve" smooth="yes"/>
    </contour>
    <contour>
      <point x="228" y="327" type="line"/>
      <point x="406" y="327" type="line" smooth="yes"/>
      <point x="496" y="327"/>
      <point x="545" y="274"/>
      <point x="545" y="194" type="curve" smooth="yes"/>
      <point x="545" y="114"/>
      <point x="498" y="64"/>
      <point x="401" y="64" type="curve" smooth="yes"/>
      <point x="228" y="64" type="line"/>
    </contour>
    <contour>
      <point x="228" y="631" type="line"/>
      <point x="373" y="631" type="line" smooth="yes"/>
      <point x="458" y="631"/>
      <point x="505" y="583"/>
      <point x="505" y="510" type="curve" smooth="yes"/>
      <point x="505" y="436"/>
      <point x="457" y="390"/>
      <point x="386" y="390" type="curve" smooth="yes"/>
      <point x="228" y="390" type="line"/>
    </contour>
  </outline>
</glyph>
<glyph name="C" format="1">
  <advance width="660"/>
  <unicode hex="0043"/>
  <note>
	C
  </note>
  <outline>
    <contour>
      <point x="476" y="-13"/>
      <point x="542" y="11"/>
      <point x="579" y="35" type="curve" smooth="yes"/>
      <point x="595" y="45"/>
      <point x="611" y="58"/>
      <point x="611" y="78" type="curve" smooth="yes"/>
      <point x="611" y="94"/>
      <point x="597" y="107"/>
      <point x="584" y="107" type="curve" smooth="yes"/>
      <point x="575" y="107"/>
      <point x="569" y="103"/>
      <point x="555" y="93" type="curve" smooth="yes"/>
      <point x="513" y="63"/>
      <point x="458" y="53"/>
      <point x="398" y="53" type="curve" smooth="yes"/>
      <point x="252" y="53"/>
      <point x="146" y="156"/>
      <point x="146" y="348" type="curve" smooth="yes"/>
      <point x="146" y="539"/>
      <point x="245" y="642"/>
      <point x="390" y="642" type="curve" smooth="yes"/>
      <point x="452" y="642"/>
      <point x="504" y="626"/>
      <point x="535" y="604" type="curve"/>
      <point x="551" y="535" type="line" smooth="yes"/>
      <point x="558" y="506"/>
      <point x="567" y="493"/>
      <point x="585" y="493" type="curve" smooth="yes"/>
      <point x="600" y="493"/>
      <point x="604" y="501"/>
      <point x="604" y="511" type="curve" smooth="yes"/>
      <point x="604" y="633" type="line"/>
      <point x="553" y="676"/>
      <point x="472" y="708"/>
      <point x="374" y="708" type="curve" smooth="yes"/>
      <point x="195" y="708"/>
      <point x="44" y="587"/>
      <point x="44" y="348" type="curve" smooth="yes"/>
      <point x="44" y="109"/>
      <point x="194" y="-13"/>
      <point x="386" y="-13" type="curve" smooth="yes"/>
    </contour>
  </outline>
</glyph>
<glyph name="D" format="1">
  <advance width="747"/>
  <unicode hex="0044"/>
  <note>
	D
  </note>
  <outline>
    <contour>
      <point x="368" y="0" type="line" smooth="yes"/>
      <point x="554" y="0"/>
      <point x="703" y="106"/>
      <point x="703" y="346" type="curve" smooth="yes"/>
      <point x="703" y="587"/>
      <point x="554" y="695"/>
      <point x="368" y="695" type="curve" smooth="yes"/>
      <point x="71" y="695" type="line" smooth="yes"/>
      <point x="62" y="695"/>
      <point x="55" y="689"/>
      <point x="55" y="675" type="curve" smooth="yes"/>
      <point x="55" y="654"/>
      <point x="69" y="641"/>
      <point x="101" y="635" type="curve" smooth="yes"/>
      <point x="128" y="630" type="line"/>
      <point x="128" y="65" type="line"/>
      <point x="101" y="60" type="line" smooth="yes"/>
      <point x="69" y="54"/>
      <point x="55" y="41"/>
      <point x="55" y="20" type="curve" smooth="yes"/>
      <point x="55" y="6"/>
      <point x="62" y="0"/>
      <point x="71" y="0" type="curve" smooth="yes"/>
    </contour>
    <contour>
      <point x="228" y="629" type="line"/>
      <point x="368" y="629" type="line" smooth="yes"/>
      <point x="516" y="629"/>
      <point x="601" y="524"/>
      <point x="601" y="346" type="curve" smooth="yes"/>
      <point x="601" y="169"/>
      <point x="516" y="66"/>
      <point x="368" y="66" type="curve" smooth="yes"/>
      <point x="228" y="66" type="line"/>
    </contour>
  </outline>
</glyph>
<glyph name="E" format="1">
  <advance width="696"/>
  <unicode hex="0045"/>
  <note>
	E
  </note>
  <outline>
    <contour>
      <point x="629" y="0" type="line"/>
      <point x="629" y="142" type="line" smooth="yes"/>
      <point x="629" y="152"/>
      <point x="625" y="159"/>
      <point x="612" y="159" type="curve" smooth="yes"/>
      <point x="597" y="159"/>
      <point x="587" y="145"/>
      <point x="579" y="110" type="curve" smooth="yes"/>
      <point x="569" y="64" type="line"/>
      <point x="228" y="64" type="line"/>
      <point x="228" y="324" type="line"/>
      <point x="497" y="324" type="line"/>
      <point x="510" y="281" type="line" smooth="yes"/>
      <point x="517" y="259"/>
      <point x="525" y="251"/>
      <point x="536" y="251" type="curve" smooth="yes"/>
      <point x="548" y="251"/>
      <point x="552" y="258"/>
      <point x="552" y="266" type="curve" smooth="yes"/>
      <point x="552" y="445" type="line" smooth="yes"/>
      <point x="552" y="453"/>
      <point x="548" y="460"/>
      <point x="536" y="460" type="curve" smooth="yes"/>
      <point x="525" y="460"/>
      <point x="517" y="452"/>
      <point x="510" y="430" type="curve" smooth="yes"/>
      <point x="497" y="387" type="line"/>
      <point x="228" y="387" type="line"/>
      <point x="228" y="631" type="line"/>
      <point x="555" y="631" type="line"/>
      <point x="565" y="588" type="line" smooth="yes"/>
      <point x="573" y="553"/>
      <point x="583" y="538"/>
      <point x="599" y="538" type="curve" smooth="yes"/>
      <point x="611" y="538"/>
      <point x="616" y="545"/>
      <point x="616" y="555" type="curve" smooth="yes"/>
      <point x="616" y="695" type="line"/>
      <point x="71" y="695" type="line" smooth="yes"/>
      <point x="62" y="695"/>
      <point x="55" y="689"/>
      <point x="55" y="675" type="curve" smooth="yes"/>
      <point x="55" y="654"/>
      <point x="68" y="641"/>
      <point x="101" y="635" type="curve" smooth="yes"/>
      <point x="128" y="630" type="line"/>
      <point x="128" y="65" type="line"/>
      <point x="101" y="60" type="line" smooth="yes"/>
      <point x="69" y="54"/>
      <point x="55" y="41"/>
      <point x="55" y="20" type="curve" smooth="yes"/>
      <point x="55" y="6"/>
      <point x="62" y="0"/>
      <point x="71" y="0" type="curve" smooth="yes"/>
    </contour>
  </outline>
</glyph>
<glyph name="F" format="1">
  <advance width="658"/>
  <unicode hex="0046"/>
  <note>
	F
  </note>
  <outline>
    <contour>
      <point x="292" y="0" type="line" smooth="yes"/>
      <point x="303" y="0"/>
      <point x="306" y="6"/>
      <point x="306" y="15" type="curve" smooth="yes"/>
      <point x="306" y="30"/>
      <point x="297" y="39"/>
      <point x="274" y="46" type="curve" smooth="yes"/>
      <point x="228" y="59" type="line"/>
      <point x="228" y="304" type="line"/>
      <point x="478" y="304" type="line"/>
      <point x="490" y="260" type="line" smooth="yes"/>
      <point x="496" y="238"/>
      <point x="505" y="229"/>
      <point x="517" y="229" type="curve" smooth="yes"/>
      <point x="528" y="229"/>
      <point x="532" y="236"/>
      <point x="532" y="245" type="curve" smooth="yes"/>
      <point x="532" y="428" type="line" smooth="yes"/>
      <point x="532" y="436"/>
      <point x="528" y="443"/>
      <point x="517" y="443" type="curve" smooth="yes"/>
      <point x="505" y="443"/>
      <point x="496" y="435"/>
      <point x="490" y="412" type="curve" smooth="yes"/>
      <point x="478" y="369" type="line"/>
      <point x="228" y="369" type="line"/>
      <point x="228" y="629" type="line"/>
      <point x="535" y="629" type="line"/>
      <point x="546" y="584" type="line" smooth="yes"/>
      <point x="554" y="550"/>
      <point x="565" y="535"/>
      <point x="580" y="535" type="curve" smooth="yes"/>
      <point x="593" y="535"/>
      <point x="597" y="542"/>
      <point x="597" y="552" type="curve" smooth="yes"/>
      <point x="597" y="695" type="line"/>
      <point x="71" y="695" type="line" smooth="yes"/>
      <point x="62" y="695"/>
      <point x="55" y="689"/>
      <point x="55" y="675" type="curve" smooth="yes"/>
      <point x="55" y="654"/>
      <point x="68" y="643"/>
      <point x="101" y="636" type="curve" smooth="yes"/>
      <point x="128" y="630" type="line"/>
      <point x="128" y="60" type="line"/>
      <point x="102" y="60" type="line" smooth="yes"/>
      <point x="74" y="60"/>
      <point x="57" y="48"/>
      <point x="57" y="25" type="curve" smooth="yes"/>
      <point x="57" y="10"/>
      <point x="64" y="0"/>
      <point x="77" y="0" type="curve" smooth="yes"/>
    </contour>
  </outline>
</glyph>
<glyph name="G" format="1">
  <advance width="725"/>
  <unicode hex="0047"/>
  <note>
	G
  </note>
  <outline>
    <contour>
      <point x="463" y="-13"/>
      <point x="549" y="3"/>
      <point x="611" y="37" type="curve"/>
      <point x="611" y="290" type="line"/>
      <point x="655" y="304" type="line" smooth="yes"/>
      <point x="677" y="311"/>
      <point x="686" y="319"/>
      <point x="686" y="334" type="curve" smooth="yes"/>
      <point x="686" y="343"/>
      <point x="682" y="349"/>
      <point x="672" y="349" type="curve" smooth="yes"/>
      <point x="440" y="349" type="line" smooth="yes"/>
      <point x="413" y="349"/>
      <point x="395" y="337"/>
      <point x="395" y="315" type="curve" smooth="yes"/>
      <point x="395" y="299"/>
      <point x="402" y="290"/>
      <point x="415" y="290" type="curve" smooth="yes"/>
      <point x="511" y="290" type="line"/>
      <point x="511" y="76" type="line"/>
      <point x="479" y="61"/>
      <point x="436" y="53"/>
      <point x="395" y="53" type="curve" smooth="yes"/>
      <point x="250" y="53"/>
      <point x="149" y="156"/>
      <point x="149" y="348" type="curve" smooth="yes"/>
      <point x="149" y="539"/>
      <point x="246" y="642"/>
      <point x="393" y="642" type="curve" smooth="yes"/>
      <point x="455" y="642"/>
      <point x="507" y="626"/>
      <point x="538" y="604" type="curve"/>
      <point x="554" y="535" type="line" smooth="yes"/>
      <point x="561" y="506"/>
      <point x="570" y="493"/>
      <point x="588" y="493" type="curve" smooth="yes"/>
      <point x="603" y="493"/>
      <point x="607" y="501"/>
      <point x="607" y="511" type="curve" smooth="yes"/>
      <point x="607" y="633" type="line"/>
      <point x="556" y="676"/>
      <point x="474" y="708"/>
      <point x="376" y="708" type="curve" smooth="yes"/>
      <point x="195" y="708"/>
      <point x="47" y="587"/>
      <point x="47" y="348" type="curve" smooth="yes"/>
      <point x="47" y="101"/>
      <point x="200" y="-13"/>
      <point x="393" y="-13" type="curve" smooth="yes"/>
    </contour>
  </outline>
</glyph>
<glyph name="H" format="1">
  <advance width="814"/>
  <unicode hex="0048"/>
  <note>
	H
  </note>
  <outline>
    <contour>
      <point x="290" y="0" type="line" smooth="yes"/>
      <point x="301" y="0"/>
      <point x="304" y="6"/>
      <point x="304" y="15" type="curve" smooth="yes"/>
      <point x="304" y="30"/>
      <point x="295" y="40"/>
      <point x="272" y="46" type="curve" smooth="yes"/>
      <point x="225" y="59" type="line"/>
      <point x="225" y="328" type="line"/>
      <point x="586" y="328" type="line"/>
      <point x="586" y="60" type="line"/>
      <point x="556" y="60" type="line" smooth="yes"/>
      <point x="529" y="60"/>
      <point x="511" y="48"/>
      <point x="511" y="25" type="curve" smooth="yes"/>
      <point x="511" y="10"/>
      <point x="518" y="0"/>
      <point x="531" y="0" type="curve" smooth="yes"/>
      <point x="746" y="0" type="line" smooth="yes"/>
      <point x="757" y="0"/>
      <point x="759" y="7"/>
      <point x="759" y="15" type="curve" smooth="yes"/>
      <point x="759" y="30"/>
      <point x="751" y="38"/>
      <point x="733" y="44" type="curve" smooth="yes"/>
      <point x="686" y="59" type="line"/>
      <point x="686" y="636" type="line"/>
      <point x="733" y="651" type="line" smooth="yes"/>
      <point x="751" y="657"/>
      <point x="759" y="665"/>
      <point x="759" y="680" type="curve" smooth="yes"/>
      <point x="759" y="688"/>
      <point x="757" y="695"/>
      <point x="746" y="695" type="curve" smooth="yes"/>
      <point x="556" y="695" type="line" smooth="yes"/>
      <point x="529" y="695"/>
      <point x="511" y="683"/>
      <point x="511" y="661" type="curve" smooth="yes"/>
      <point x="511" y="645"/>
      <point x="518" y="635"/>
      <point x="531" y="635" type="curve" smooth="yes"/>
      <point x="586" y="635" type="line"/>
      <point x="586" y="394" type="line"/>
      <point x="225" y="394" type="line"/>
      <point x="225" y="636" type="line"/>
      <point x="272" y="649" type="line" smooth="yes"/>
      <point x="294" y="655"/>
      <point x="304" y="665"/>
      <point x="304" y="680" type="curve" smooth="yes"/>
      <point x="304" y="689"/>
      <point x="301" y="695"/>
      <point x="290" y="695" type="curve" smooth="yes"/>
      <point x="100" y="695" type="line" smooth="yes"/>
      <point x="73" y="695"/>
      <point x="55" y="683"/>
      <point x="55" y="661" type="curve" smooth="yes"/>
      <point x="55" y="645"/>
      <point x="62" y="635"/>
      <point x="75" y="635" type="curve" smooth="yes"/>
      <point x="125" y="635" type="line"/>
      <point x="125" y="60" type="line"/>
      <point x="100" y="60" type="line" smooth="yes"/>
      <point x="72" y="60"/>
      <point x="55" y="48"/>
      <point x="55" y="25" type="curve" smooth="yes"/>
      <point x="55" y="10"/>
      <point x="62" y="0"/>
      <point x="75" y="0" type="curve" smooth="yes"/>
    </contour>
  </outline>
</glyph>
<glyph name="I" format="1">
  <advance width="368"/>
  <unicode hex="0049"/>
  <note>
	I
  </note>
  <outline>
    <contour>
      <point x="295" y="0" type="line" smooth="yes"/>
      <point x="306" y="0"/>
      <point x="309" y="6"/>
      <point x="309" y="15" type="curve" smooth="yes"/>
      <point x="309" y="30"/>
      <point x="300" y="40"/>
      <point x="277" y="46" type="curve" smooth="yes"/>
      <point x="230" y="59" type="line"/>
      <point x="230" y="636" type="line"/>
      <point x="277" y="649" type="line" smooth="yes"/>
      <point x="300" y="655"/>
      <point x="309" y="665"/>
      <point x="309" y="680" type="curve" smooth="yes"/>
      <point x="309" y="689"/>
      <point x="306" y="695"/>
      <point x="295" y="695" type="curve" smooth="yes"/>
      <point x="105" y="695" type="line" smooth="yes"/>
      <point x="78" y="695"/>
      <point x="60" y="683"/>
      <point x="60" y="661" type="curve" smooth="yes"/>
      <point x="60" y="645"/>
      <point x="67" y="635"/>
      <point x="80" y="635" type="curve" smooth="yes"/>
      <point x="130" y="635" type="line"/>
      <point x="130" y="60" type="line"/>
      <point x="105" y="60" type="line" smooth="yes"/>
      <point x="78" y="60"/>
      <point x="60" y="48"/>
      <point x="60" y="25" type="curve" smooth="yes"/>
      <point x="60" y="10"/>
      <point x="67" y="0"/>
      <point x="80" y="0" type="curve" smooth="yes"/>
    </contour>
  </outline>
</glyph>
<glyph name="J" format="1">
  <advance width="405"/>
  <unicode hex="004A"/>
  <note>
	J
  </note>
  <outline>
    <contour>
      <point x="110" y="-13"/>
      <point x="132" y="-8"/>
      <point x="155" y="4" type="curve" smooth="yes"/>
      <point x="227" y="42"/>
      <point x="285" y="110"/>
      <point x="285" y="239" type="curve" smooth="yes"/>
      <point x="285" y="636" type="line"/>
      <point x="331" y="649" type="line" smooth="yes"/>
      <point x="353" y="655"/>
      <point x="363" y="665"/>
      <point x="363" y="680" type="curve" smooth="yes"/>
      <point x="363" y="689"/>
      <point x="360" y="695"/>
      <point x="349" y="695" type="curve" smooth="yes"/>
      <point x="148" y="695" type="line" smooth="yes"/>
      <point x="121" y="695"/>
      <point x="103" y="683"/>
      <point x="103" y="661" type="curve" smooth="yes"/>
      <point x="103" y="645"/>
      <point x="110" y="635"/>
      <point x="123" y="635" type="curve" smooth="yes"/>
      <point x="185" y="635" type="line"/>
      <point x="185" y="245" type="line" smooth="yes"/>
      <point x="185" y="138"/>
      <point x="141" y="92"/>
      <point x="35" y="55" type="curve"/>
      <point x="37" y="6"/>
      <point x="61" y="-13"/>
      <point x="90" y="-13" type="curve" smooth="yes"/>
    </contour>
  </outline>
</glyph>
<glyph name="K" format="1">
  <advance width="706"/>
  <unicode hex="004B"/>
  <note>
	K
  </note>
  <outline>
    <contour>
      <point x="685" y="0" type="line" smooth="yes"/>
      <point x="696" y="0"/>
      <point x="699" y="7"/>
      <point x="699" y="15" type="curve" smooth="yes"/>
      <point x="699" y="30"/>
      <point x="688" y="39"/>
      <point x="665" y="45" type="curve" smooth="yes"/>
      <point x="616" y="58" type="line"/>
      <point x="333" y="366" type="line"/>
      <point x="610" y="636" type="line"/>
      <point x="647" y="644" type="line" smooth="yes"/>
      <point x="669" y="649"/>
      <point x="681" y="661"/>
      <point x="681" y="676" type="curve" smooth="yes"/>
      <point x="681" y="688"/>
      <point x="676" y="695"/>
      <point x="665" y="695" type="curve" smooth="yes"/>
      <point x="478" y="695" type="line" smooth="yes"/>
      <point x="450" y="695"/>
      <point x="433" y="683"/>
      <point x="433" y="661" type="curve" smooth="yes"/>
      <point x="433" y="645"/>
      <point x="440" y="635"/>
      <point x="453" y="635" type="curve" smooth="yes"/>
      <point x="517" y="635" type="line"/>
      <point x="225" y="352" type="line"/>
      <point x="532" y="0" type="line"/>
    </contour>
    <contour>
      <point x="290" y="0" type="line" smooth="yes"/>
      <point x="299" y="0"/>
      <point x="304" y="6"/>
      <point x="304" y="15" type="curve" smooth="yes"/>
      <point x="304" y="30"/>
      <point x="295" y="40"/>
      <point x="272" y="46" type="curve" smooth="yes"/>
      <point x="225" y="59" type="line"/>
      <point x="225" y="636" type="line"/>
      <point x="272" y="649" type="line" smooth="yes"/>
      <point x="295" y="655"/>
      <point x="303" y="665"/>
      <point x="303" y="680" type="curve" smooth="yes"/>
      <point x="303" y="689"/>
      <point x="298" y="695"/>
      <point x="289" y="695" type="curve" smooth="yes"/>
      <point x="100" y="695" type="line" smooth="yes"/>
      <point x="73" y="695"/>
      <point x="55" y="683"/>
      <point x="55" y="661" type="curve" smooth="yes"/>
      <point x="55" y="645"/>
      <point x="62" y="635"/>
      <point x="75" y="635" type="curve" smooth="yes"/>
      <point x="125" y="635" type="line"/>
      <point x="125" y="60" type="line"/>
      <point x="100" y="60" type="line" smooth="yes"/>
      <point x="73" y="60"/>
      <point x="55" y="48"/>
      <point x="55" y="25" type="curve" smooth="yes"/>
      <point x="55" y="10"/>
      <point x="62" y="0"/>
      <point x="75" y="0" type="curve" smooth="yes"/>
    </contour>
  </outline>
</glyph>
<glyph name="L" format="1">
  <advance width="612"/>
  <unicode hex="004C"/>
  <note>
	L
  </note>
  <outline>
    <contour>
      <point x="596" y="0" type="line"/>
      <point x="596" y="160" type="line" smooth="yes"/>
      <point x="596" y="171"/>
      <point x="592" y="177"/>
      <point x="579" y="177" type="curve" smooth="yes"/>
      <point x="564" y="177"/>
      <point x="555" y="162"/>
      <point x="546" y="128" type="curve" smooth="yes"/>
      <point x="529" y="66" type="line"/>
      <point x="228" y="66" type="line"/>
      <point x="228" y="636" type="line"/>
      <point x="280" y="649" type="line" smooth="yes"/>
      <point x="303" y="655"/>
      <point x="312" y="665"/>
      <point x="312" y="680" type="curve" smooth="yes"/>
      <point x="312" y="689"/>
      <point x="309" y="695"/>
      <point x="298" y="695" type="curve" smooth="yes"/>
      <point x="102" y="695" type="line" smooth="yes"/>
      <point x="75" y="695"/>
      <point x="57" y="683"/>
      <point x="57" y="661" type="curve" smooth="yes"/>
      <point x="57" y="645"/>
      <point x="64" y="635"/>
      <point x="77" y="635" type="curve" smooth="yes"/>
      <point x="128" y="635" type="line"/>
      <point x="128" y="65" type="line"/>
      <point x="101" y="60" type="line" smooth="yes"/>
      <point x="68" y="54"/>
      <point x="55" y="41"/>
      <point x="55" y="20" type="curve" smooth="yes"/>
      <point x="55" y="6"/>
      <point x="62" y="0"/>
      <point x="71" y="0" type="curve" smooth="yes"/>
    </contour>
  </outline>
</glyph>
<glyph name="M" format="1">
  <advance width="1050"/>
  <unicode hex="004D"/>
  <note>
	M
  </note>
  <outline>
    <contour>
      <point x="247" y="0" type="line" smooth="yes"/>
      <point x="256" y="0"/>
      <point x="260" y="6"/>
      <point x="260" y="16" type="curve" smooth="yes"/>
      <point x="260" y="30"/>
      <point x="251" y="39"/>
      <point x="226" y="45" type="curve" smooth="yes"/>
      <point x="170" y="59" type="line"/>
      <point x="265" y="556" type="line" smooth="yes"/>
      <point x="271" y="584"/>
      <point x="273" y="626"/>
      <point x="273" y="626" type="curve"/>
      <point x="278" y="626" type="line"/>
      <point x="278" y="626"/>
      <point x="284" y="584"/>
      <point x="293" y="556" type="curve" smooth="yes"/>
      <point x="458" y="0" type="line"/>
      <point x="571" y="0" type="line"/>
      <point x="724" y="556" type="line" smooth="yes"/>
      <point x="732" y="584"/>
      <point x="739" y="626"/>
      <point x="739" y="626" type="curve"/>
      <point x="744" y="626" type="line"/>
      <point x="744" y="626"/>
      <point x="747" y="584"/>
      <point x="753" y="556" type="curve" smooth="yes"/>
      <point x="859" y="60" type="line"/>
      <point x="818" y="60" type="line" smooth="yes"/>
      <point x="791" y="60"/>
      <point x="773" y="48"/>
      <point x="773" y="25" type="curve" smooth="yes"/>
      <point x="773" y="10"/>
      <point x="780" y="0"/>
      <point x="793" y="0" type="curve" smooth="yes"/>
      <point x="1017" y="0" type="line" smooth="yes"/>
      <point x="1027" y="0"/>
      <point x="1030" y="8"/>
      <point x="1030" y="18" type="curve" smooth="yes"/>
      <point x="1030" y="34"/>
      <point x="1021" y="43"/>
      <point x="998" y="49" type="curve" smooth="yes"/>
      <point x="957" y="60" type="line"/>
      <point x="833" y="630" type="line"/>
      <point x="860" y="635" type="line" smooth="yes"/>
      <point x="892" y="641"/>
      <point x="906" y="653"/>
      <point x="906" y="674" type="curve" smooth="yes"/>
      <point x="906" y="689"/>
      <point x="898" y="695"/>
      <point x="889" y="695" type="curve" smooth="yes"/>
      <point x="687" y="695" type="line"/>
      <point x="548" y="192" type="line" smooth="yes"/>
      <point x="536" y="146"/>
      <point x="528" y="71"/>
      <point x="528" y="71" type="curve" smooth="yes"/>
      <point x="523" y="71" type="line" smooth="yes"/>
      <point x="523" y="71"/>
      <point x="515" y="146"/>
      <point x="502" y="192" type="curve" smooth="yes"/>
      <point x="353" y="695" type="line"/>
      <point x="151" y="695" type="line" smooth="yes"/>
      <point x="142" y="695"/>
      <point x="135" y="689"/>
      <point x="135" y="674" type="curve" smooth="yes"/>
      <point x="135" y="653"/>
      <point x="149" y="641"/>
      <point x="180" y="635" type="curve" smooth="yes"/>
      <point x="208" y="630" type="line"/>
      <point x="95" y="60" type="line"/>
      <point x="69" y="60" type="line" smooth="yes"/>
      <point x="42" y="60"/>
      <point x="24" y="48"/>
      <point x="24" y="25" type="curve" smooth="yes"/>
      <point x="24" y="10"/>
      <point x="31" y="0"/>
      <point x="44" y="0" type="curve" smooth="yes"/>
    </contour>
  </outline>
</glyph>
<glyph name="N" format="1">
  <advance width="798"/>
  <unicode hex="004E"/>
  <note>
	N
  </note>
  <outline>
    <contour>
      <point x="272" y="0" type="line" smooth="yes"/>
      <point x="283" y="0"/>
      <point x="286" y="6"/>
      <point x="286" y="15" type="curve" smooth="yes"/>
      <point x="286" y="30"/>
      <point x="276" y="39"/>
      <point x="254" y="45" type="curve" smooth="yes"/>
      <point x="202" y="59" type="line"/>
      <point x="202" y="568" type="line"/>
      <point x="218" y="527"/>
      <point x="231" y="501"/>
      <point x="250" y="473" type="curve" smooth="yes"/>
      <point x="578" y="0" type="line"/>
      <point x="671" y="0" type="line"/>
      <point x="671" y="636" type="line"/>
      <point x="711" y="649" type="line" smooth="yes"/>
      <point x="731" y="655"/>
      <point x="746" y="666"/>
      <point x="746" y="680" type="curve" smooth="yes"/>
      <point x="746" y="689"/>
      <point x="743" y="695"/>
      <point x="732" y="695" type="curve" smooth="yes"/>
      <point x="560" y="695" type="line" smooth="yes"/>
      <point x="533" y="695"/>
      <point x="515" y="683"/>
      <point x="515" y="661" type="curve" smooth="yes"/>
      <point x="515" y="645"/>
      <point x="522" y="635"/>
      <point x="535" y="635" type="curve" smooth="yes"/>
      <point x="594" y="635" type="line"/>
      <point x="594" y="126" type="line"/>
      <point x="577" y="169"/>
      <point x="560" y="202"/>
      <point x="537" y="235" type="curve" smooth="yes"/>
      <point x="218" y="695" type="line"/>
      <point x="72" y="695" type="line" smooth="yes"/>
      <point x="63" y="695"/>
      <point x="55" y="689"/>
      <point x="55" y="674" type="curve" smooth="yes"/>
      <point x="55" y="654"/>
      <point x="67" y="645"/>
      <point x="99" y="637" type="curve" smooth="yes"/>
      <point x="126" y="630" type="line"/>
      <point x="126" y="60" type="line"/>
      <point x="100" y="60" type="line" smooth="yes"/>
      <point x="73" y="60"/>
      <point x="55" y="48"/>
      <point x="55" y="25" type="curve" smooth="yes"/>
      <point x="55" y="10"/>
      <point x="62" y="0"/>
      <point x="75" y="0" type="curve" smooth="yes"/>
    </contour>
  </outline>
</glyph>
<glyph name="P" format="1">
  <advance width="631"/>
  <unicode hex="0050"/>
  <note>
	P
  </note>
  <outline>
    <contour>
      <point x="298" y="0" type="line" smooth="yes"/>
      <point x="309" y="0"/>
      <point x="312" y="6"/>
      <point x="312" y="15" type="curve" smooth="yes"/>
      <point x="312" y="30"/>
      <point x="301" y="39"/>
      <point x="275" y="46" type="curve" smooth="yes"/>
      <point x="228" y="59" type="line"/>
      <point x="228" y="282" type="line"/>
      <point x="373" y="282" type="line" smooth="yes"/>
      <point x="510" y="282"/>
      <point x="605" y="356"/>
      <point x="605" y="488" type="curve" smooth="yes"/>
      <point x="605" y="621"/>
      <point x="510" y="695"/>
      <point x="373" y="695" type="curve" smooth="yes"/>
      <point x="71" y="695" type="line" smooth="yes"/>
      <point x="62" y="695"/>
      <point x="55" y="689"/>
      <point x="55" y="675" type="curve" smooth="yes"/>
      <point x="55" y="654"/>
      <point x="69" y="643"/>
      <point x="101" y="636" type="curve" smooth="yes"/>
      <point x="128" y="630" type="line"/>
      <point x="128" y="60" type="line"/>
      <point x="102" y="60" type="line" smooth="yes"/>
      <point x="75" y="60"/>
      <point x="57" y="48"/>
      <point x="57" y="25" type="curve" smooth="yes"/>
      <point x="57" y="10"/>
      <point x="64" y="0"/>
      <point x="77" y="0" type="curve" smooth="yes"/>
    </contour>
    <contour>
      <point x="228" y="629" type="line"/>
      <point x="366" y="629" type="line" smooth="yes"/>
      <point x="455" y="629"/>
      <point x="505" y="572"/>
      <point x="505" y="488" type="curve" smooth="yes"/>
      <point x="505" y="405"/>
      <point x="455" y="348"/>
      <point x="366" y="348" type="curve" smooth="yes"/>
      <point x="228" y="348" type="line"/>
    </contour>
  </outline>
</glyph>
<glyph name="Q" format="1">
  <advance width="745"/>
  <unicode hex="0051"/>
  <note>
	Q
  </note>
  <outline>
    <contour>
      <point x="573" y="-158"/>
      <point x="591" y="-144"/>
      <point x="591" y="-118" type="curve" smooth="yes"/>
      <point x="591" y="-96"/>
      <point x="577" y="-88"/>
      <point x="548" y="-79" type="curve" smooth="yes"/>
      <point x="515" y="-69"/>
      <point x="485" y="-56"/>
      <point x="457" y="-40" type="curve" smooth="yes"/>
      <point x="442" y="-31"/>
      <point x="427" y="-22"/>
      <point x="413" y="-11" type="curve"/>
      <point x="580" y="4"/>
      <point x="699" y="119"/>
      <point x="699" y="347" type="curve" smooth="yes"/>
      <point x="699" y="592"/>
      <point x="561" y="708"/>
      <point x="373" y="708" type="curve" smooth="yes"/>
      <point x="185" y="708"/>
      <point x="47" y="592"/>
      <point x="47" y="347" type="curve" smooth="yes"/>
      <point x="47" y="119"/>
      <point x="166" y="4"/>
      <point x="333" y="-11" type="curve"/>
      <point x="355" y="-38"/>
      <point x="381" y="-66"/>
      <point x="408" y="-90" type="curve" smooth="yes"/>
      <point x="449" y="-126"/>
      <point x="499" y="-158"/>
      <point x="544" y="-158" type="curve" smooth="yes"/>
    </contour>
    <contour>
      <point x="226" y="53"/>
      <point x="148" y="159"/>
      <point x="148" y="347" type="curve" smooth="yes"/>
      <point x="148" y="534"/>
      <point x="226" y="642"/>
      <point x="372" y="642" type="curve" smooth="yes"/>
      <point x="518" y="642"/>
      <point x="597" y="534"/>
      <point x="597" y="347" type="curve" smooth="yes"/>
      <point x="597" y="159"/>
      <point x="518" y="53"/>
      <point x="372" y="53" type="curve" smooth="yes"/>
    </contour>
  </outline>
</glyph>
<glyph name="S" format="1">
  <advance width="596"/>
  <unicode hex="0053"/>
  <note>
	S
  </note>
  <outline>
    <contour>
      <point x="431" y="-13"/>
      <point x="548" y="40"/>
      <point x="548" y="169" type="curve" smooth="yes"/>
      <point x="548" y="285"/>
      <point x="469" y="335"/>
      <point x="349" y="387" type="curve" smooth="yes"/>
      <point x="226" y="442"/>
      <point x="153" y="470"/>
      <point x="153" y="543" type="curve" smooth="yes"/>
      <point x="153" y="613"/>
      <point x="218" y="642"/>
      <point x="293" y="642" type="curve" smooth="yes"/>
      <point x="354" y="642"/>
      <point x="407" y="627"/>
      <point x="442" y="602" type="curve"/>
      <point x="457" y="541" type="line" smooth="yes"/>
      <point x="467" y="502"/>
      <point x="477" y="491"/>
      <point x="495" y="491" type="curve" smooth="yes"/>
      <point x="507" y="491"/>
      <point x="512" y="499"/>
      <point x="512" y="508" type="curve" smooth="yes"/>
      <point x="512" y="637" type="line"/>
      <point x="459" y="680"/>
      <point x="370" y="708"/>
      <point x="286" y="708" type="curve" smooth="yes"/>
      <point x="168" y="708"/>
      <point x="52" y="657"/>
      <point x="52" y="531" type="curve" smooth="yes"/>
      <point x="52" y="422"/>
      <point x="147" y="367"/>
      <point x="264" y="318" type="curve" smooth="yes"/>
      <point x="397" y="263"/>
      <point x="447" y="233"/>
      <point x="447" y="159" type="curve" smooth="yes"/>
      <point x="447" y="78"/>
      <point x="363" y="53"/>
      <point x="282" y="53" type="curve" smooth="yes"/>
      <point x="226" y="53"/>
      <point x="156" y="67"/>
      <point x="119" y="94" type="curve"/>
      <point x="104" y="156" type="line" smooth="yes"/>
      <point x="95" y="195"/>
      <point x="85" y="205"/>
      <point x="67" y="205" type="curve" smooth="yes"/>
      <point x="54" y="205"/>
      <point x="49" y="197"/>
      <point x="49" y="188" type="curve" smooth="yes"/>
      <point x="49" y="52" type="line"/>
      <point x="106" y="12"/>
      <point x="214" y="-13"/>
      <point x="291" y="-13" type="curve" smooth="yes"/>
    </contour>
  </outline>
</glyph>
<glyph name="T" format="1">
  <advance width="612"/>
  <unicode hex="0054"/>
  <note>
	T
  </note>
  <outline>
    <contour>
      <point x="421" y="0" type="line" smooth="yes"/>
      <point x="432" y="0"/>
      <point x="435" y="6"/>
      <point x="435" y="15" type="curve" smooth="yes"/>
      <point x="435" y="30"/>
      <point x="426" y="40"/>
      <point x="403" y="46" type="curve" smooth="yes"/>
      <point x="356" y="59" type="line"/>
      <point x="356" y="629" type="line"/>
      <point x="519" y="629" type="line"/>
      <point x="530" y="578" type="line" smooth="yes"/>
      <point x="536" y="551"/>
      <point x="545" y="535"/>
      <point x="563" y="535" type="curve" smooth="yes"/>
      <point x="574" y="535"/>
      <point x="583" y="540"/>
      <point x="583" y="553" type="curve" smooth="yes"/>
      <point x="583" y="695" type="line"/>
      <point x="30" y="695" type="line"/>
      <point x="30" y="553" type="line" smooth="yes"/>
      <point x="30" y="540"/>
      <point x="39" y="535"/>
      <point x="50" y="535" type="curve" smooth="yes"/>
      <point x="68" y="535"/>
      <point x="75" y="550"/>
      <point x="82" y="578" type="curve" smooth="yes"/>
      <point x="94" y="629" type="line"/>
      <point x="256" y="629" type="line"/>
      <point x="256" y="60" type="line"/>
      <point x="231" y="60" type="line" smooth="yes"/>
      <point x="204" y="60"/>
      <point x="186" y="48"/>
      <point x="186" y="25" type="curve" smooth="yes"/>
      <point x="186" y="10"/>
      <point x="193" y="0"/>
      <point x="206" y="0" type="curve" smooth="yes"/>
    </contour>
  </outline>
</glyph>
<glyph name="U" format="1">
  <advance width="793"/>
  <unicode hex="0055"/>
  <note>
	U
  </note>
  <outline>
    <contour>
      <point x="568" y="-13"/>
      <point x="680" y="84"/>
      <point x="680" y="265" type="curve" smooth="yes"/>
      <point x="680" y="636" type="line"/>
      <point x="723" y="652" type="line" smooth="yes"/>
      <point x="743" y="660"/>
      <point x="753" y="669"/>
      <point x="753" y="681" type="curve" smooth="yes"/>
      <point x="753" y="690"/>
      <point x="750" y="695"/>
      <point x="739" y="695" type="curve" smooth="yes"/>
      <point x="568" y="695" type="line" smooth="yes"/>
      <point x="541" y="695"/>
      <point x="523" y="683"/>
      <point x="523" y="661" type="curve" smooth="yes"/>
      <point x="523" y="645"/>
      <point x="530" y="635"/>
      <point x="543" y="635" type="curve" smooth="yes"/>
      <point x="601" y="635" type="line"/>
      <point x="601" y="257" type="line" smooth="yes"/>
      <point x="601" y="124"/>
      <point x="527" y="54"/>
      <point x="404" y="54" type="curve" smooth="yes"/>
      <point x="283" y="54"/>
      <point x="210" y="124"/>
      <point x="210" y="257" type="curve" smooth="yes"/>
      <point x="210" y="636" type="line"/>
      <point x="257" y="649" type="line" smooth="yes"/>
      <point x="280" y="655"/>
      <point x="289" y="665"/>
      <point x="289" y="680" type="curve" smooth="yes"/>
      <point x="289" y="689"/>
      <point x="286" y="695"/>
      <point x="275" y="695" type="curve" smooth="yes"/>
      <point x="85" y="695" type="line" smooth="yes"/>
      <point x="58" y="695"/>
      <point x="40" y="683"/>
      <point x="40" y="661" type="curve" smooth="yes"/>
      <point x="40" y="645"/>
      <point x="47" y="635"/>
      <point x="60" y="635" type="curve" smooth="yes"/>
      <point x="110" y="635" type="line"/>
      <point x="110" y="265" type="line" smooth="yes"/>
      <point x="110" y="86"/>
      <point x="228" y="-13"/>
      <point x="400" y="-13" type="curve" smooth="yes"/>
    </contour>
  </outline>
</glyph>
<glyph name="V" format="1">
  <advance width="742"/>
  <unicode hex="0056"/>
  <note>
	V
  </note>
  <outline>
    <contour>
      <point x="425" y="0" type="line"/>
      <point x="655" y="635" type="line"/>
      <point x="706" y="651" type="line" smooth="yes"/>
      <point x="723" y="657"/>
      <point x="734" y="666"/>
      <point x="734" y="680" type="curve" smooth="yes"/>
      <point x="734" y="688"/>
      <point x="731" y="695"/>
      <point x="720" y="695" type="curve" smooth="yes"/>
      <point x="541" y="695" type="line" smooth="yes"/>
      <point x="514" y="695"/>
      <point x="496" y="683"/>
      <point x="496" y="661" type="curve" smooth="yes"/>
      <point x="496" y="645"/>
      <point x="504" y="635"/>
      <point x="517" y="635" type="curve" smooth="yes"/>
      <point x="577" y="635" type="line"/>
      <point x="395" y="124" type="line" smooth="yes"/>
      <point x="384" y="95"/>
      <point x="380" y="64"/>
      <point x="380" y="64" type="curve" smooth="yes"/>
      <point x="375" y="64" type="line" smooth="yes"/>
      <point x="375" y="64"/>
      <point x="370" y="95"/>
      <point x="360" y="124" type="curve" smooth="yes"/>
      <point x="184" y="636" type="line"/>
      <point x="234" y="647" type="line" smooth="yes"/>
      <point x="258" y="652"/>
      <point x="271" y="663"/>
      <point x="271" y="680" type="curve" smooth="yes"/>
      <point x="271" y="689"/>
      <point x="267" y="695"/>
      <point x="257" y="695" type="curve" smooth="yes"/>
      <point x="53" y="695" type="line" smooth="yes"/>
      <point x="26" y="695"/>
      <point x="8" y="683"/>
      <point x="8" y="661" type="curve" smooth="yes"/>
      <point x="8" y="645"/>
      <point x="15" y="635"/>
      <point x="28" y="635" type="curve" smooth="yes"/>
      <point x="77" y="635" type="line"/>
      <point x="305" y="0" type="line"/>
    </contour>
  </outline>
</glyph>
<glyph name="W" format="1">
  <advance width="1110"/>
  <unicode hex="0057"/>
  <note>
	W
  </note>
  <outline>
    <contour>
      <point x="394" y="0" type="line"/>
      <point x="535" y="507" type="line" smooth="yes"/>
      <point x="545" y="543"/>
      <point x="550" y="595"/>
      <point x="550" y="595" type="curve"/>
      <point x="554" y="595" type="line"/>
      <point x="554" y="595"/>
      <point x="558" y="543"/>
      <point x="569" y="507" type="curve" smooth="yes"/>
      <point x="719" y="0" type="line"/>
      <point x="840" y="0" type="line"/>
      <point x="1023" y="635" type="line"/>
      <point x="1073" y="651" type="line" smooth="yes"/>
      <point x="1091" y="657"/>
      <point x="1102" y="666"/>
      <point x="1102" y="680" type="curve" smooth="yes"/>
      <point x="1102" y="688"/>
      <point x="1098" y="695"/>
      <point x="1088" y="695" type="curve" smooth="yes"/>
      <point x="907" y="695" type="line" smooth="yes"/>
      <point x="879" y="695"/>
      <point x="862" y="683"/>
      <point x="862" y="661" type="curve" smooth="yes"/>
      <point x="862" y="645"/>
      <point x="869" y="635"/>
      <point x="882" y="635" type="curve" smooth="yes"/>
      <point x="946" y="635" type="line"/>
      <point x="808" y="138" type="line" smooth="yes"/>
      <point x="799" y="107"/>
      <point x="795" y="67"/>
      <point x="795" y="67" type="curve" smooth="yes"/>
      <point x="790" y="67" type="line" smooth="yes"/>
      <point x="790" y="67"/>
      <point x="787" y="107"/>
      <point x="778" y="138" type="curve" smooth="yes"/>
      <point x="611" y="695" type="line"/>
      <point x="513" y="695" type="line"/>
      <point x="358" y="138" type="line" smooth="yes"/>
      <point x="349" y="107"/>
      <point x="345" y="67"/>
      <point x="345" y="67" type="curve" smooth="yes"/>
      <point x="340" y="67" type="line" smooth="yes"/>
      <point x="340" y="67"/>
      <point x="337" y="107"/>
      <point x="328" y="138" type="curve" smooth="yes"/>
      <point x="179" y="636" type="line"/>
      <point x="230" y="647" type="line" smooth="yes"/>
      <point x="254" y="652"/>
      <point x="267" y="663"/>
      <point x="267" y="680" type="curve" smooth="yes"/>
      <point x="267" y="689"/>
      <point x="263" y="695"/>
      <point x="253" y="695" type="curve" smooth="yes"/>
      <point x="54" y="695" type="line" smooth="yes"/>
      <point x="27" y="695"/>
      <point x="9" y="683"/>
      <point x="9" y="661" type="curve" smooth="yes"/>
      <point x="9" y="645"/>
      <point x="16" y="635"/>
      <point x="29" y="635" type="curve" smooth="yes"/>
      <point x="79" y="635" type="line"/>
      <point x="273" y="0" type="line"/>
    </contour>
  </outline>
</glyph>
<glyph name="X" format="1">
  <advance width="721"/>
  <unicode hex="0058"/>
  <note>
	X
  </note>
  <outline>
    <contour>
      <point x="239" y="0" type="line" smooth="yes"/>
      <point x="250" y="0"/>
      <point x="253" y="7"/>
      <point x="253" y="15" type="curve" smooth="yes"/>
      <point x="253" y="29"/>
      <point x="243" y="39"/>
      <point x="225" y="44" type="curve" smooth="yes"/>
      <point x="168" y="60" type="line"/>
      <point x="341" y="308" type="line"/>
      <point x="511" y="60" type="line"/>
      <point x="473" y="60" type="line" smooth="yes"/>
      <point x="445" y="60"/>
      <point x="428" y="48"/>
      <point x="428" y="25" type="curve" smooth="yes"/>
      <point x="428" y="10"/>
      <point x="435" y="0"/>
      <point x="448" y="0" type="curve" smooth="yes"/>
      <point x="696" y="0" type="line" smooth="yes"/>
      <point x="706" y="0"/>
      <point x="710" y="6"/>
      <point x="710" y="15" type="curve" smooth="yes"/>
      <point x="710" y="32"/>
      <point x="697" y="43"/>
      <point x="673" y="48" type="curve" smooth="yes"/>
      <point x="636" y="56" type="line"/>
      <point x="420" y="370" type="line"/>
      <point x="608" y="635" type="line"/>
      <point x="657" y="651" type="line" smooth="yes"/>
      <point x="675" y="657"/>
      <point x="686" y="666"/>
      <point x="686" y="680" type="curve" smooth="yes"/>
      <point x="686" y="688"/>
      <point x="682" y="695"/>
      <point x="672" y="695" type="curve" smooth="yes"/>
      <point x="500" y="695" type="line" smooth="yes"/>
      <point x="472" y="695"/>
      <point x="455" y="683"/>
      <point x="455" y="661" type="curve" smooth="yes"/>
      <point x="455" y="645"/>
      <point x="462" y="635"/>
      <point x="475" y="635" type="curve" smooth="yes"/>
      <point x="527" y="635" type="line"/>
      <point x="371" y="416" type="line"/>
      <point x="220" y="639" type="line"/>
      <point x="264" y="647" type="line" smooth="yes"/>
      <point x="288" y="651"/>
      <point x="301" y="663"/>
      <point x="301" y="680" type="curve" smooth="yes"/>
      <point x="301" y="689"/>
      <point x="297" y="695"/>
      <point x="288" y="695" type="curve" smooth="yes"/>
      <point x="80" y="695" type="line" smooth="yes"/>
      <point x="53" y="695"/>
      <point x="35" y="683"/>
      <point x="35" y="661" type="curve" smooth="yes"/>
      <point x="35" y="645"/>
      <point x="42" y="635"/>
      <point x="55" y="635" type="curve" smooth="yes"/>
      <point x="102" y="635" type="line"/>
      <point x="292" y="354" type="line"/>
      <point x="88" y="60" type="line"/>
      <point x="57" y="60" type="line" smooth="yes"/>
      <point x="30" y="60"/>
      <point x="12" y="48"/>
      <point x="12" y="25" type="curve" smooth="yes"/>
      <point x="12" y="10"/>
      <point x="19" y="0"/>
      <point x="32" y="0" type="curve" smooth="yes"/>
    </contour>
  </outline>
</glyph>
<glyph name="Y" format="1">
  <advance width="705"/>
  <unicode hex="0059"/>
  <note>
	Y
  </note>
  <outline>
    <contour>
      <point x="461" y="0" type="line" smooth="yes"/>
      <point x="472" y="0"/>
      <point x="475" y="6"/>
      <point x="475" y="15" type="curve" smooth="yes"/>
      <point x="475" y="30"/>
      <point x="466" y="40"/>
      <point x="443" y="46" type="curve" smooth="yes"/>
      <point x="396" y="59" type="line"/>
      <point x="396" y="304" type="line"/>
      <point x="618" y="635" type="line"/>
      <point x="668" y="651" type="line" smooth="yes"/>
      <point x="685" y="657"/>
      <point x="696" y="666"/>
      <point x="696" y="680" type="curve" smooth="yes"/>
      <point x="696" y="688"/>
      <point x="693" y="695"/>
      <point x="682" y="695" type="curve" smooth="yes"/>
      <point x="510" y="695" type="line" smooth="yes"/>
      <point x="483" y="695"/>
      <point x="466" y="683"/>
      <point x="466" y="661" type="curve" smooth="yes"/>
      <point x="466" y="645"/>
      <point x="473" y="635"/>
      <point x="486" y="635" type="curve" smooth="yes"/>
      <point x="539" y="635" type="line"/>
      <point x="363" y="373" type="line"/>
      <point x="196" y="636" type="line"/>
      <point x="249" y="647" type="line" smooth="yes"/>
      <point x="270" y="651"/>
      <point x="282" y="661"/>
      <point x="282" y="679" type="curve" smooth="yes"/>
      <point x="282" y="688"/>
      <point x="278" y="695"/>
      <point x="268" y="695" type="curve" smooth="yes"/>
      <point x="54" y="695" type="line" smooth="yes"/>
      <point x="27" y="695"/>
      <point x="9" y="683"/>
      <point x="9" y="661" type="curve" smooth="yes"/>
      <point x="9" y="645"/>
      <point x="16" y="635"/>
      <point x="29" y="635" type="curve" smooth="yes"/>
      <point x="76" y="635" type="line"/>
      <point x="296" y="291" type="line"/>
      <point x="296" y="60" type="line"/>
      <point x="271" y="60" type="line" smooth="yes"/>
      <point x="244" y="60"/>
      <point x="226" y="48"/>
      <point x="226" y="25" type="curve" smooth="yes"/>
      <point x="226" y="10"/>
      <point x="233" y="0"/>
      <point x="246" y="0" type="curve" smooth="yes"/>
    </contour>
  </outline>
</glyph>
<glyph name="Z" format="1">
  <advance width="632"/>
  <unicode hex="005A"/>
  <note>
	Z
  </note>
  <outline>
    <contour>
      <point x="583" y="0" type="line"/>
      <point x="583" y="146" type="line" smooth="yes"/>
      <point x="583" y="159"/>
      <point x="574" y="164"/>
      <point x="563" y="164" type="curve" smooth="yes"/>
      <point x="545" y="164"/>
      <point x="537" y="148"/>
      <point x="531" y="120" type="curve" smooth="yes"/>
      <point x="519" y="66" type="line"/>
      <point x="168" y="66" type="line"/>
      <point x="578" y="627" type="line"/>
      <point x="578" y="695" type="line"/>
      <point x="62" y="695" type="line"/>
      <point x="62" y="549" type="line" smooth="yes"/>
      <point x="62" y="536"/>
      <point x="72" y="531"/>
      <point x="82" y="531" type="curve" smooth="yes"/>
      <point x="100" y="531"/>
      <point x="109" y="547"/>
      <point x="115" y="575" type="curve" smooth="yes"/>
      <point x="126" y="629" type="line"/>
      <point x="456" y="629" type="line"/>
      <point x="46" y="68" type="line"/>
      <point x="46" y="0" type="line"/>
    </contour>
  </outline>
</glyph>
<glyph name="bracketleft" format="1">
  <advance width="305"/>
  <unicode hex="005B"/>
  <note>
	bracketleft
  </note>
  <outline>
    <contour>
      <point x="261" y="-145" type="line"/>
      <point x="261" y="-79" type="line"/>
      <point x="152" y="-79" type="line"/>
      <point x="152" y="694" type="line"/>
      <point x="261" y="694" type="line"/>
      <point x="261" y="760" type="line"/>
      <point x="58" y="760" type="line"/>
      <point x="58" y="-145" type="line"/>
    </contour>
  </outline>
</glyph>
<glyph name="backslash" format="1">
  <advance width="374"/>
  <unicode hex="005C"/>
  <note>
	backslash
  </note>
  <outline>
    <contour>
      <point x="403" y="-101" type="line"/>
      <point x="57" y="750" type="line"/>
      <point x="-30" y="717" type="line"/>
      <point x="316" y="-134" type="line"/>
    </contour>
  </outline>
</glyph>
<glyph name="bracketright" format="1">
  <advance width="305"/>
  <unicode hex="005D"/>
  <note>
	bracketright
  </note>
  <outline>
    <contour>
      <point x="248" y="-145" type="line"/>
      <point x="248" y="760" type="line"/>
      <point x="45" y="760" type="line"/>
      <point x="45" y="694" type="line"/>
      <point x="154" y="694" type="line"/>
      <point x="154" y="-79" type="line"/>
      <point x="45" y="-79" type="line"/>
      <point x="45" y="-145" type="line"/>
    </contour>
  </outline>
</glyph>
<glyph name="asciicircum" format="1">
  <advance width="576"/>
  <unicode hex="005E"/>
  <note>
	asciicircum
  </note>
  <outline>
    <contour>
      <point x="288" y="572" type="line"/>
      <point x="443" y="317" type="line"/>
      <point x="516" y="358" type="line"/>
      <point x="318" y="678" type="line"/>
      <point x="257" y="678" type="line"/>
      <point x="60" y="358" type="line"/>
      <point x="133" y="317" type="line"/>
    </contour>
  </outline>
</glyph>
<glyph name="underscore" format="1">
  <advance width="495"/>
  <unicode hex="005F"/>
  <note>
	underscore
  </note>
  <outline>
    <contour>
      <point x="506" y="-213" type="line"/>
      <point x="506" y="-135" type="line"/>
      <point x="-11" y="-135" type="line"/>
      <point x="-11" y="-213" type="line"/>
    </contour>
  </outline>
</glyph>
<glyph name="grave" format="1">
  <advance width="306"/>
  <unicode hex="0060"/>
  <note>
	grave
  </note>
  <outline>
    <contour>
      <point x="237" y="573" type="line"/>
      <point x="143" y="730" type="line"/>
      <point x="70" y="683" type="line"/>
      <point x="182" y="537" type="line"/>
    </contour>
  </outline>
</glyph>
<glyph name="a" format="1">
  <advance width="537"/>
  <unicode hex="0061"/>
  <note>
	a
  </note>
  <outline>
    <contour>
      <point x="266" y="-13"/>
      <point x="323" y="19"/>
      <point x="357" y="63" type="curve"/>
      <point x="361" y="63" type="line"/>
      <point x="361" y="0" type="line"/>
      <point x="506" y="0" type="line" smooth="yes"/>
      <point x="516" y="0"/>
      <point x="519" y="6"/>
      <point x="519" y="14" type="curve" smooth="yes"/>
      <point x="519" y="29"/>
      <point x="509" y="36"/>
      <point x="488" y="43" type="curve" smooth="yes"/>
      <point x="453" y="54" type="line"/>
      <point x="453" y="338" type="line" smooth="yes"/>
      <point x="453" y="445"/>
      <point x="372" y="500"/>
      <point x="267" y="500" type="curve" smooth="yes"/>
      <point x="198" y="500"/>
      <point x="121" y="475"/>
      <point x="69" y="444" type="curve"/>
      <point x="69" y="346" type="line" smooth="yes"/>
      <point x="69" y="337"/>
      <point x="75" y="330"/>
      <point x="87" y="330" type="curve" smooth="yes"/>
      <point x="104" y="330"/>
      <point x="113" y="342"/>
      <point x="118" y="363" type="curve" smooth="yes"/>
      <point x="128" y="406" type="line"/>
      <point x="157" y="424"/>
      <point x="212" y="440"/>
      <point x="252" y="440" type="curve" smooth="yes"/>
      <point x="320" y="440"/>
      <point x="359" y="400"/>
      <point x="359" y="340" type="curve" smooth="yes"/>
      <point x="359" y="300" type="line"/>
      <point x="228" y="280" type="line" smooth="yes"/>
      <point x="136" y="266"/>
      <point x="41" y="232"/>
      <point x="41" y="125" type="curve" smooth="yes"/>
      <point x="41" y="32"/>
      <point x="116" y="-13"/>
      <point x="195" y="-13" type="curve" smooth="yes"/>
    </contour>
    <contour>
      <point x="172" y="49"/>
      <point x="135" y="77"/>
      <point x="135" y="130" type="curve" smooth="yes"/>
      <point x="135" y="188"/>
      <point x="181" y="214"/>
      <point x="247" y="225" type="curve" smooth="yes"/>
      <point x="359" y="243" type="line"/>
      <point x="359" y="169" type="line" smooth="yes"/>
      <point x="359" y="103"/>
      <point x="293" y="49"/>
      <point x="224" y="49" type="curve" smooth="yes"/>
    </contour>
  </outline>
</glyph>
<glyph name="b" format="1">
  <advance width="590"/>
  <unicode hex="0062"/>
  <note>
	b
  </note>
  <outline>
    <contour>
      <point x="440" y="-13"/>
      <point x="552" y="65"/>
      <point x="552" y="240" type="curve" smooth="yes"/>
      <point x="552" y="421"/>
      <point x="456" y="500"/>
      <point x="337" y="500" type="curve" smooth="yes"/>
      <point x="274" y="500"/>
      <point x="219" y="475"/>
      <point x="179" y="431" type="curve"/>
      <point x="176" y="433" type="line"/>
      <point x="176" y="710" type="line"/>
      <point x="61" y="710" type="line" smooth="yes"/>
      <point x="36" y="710"/>
      <point x="18" y="700"/>
      <point x="18" y="677" type="curve" smooth="yes"/>
      <point x="18" y="662"/>
      <point x="25" y="654"/>
      <point x="37" y="654" type="curve" smooth="yes"/>
      <point x="86" y="654" type="line"/>
      <point x="86" y="46" type="line"/>
      <point x="146" y="10"/>
      <point x="229" y="-13"/>
      <point x="301" y="-13" type="curve" smooth="yes"/>
    </contour>
    <contour>
      <point x="260" y="47"/>
      <point x="212" y="58"/>
      <point x="178" y="78" type="curve"/>
      <point x="178" y="324" type="line" smooth="yes"/>
      <point x="178" y="391"/>
      <point x="243" y="440"/>
      <point x="311" y="440" type="curve" smooth="yes"/>
      <point x="397" y="440"/>
      <point x="457" y="385"/>
      <point x="457" y="239" type="curve" smooth="yes"/>
      <point x="457" y="112"/>
      <point x="405" y="47"/>
      <point x="296" y="47" type="curve" smooth="yes"/>
    </contour>
  </outline>
</glyph>
<glyph name="c" format="1">
  <advance width="490"/>
  <unicode hex="0063"/>
  <note>
	c
  </note>
  <outline>
    <contour>
      <point x="336" y="-13"/>
      <point x="383" y="-1"/>
      <point x="420" y="22" type="curve" smooth="yes"/>
      <point x="441" y="36"/>
      <point x="456" y="50"/>
      <point x="456" y="66" type="curve" smooth="yes"/>
      <point x="456" y="83"/>
      <point x="445" y="95"/>
      <point x="431" y="95" type="curve" smooth="yes"/>
      <point x="424" y="95"/>
      <point x="420" y="91"/>
      <point x="409" y="84" type="curve" smooth="yes"/>
      <point x="375" y="61"/>
      <point x="338" y="47"/>
      <point x="291" y="47" type="curve" smooth="yes"/>
      <point x="198" y="47"/>
      <point x="130" y="114"/>
      <point x="130" y="244" type="curve" smooth="yes"/>
      <point x="130" y="374"/>
      <point x="196" y="440"/>
      <point x="285" y="440" type="curve" smooth="yes"/>
      <point x="324" y="440"/>
      <point x="366" y="428"/>
      <point x="389" y="409" type="curve"/>
      <point x="399" y="361" type="line" smooth="yes"/>
      <point x="404" y="339"/>
      <point x="413" y="328"/>
      <point x="430" y="328" type="curve" smooth="yes"/>
      <point x="442" y="328"/>
      <point x="448" y="335"/>
      <point x="448" y="344" type="curve" smooth="yes"/>
      <point x="448" y="440" type="line"/>
      <point x="416" y="469"/>
      <point x="346" y="500"/>
      <point x="274" y="500" type="curve" smooth="yes"/>
      <point x="138" y="500"/>
      <point x="36" y="409"/>
      <point x="36" y="245" type="curve" smooth="yes"/>
      <point x="36" y="85"/>
      <point x="135" y="-13"/>
      <point x="285" y="-13" type="curve" smooth="yes"/>
    </contour>
  </outline>
</glyph>
<glyph name="d" format="1">
  <advance width="598"/>
  <unicode hex="0064"/>
  <note>
	d
  </note>
  <outline>
    <contour>
      <point x="333" y="-13"/>
      <point x="382" y="21"/>
      <point x="412" y="62" type="curve"/>
      <point x="416" y="62" type="line"/>
      <point x="416" y="0" type="line"/>
      <point x="560" y="0" type="line" smooth="yes"/>
      <point x="571" y="0"/>
      <point x="574" y="6"/>
      <point x="574" y="14" type="curve" smooth="yes"/>
      <point x="574" y="29"/>
      <point x="565" y="36"/>
      <point x="543" y="43" type="curve" smooth="yes"/>
      <point x="504" y="56" type="line"/>
      <point x="504" y="710" type="line"/>
      <point x="388" y="710" type="line" smooth="yes"/>
      <point x="362" y="710"/>
      <point x="345" y="700"/>
      <point x="345" y="677" type="curve" smooth="yes"/>
      <point x="345" y="662"/>
      <point x="352" y="654"/>
      <point x="364" y="654" type="curve" smooth="yes"/>
      <point x="412" y="654" type="line"/>
      <point x="412" y="459" type="line"/>
      <point x="373" y="484"/>
      <point x="326" y="500"/>
      <point x="272" y="500" type="curve" smooth="yes"/>
      <point x="138" y="500"/>
      <point x="36" y="402"/>
      <point x="36" y="240" type="curve" smooth="yes"/>
      <point x="36" y="64"/>
      <point x="141" y="-13"/>
      <point x="260" y="-13" type="curve" smooth="yes"/>
    </contour>
    <contour>
      <point x="186" y="47"/>
      <point x="130" y="115"/>
      <point x="130" y="240" type="curve" smooth="yes"/>
      <point x="130" y="373"/>
      <point x="202" y="440"/>
      <point x="289" y="440" type="curve" smooth="yes"/>
      <point x="335" y="440"/>
      <point x="379" y="423"/>
      <point x="411" y="396" type="curve"/>
      <point x="411" y="171" type="line" smooth="yes"/>
      <point x="411" y="96"/>
      <point x="353" y="47"/>
      <point x="282" y="47" type="curve" smooth="yes"/>
    </contour>
  </outline>
</glyph>
<glyph name="e" format="1">
  <advance width="526"/>
  <unicode hex="0065"/>
  <note>
	e
  </note>
  <outline>
    <contour>
      <point x="339" y="-13"/>
      <point x="388" y="-1"/>
      <point x="430" y="25" type="curve" smooth="yes"/>
      <point x="451" y="38"/>
      <point x="465" y="50"/>
      <point x="465" y="67" type="curve" smooth="yes"/>
      <point x="465" y="84"/>
      <point x="453" y="95"/>
      <point x="439" y="95" type="curve" smooth="yes"/>
      <point x="432" y="95"/>
      <point x="427" y="93"/>
      <point x="415" y="85" type="curve" smooth="yes"/>
      <point x="376" y="60"/>
      <point x="339" y="47"/>
      <point x="289" y="47" type="curve" smooth="yes"/>
      <point x="207" y="47"/>
      <point x="132" y="101"/>
      <point x="132" y="220" type="curve"/>
      <point x="475" y="220" type="line"/>
      <point x="484" y="239"/>
      <point x="491" y="266"/>
      <point x="491" y="290" type="curve" smooth="yes"/>
      <point x="491" y="417"/>
      <point x="406" y="500"/>
      <point x="275" y="500" type="curve" smooth="yes"/>
      <point x="132" y="500"/>
      <point x="38" y="402"/>
      <point x="38" y="240" type="curve" smooth="yes"/>
      <point x="38" y="79"/>
      <point x="142" y="-13"/>
      <point x="285" y="-13" type="curve" smooth="yes"/>
    </contour>
    <contour>
      <point x="140" y="381"/>
      <point x="197" y="440"/>
      <point x="274" y="440" type="curve" smooth="yes"/>
      <point x="347" y="440"/>
      <point x="397" y="394"/>
      <point x="397" y="309" type="curve" smooth="yes"/>
      <point x="397" y="300"/>
      <point x="396" y="288"/>
      <point x="393" y="280" type="curve"/>
      <point x="133" y="280" type="line"/>
    </contour>
  </outline>
</glyph>
<glyph name="f" format="1">
  <advance width="431"/>
  <unicode hex="0066"/>
  <note>
	f
  </note>
  <outline>
    <contour>
      <point x="273" y="0" type="line" smooth="yes"/>
      <point x="284" y="0"/>
      <point x="286" y="6"/>
      <point x="286" y="14" type="curve" smooth="yes"/>
      <point x="286" y="29"/>
      <point x="277" y="37"/>
      <point x="256" y="43" type="curve" smooth="yes"/>
      <point x="211" y="56" type="line"/>
      <point x="211" y="427" type="line"/>
      <point x="304" y="435" type="line" smooth="yes"/>
      <point x="341" y="439"/>
      <point x="356" y="451"/>
      <point x="356" y="471" type="curve" smooth="yes"/>
      <point x="356" y="481"/>
      <point x="352" y="487"/>
      <point x="341" y="487" type="curve" smooth="yes"/>
      <point x="211" y="487" type="line"/>
      <point x="211" y="569" type="line" smooth="yes"/>
      <point x="211" y="630"/>
      <point x="247" y="660"/>
      <point x="295" y="660" type="curve" smooth="yes"/>
      <point x="320" y="660"/>
      <point x="346" y="654"/>
      <point x="368" y="640" type="curve"/>
      <point x="378" y="594" type="line" smooth="yes"/>
      <point x="383" y="573"/>
      <point x="391" y="562"/>
      <point x="408" y="562" type="curve" smooth="yes"/>
      <point x="421" y="562"/>
      <point x="427" y="569"/>
      <point x="427" y="577" type="curve" smooth="yes"/>
      <point x="427" y="669" type="line"/>
      <point x="394" y="697"/>
      <point x="339" y="720"/>
      <point x="276" y="720" type="curve" smooth="yes"/>
      <point x="187" y="720"/>
      <point x="118" y="670"/>
      <point x="118" y="565" type="curve" smooth="yes"/>
      <point x="118" y="487" type="line"/>
      <point x="85" y="487" type="line" smooth="yes"/>
      <point x="59" y="487"/>
      <point x="42" y="474"/>
      <point x="42" y="452" type="curve" smooth="yes"/>
      <point x="42" y="437"/>
      <point x="50" y="427"/>
      <point x="62" y="427" type="curve" smooth="yes"/>
      <point x="118" y="427" type="line"/>
      <point x="118" y="56" type="line"/>
      <point x="93" y="56" type="line" smooth="yes"/>
      <point x="68" y="56"/>
      <point x="50" y="46"/>
      <point x="50" y="24" type="curve" smooth="yes"/>
      <point x="50" y="9"/>
      <point x="57" y="0"/>
      <point x="69" y="0" type="curve" smooth="yes"/>
    </contour>
  </outline>
</glyph>
<glyph name="g" format="1">
  <advance width="562"/>
  <unicode hex="0067"/>
  <note>
	g
  </note>
  <outline>
    <contour>
      <point x="425" y="-233"/>
      <point x="505" y="-155"/>
      <point x="505" y="-24" type="curve" smooth="yes"/>
      <point x="505" y="424" type="line"/>
      <point x="451" y="469"/>
      <point x="366" y="500"/>
      <point x="290" y="500" type="curve" smooth="yes"/>
      <point x="154" y="500"/>
      <point x="36" y="417"/>
      <point x="36" y="240" type="curve" smooth="yes"/>
      <point x="36" y="64"/>
      <point x="142" y="-13"/>
      <point x="259" y="-13" type="curve" smooth="yes"/>
      <point x="333" y="-13"/>
      <point x="382" y="19"/>
      <point x="411" y="59" type="curve"/>
      <point x="415" y="59" type="line"/>
      <point x="415" y="-38" type="line" smooth="yes"/>
      <point x="415" y="-125"/>
      <point x="367" y="-173"/>
      <point x="272" y="-173" type="curve" smooth="yes"/>
      <point x="223" y="-173"/>
      <point x="171" y="-160"/>
      <point x="127" y="-133" type="curve" smooth="yes"/>
      <point x="114" y="-126"/>
      <point x="110" y="-123"/>
      <point x="103" y="-123" type="curve" smooth="yes"/>
      <point x="90" y="-123"/>
      <point x="78" y="-133"/>
      <point x="78" y="-150" type="curve" smooth="yes"/>
      <point x="78" y="-168"/>
      <point x="93" y="-181"/>
      <point x="114" y="-193" type="curve" smooth="yes"/>
      <point x="154" y="-217"/>
      <point x="216" y="-233"/>
      <point x="276" y="-233" type="curve" smooth="yes"/>
    </contour>
    <contour>
      <point x="187" y="47"/>
      <point x="130" y="115"/>
      <point x="130" y="240" type="curve" smooth="yes"/>
      <point x="130" y="375"/>
      <point x="203" y="440"/>
      <point x="291" y="440" type="curve" smooth="yes"/>
      <point x="335" y="440"/>
      <point x="379" y="426"/>
      <point x="412" y="404" type="curve"/>
      <point x="412" y="171" type="line" smooth="yes"/>
      <point x="412" y="96"/>
      <point x="352" y="47"/>
      <point x="281" y="47" type="curve" smooth="yes"/>
    </contour>
  </outline>
</glyph>
<glyph name="h" format="1">
  <advance width="639"/>
  <unicode hex="0068"/>
  <note>
	h
  </note>
  <outline>
    <contour>
      <point x="271" y="0" type="line" smooth="yes"/>
      <point x="282" y="0"/>
      <point x="284" y="6"/>
      <point x="284" y="14" type="curve" smooth="yes"/>
      <point x="284" y="29"/>
      <point x="275" y="37"/>
      <point x="254" y="43" type="curve" smooth="yes"/>
      <point x="209" y="56" type="line"/>
      <point x="209" y="364" type="line"/>
      <point x="247" y="407"/>
      <point x="300" y="438"/>
      <point x="351" y="438" type="curve" smooth="yes"/>
      <point x="417" y="438"/>
      <point x="451" y="398"/>
      <point x="451" y="339" type="curve" smooth="yes"/>
      <point x="451" y="56" type="line"/>
      <point x="426" y="56" type="line" smooth="yes"/>
      <point x="401" y="56"/>
      <point x="383" y="46"/>
      <point x="383" y="24" type="curve" smooth="yes"/>
      <point x="383" y="9"/>
      <point x="390" y="0"/>
      <point x="402" y="0" type="curve" smooth="yes"/>
      <point x="606" y="0" type="line" smooth="yes"/>
      <point x="617" y="0"/>
      <point x="619" y="6"/>
      <point x="619" y="14" type="curve" smooth="yes"/>
      <point x="619" y="29"/>
      <point x="610" y="37"/>
      <point x="589" y="43" type="curve" smooth="yes"/>
      <point x="544" y="56" type="line"/>
      <point x="544" y="346" type="line" smooth="yes"/>
      <point x="544" y="444"/>
      <point x="472" y="500"/>
      <point x="380" y="500" type="curve" smooth="yes"/>
      <point x="313" y="500"/>
      <point x="256" y="467"/>
      <point x="209" y="424" type="curve"/>
      <point x="206" y="425" type="line"/>
      <point x="206" y="710" type="line"/>
      <point x="91" y="710" type="line" smooth="yes"/>
      <point x="66" y="710"/>
      <point x="48" y="700"/>
      <point x="48" y="677" type="curve" smooth="yes"/>
      <point x="48" y="662"/>
      <point x="55" y="654"/>
      <point x="67" y="654" type="curve" smooth="yes"/>
      <point x="116" y="654" type="line"/>
      <point x="116" y="56" type="line"/>
      <point x="91" y="56" type="line" smooth="yes"/>
      <point x="66" y="56"/>
      <point x="48" y="46"/>
      <point x="48" y="24" type="curve" smooth="yes"/>
      <point x="48" y="9"/>
      <point x="55" y="0"/>
      <point x="67" y="0" type="curve" smooth="yes"/>
    </contour>
  </outline>
</glyph>
<glyph name="i" format="1">
  <advance width="293"/>
  <unicode hex="0069"/>
  <note>
	i
  </note>
  <outline>
    <contour>
      <point x="263" y="0" type="line" smooth="yes"/>
      <point x="274" y="0"/>
      <point x="276" y="6"/>
      <point x="276" y="14" type="curve" smooth="yes"/>
      <point x="276" y="29"/>
      <point x="267" y="37"/>
      <point x="246" y="43" type="curve" smooth="yes"/>
      <point x="201" y="56" type="line"/>
      <point x="201" y="490" type="line"/>
      <point x="83" y="490" type="line" smooth="yes"/>
      <point x="58" y="490"/>
      <point x="40" y="480"/>
      <point x="40" y="457" type="curve" smooth="yes"/>
      <point x="40" y="442"/>
      <point x="47" y="434"/>
      <point x="59" y="434" type="curve" smooth="yes"/>
      <point x="108" y="434" type="line"/>
      <point x="108" y="56" type="line"/>
      <point x="83" y="56" type="line" smooth="yes"/>
      <point x="58" y="56"/>
      <point x="40" y="46"/>
      <point x="40" y="24" type="curve" smooth="yes"/>
      <point x="40" y="9"/>
      <point x="47" y="0"/>
      <point x="59" y="0" type="curve" smooth="yes"/>
    </contour>
    <contour>
      <point x="188" y="566"/>
      <point x="217" y="591"/>
      <point x="217" y="631" type="curve" smooth="yes"/>
      <point x="217" y="671"/>
      <point x="188" y="695"/>
      <point x="153" y="695" type="curve" smooth="yes"/>
      <point x="117" y="695"/>
      <point x="88" y="671"/>
      <point x="88" y="631" type="curve" smooth="yes"/>
      <point x="88" y="591"/>
      <point x="117" y="566"/>
      <point x="153" y="566" type="curve" smooth="yes"/>
    </contour>
  </outline>
</glyph>
<glyph name="j" format="1">
  <advance width="320"/>
  <unicode hex="006A"/>
  <note>
	j
  </note>
  <outline>
    <contour>
      <point x="82" y="-233"/>
      <point x="97" y="-227"/>
      <point x="120" y="-216" type="curve" smooth="yes"/>
      <point x="193" y="-180"/>
      <point x="250" y="-110"/>
      <point x="250" y="19" type="curve" smooth="yes"/>
      <point x="250" y="490" type="line"/>
      <point x="132" y="490" type="line" smooth="yes"/>
      <point x="106" y="490"/>
      <point x="89" y="480"/>
      <point x="89" y="457" type="curve" smooth="yes"/>
      <point x="89" y="442"/>
      <point x="95" y="434"/>
      <point x="108" y="434" type="curve" smooth="yes"/>
      <point x="157" y="434" type="line"/>
      <point x="157" y="25" type="line" smooth="yes"/>
      <point x="157" y="-82"/>
      <point x="113" y="-128"/>
      <point x="7" y="-165" type="curve"/>
      <point x="9" y="-214"/>
      <point x="33" y="-233"/>
      <point x="62" y="-233" type="curve" smooth="yes"/>
    </contour>
    <contour>
      <point x="236" y="566"/>
      <point x="265" y="591"/>
      <point x="265" y="631" type="curve" smooth="yes"/>
      <point x="265" y="671"/>
      <point x="236" y="695"/>
      <point x="201" y="695" type="curve" smooth="yes"/>
      <point x="165" y="695"/>
      <point x="136" y="671"/>
      <point x="136" y="631" type="curve" smooth="yes"/>
      <point x="136" y="591"/>
      <point x="165" y="566"/>
      <point x="201" y="566" type="curve" smooth="yes"/>
    </contour>
  </outline>
</glyph>
<glyph name="k" format="1">
  <advance width="606"/>
  <unicode hex="006B"/>
  <note>
	k
  </note>
  <outline>
    <contour>
      <point x="569" y="0" type="line" smooth="yes"/>
      <point x="580" y="0"/>
      <point x="583" y="7"/>
      <point x="583" y="15" type="curve" smooth="yes"/>
      <point x="583" y="30"/>
      <point x="571" y="40"/>
      <point x="549" y="45" type="curve" smooth="yes"/>
      <point x="504" y="56" type="line"/>
      <point x="311" y="272" type="line"/>
      <point x="481" y="431" type="line"/>
      <point x="519" y="440" type="line" smooth="yes"/>
      <point x="543" y="446"/>
      <point x="553" y="456"/>
      <point x="553" y="470" type="curve" smooth="yes"/>
      <point x="553" y="483"/>
      <point x="548" y="490"/>
      <point x="537" y="490" type="curve" smooth="yes"/>
      <point x="363" y="490" type="line" smooth="yes"/>
      <point x="336" y="490"/>
      <point x="317" y="479"/>
      <point x="317" y="455" type="curve" smooth="yes"/>
      <point x="317" y="440"/>
      <point x="325" y="431"/>
      <point x="338" y="431" type="curve" smooth="yes"/>
      <point x="398" y="431" type="line"/>
      <point x="209" y="257" type="line"/>
      <point x="430" y="0" type="line"/>
    </contour>
    <contour>
      <point x="270" y="0" type="line" smooth="yes"/>
      <point x="280" y="0"/>
      <point x="283" y="6"/>
      <point x="283" y="14" type="curve" smooth="yes"/>
      <point x="283" y="28"/>
      <point x="273" y="37"/>
      <point x="252" y="43" type="curve" smooth="yes"/>
      <point x="209" y="56" type="line"/>
      <point x="209" y="710" type="line"/>
      <point x="91" y="710" type="line" smooth="yes"/>
      <point x="66" y="710"/>
      <point x="48" y="700"/>
      <point x="48" y="677" type="curve" smooth="yes"/>
      <point x="48" y="662"/>
      <point x="55" y="654"/>
      <point x="67" y="654" type="curve" smooth="yes"/>
      <point x="116" y="654" type="line"/>
      <point x="116" y="56" type="line"/>
      <point x="91" y="56" type="line" smooth="yes"/>
      <point x="66" y="56"/>
      <point x="48" y="46"/>
      <point x="48" y="24" type="curve" smooth="yes"/>
      <point x="48" y="9"/>
      <point x="55" y="0"/>
      <point x="67" y="0" type="curve" smooth="yes"/>
    </contour>
  </outline>
</glyph>
<glyph name="l" format="1">
  <advance width="311"/>
  <unicode hex="006C"/>
  <note>
	l
  </note>
  <outline>
    <contour>
      <point x="273" y="0" type="line" smooth="yes"/>
      <point x="284" y="0"/>
      <point x="286" y="6"/>
      <point x="286" y="14" type="curve" smooth="yes"/>
      <point x="286" y="29"/>
      <point x="277" y="37"/>
      <point x="256" y="43" type="curve" smooth="yes"/>
      <point x="211" y="56" type="line"/>
      <point x="211" y="710" type="line"/>
      <point x="93" y="710" type="line" smooth="yes"/>
      <point x="68" y="710"/>
      <point x="50" y="700"/>
      <point x="50" y="677" type="curve" smooth="yes"/>
      <point x="50" y="662"/>
      <point x="57" y="654"/>
      <point x="69" y="654" type="curve" smooth="yes"/>
      <point x="118" y="654" type="line"/>
      <point x="118" y="56" type="line"/>
      <point x="93" y="56" type="line" smooth="yes"/>
      <point x="68" y="56"/>
      <point x="50" y="46"/>
      <point x="50" y="24" type="curve" smooth="yes"/>
      <point x="50" y="9"/>
      <point x="57" y="0"/>
      <point x="69" y="0" type="curve" smooth="yes"/>
    </contour>
  </outline>
</glyph>
<glyph name="m" format="1">
  <advance width="925"/>
  <unicode hex="006D"/>
  <note>
	m
  </note>
  <outline>
    <contour>
      <point x="266" y="0" type="line" smooth="yes"/>
      <point x="277" y="0"/>
      <point x="280" y="6"/>
      <point x="280" y="14" type="curve" smooth="yes"/>
      <point x="280" y="28"/>
      <point x="271" y="35"/>
      <point x="251" y="43" type="curve"/>
      <point x="206" y="56" type="line"/>
      <point x="206" y="368" type="line"/>
      <point x="242" y="405"/>
      <point x="290" y="437"/>
      <point x="339" y="437" type="curve" smooth="yes"/>
      <point x="394" y="437"/>
      <point x="426" y="405"/>
      <point x="426" y="341" type="curve" smooth="yes"/>
      <point x="426" y="56" type="line"/>
      <point x="404" y="56" type="line" smooth="yes"/>
      <point x="379" y="56"/>
      <point x="361" y="46"/>
      <point x="361" y="24" type="curve" smooth="yes"/>
      <point x="361" y="9"/>
      <point x="368" y="0"/>
      <point x="380" y="0" type="curve" smooth="yes"/>
      <point x="580" y="0" type="line" smooth="yes"/>
      <point x="591" y="0"/>
      <point x="593" y="6"/>
      <point x="593" y="14" type="curve" smooth="yes"/>
      <point x="593" y="28"/>
      <point x="586" y="37"/>
      <point x="564" y="43" type="curve" smooth="yes"/>
      <point x="520" y="56" type="line"/>
      <point x="520" y="368" type="line"/>
      <point x="554" y="405"/>
      <point x="602" y="437"/>
      <point x="652" y="437" type="curve" smooth="yes"/>
      <point x="708" y="437"/>
      <point x="740" y="405"/>
      <point x="740" y="341" type="curve" smooth="yes"/>
      <point x="740" y="56" type="line"/>
      <point x="716" y="56" type="line" smooth="yes"/>
      <point x="691" y="56"/>
      <point x="673" y="46"/>
      <point x="673" y="24" type="curve" smooth="yes"/>
      <point x="673" y="9"/>
      <point x="680" y="0"/>
      <point x="692" y="0" type="curve" smooth="yes"/>
      <point x="892" y="0" type="line" smooth="yes"/>
      <point x="903" y="0"/>
      <point x="905" y="6"/>
      <point x="905" y="14" type="curve" smooth="yes"/>
      <point x="905" y="28"/>
      <point x="898" y="36"/>
      <point x="876" y="43" type="curve" smooth="yes"/>
      <point x="833" y="56" type="line"/>
      <point x="833" y="349" type="line" smooth="yes"/>
      <point x="833" y="449"/>
      <point x="766" y="500"/>
      <point x="682" y="500" type="curve" smooth="yes"/>
      <point x="610" y="500"/>
      <point x="551" y="459"/>
      <point x="507" y="418" type="curve"/>
      <point x="484" y="472"/>
      <point x="432" y="500"/>
      <point x="371" y="500" type="curve" smooth="yes"/>
      <point x="304" y="500"/>
      <point x="248" y="463"/>
      <point x="205" y="424" type="curve"/>
      <point x="201" y="424" type="line"/>
      <point x="201" y="490" type="line"/>
      <point x="88" y="490" type="line" smooth="yes"/>
      <point x="63" y="490"/>
      <point x="45" y="480"/>
      <point x="45" y="457" type="curve" smooth="yes"/>
      <point x="45" y="442"/>
      <point x="52" y="434"/>
      <point x="64" y="434" type="curve" smooth="yes"/>
      <point x="113" y="434" type="line"/>
      <point x="113" y="56" type="line"/>
      <point x="88" y="56" type="line" smooth="yes"/>
      <point x="63" y="56"/>
      <point x="45" y="46"/>
      <point x="45" y="24" type="curve" smooth="yes"/>
      <point x="45" y="9"/>
      <point x="52" y="0"/>
      <point x="64" y="0" type="curve" smooth="yes"/>
    </contour>
  </outline>
</glyph>
<glyph name="n" format="1">
  <advance width="636"/>
  <unicode hex="006E"/>
  <note>
	n
  </note>
  <outline>
    <contour>
      <point x="268" y="0" type="line" smooth="yes"/>
      <point x="279" y="0"/>
      <point x="281" y="6"/>
      <point x="281" y="14" type="curve" smooth="yes"/>
      <point x="281" y="29"/>
      <point x="273" y="37"/>
      <point x="251" y="43" type="curve" smooth="yes"/>
      <point x="206" y="56" type="line"/>
      <point x="206" y="363" type="line"/>
      <point x="245" y="406"/>
      <point x="297" y="437"/>
      <point x="348" y="437" type="curve" smooth="yes"/>
      <point x="414" y="437"/>
      <point x="448" y="397"/>
      <point x="448" y="338" type="curve" smooth="yes"/>
      <point x="448" y="56" type="line"/>
      <point x="423" y="56" type="line" smooth="yes"/>
      <point x="398" y="56"/>
      <point x="380" y="46"/>
      <point x="380" y="24" type="curve" smooth="yes"/>
      <point x="380" y="9"/>
      <point x="387" y="0"/>
      <point x="399" y="0" type="curve" smooth="yes"/>
      <point x="603" y="0" type="line" smooth="yes"/>
      <point x="614" y="0"/>
      <point x="616" y="6"/>
      <point x="616" y="14" type="curve" smooth="yes"/>
      <point x="616" y="29"/>
      <point x="607" y="37"/>
      <point x="586" y="43" type="curve" smooth="yes"/>
      <point x="541" y="56" type="line"/>
      <point x="541" y="346" type="line" smooth="yes"/>
      <point x="541" y="444"/>
      <point x="469" y="500"/>
      <point x="377" y="500" type="curve" smooth="yes"/>
      <point x="310" y="500"/>
      <point x="252" y="466"/>
      <point x="205" y="423" type="curve"/>
      <point x="201" y="423" type="line"/>
      <point x="201" y="490" type="line"/>
      <point x="88" y="490" type="line" smooth="yes"/>
      <point x="63" y="490"/>
      <point x="45" y="480"/>
      <point x="45" y="457" type="curve" smooth="yes"/>
      <point x="45" y="442"/>
      <point x="52" y="434"/>
      <point x="64" y="434" type="curve" smooth="yes"/>
      <point x="113" y="434" type="line"/>
      <point x="113" y="56" type="line"/>
      <point x="88" y="56" type="line" smooth="yes"/>
      <point x="63" y="56"/>
      <point x="45" y="46"/>
      <point x="45" y="24" type="curve" smooth="yes"/>
      <point x="45" y="9"/>
      <point x="52" y="0"/>
      <point x="64" y="0" type="curve" smooth="yes"/>
    </contour>
  </outline>
</glyph>
<glyph name="o" format="1">
  <advance width="550"/>
  <unicode hex="006F"/>
  <note>
	o
  </note>
  <outline>
    <contour>
      <point x="414" y="-13"/>
      <point x="513" y="78"/>
      <point x="513" y="244" type="curve" smooth="yes"/>
      <point x="513" y="409"/>
      <point x="414" y="500"/>
      <point x="275" y="500" type="curve" smooth="yes"/>
      <point x="136" y="500"/>
      <point x="37" y="409"/>
      <point x="37" y="244" type="curve" smooth="yes"/>
      <point x="37" y="78"/>
      <point x="136" y="-13"/>
      <point x="275" y="-13" type="curve" smooth="yes"/>
    </contour>
    <contour>
      <point x="184" y="47"/>
      <point x="131" y="118"/>
      <point x="131" y="244" type="curve" smooth="yes"/>
      <point x="131" y="370"/>
      <point x="184" y="440"/>
      <point x="275" y="440" type="curve" smooth="yes"/>
      <point x="366" y="440"/>
      <point x="418" y="370"/>
      <point x="418" y="244" type="curve" smooth="yes"/>
      <point x="418" y="118"/>
      <point x="366" y="47"/>
      <point x="275" y="47" type="curve" smooth="yes"/>
    </contour>
  </outline>
</glyph>
<glyph name="p" format="1">
  <advance width="622"/>
  <unicode hex="0070"/>
  <note>
	p
  </note>
  <outline>
    <contour>
      <point x="270" y="-213" type="line" smooth="yes"/>
      <point x="281" y="-213"/>
      <point x="284" y="-207"/>
      <point x="284" y="-199" type="curve" smooth="yes"/>
      <point x="284" y="-184"/>
      <point x="274" y="-176"/>
      <point x="253" y="-170" type="curve" smooth="yes"/>
      <point x="208" y="-157" type="line"/>
      <point x="208" y="19" type="line"/>
      <point x="248" y="0"/>
      <point x="302" y="-13"/>
      <point x="342" y="-13" type="curve" smooth="yes"/>
      <point x="485" y="-13"/>
      <point x="584" y="72"/>
      <point x="584" y="240" type="curve" smooth="yes"/>
      <point x="584" y="421"/>
      <point x="484" y="500"/>
      <point x="365" y="500" type="curve" smooth="yes"/>
      <point x="302" y="500"/>
      <point x="249" y="474"/>
      <point x="209" y="430" type="curve"/>
      <point x="206" y="431" type="line"/>
      <point x="206" y="490" type="line"/>
      <point x="91" y="490" type="line" smooth="yes"/>
      <point x="66" y="490"/>
      <point x="48" y="480"/>
      <point x="48" y="457" type="curve" smooth="yes"/>
      <point x="48" y="442"/>
      <point x="55" y="434"/>
      <point x="67" y="434" type="curve" smooth="yes"/>
      <point x="116" y="434" type="line"/>
      <point x="116" y="-157" type="line"/>
      <point x="91" y="-157" type="line" smooth="yes"/>
      <point x="66" y="-157"/>
      <point x="48" y="-167"/>
      <point x="48" y="-189" type="curve" smooth="yes"/>
      <point x="48" y="-204"/>
      <point x="55" y="-213"/>
      <point x="67" y="-213" type="curve" smooth="yes"/>
    </contour>
    <contour>
      <point x="291" y="47"/>
      <point x="240" y="60"/>
      <point x="208" y="80" type="curve"/>
      <point x="208" y="324" type="line" smooth="yes"/>
      <point x="208" y="391"/>
      <point x="273" y="440"/>
      <point x="342" y="440" type="curve" smooth="yes"/>
      <point x="428" y="440"/>
      <point x="489" y="385"/>
      <point x="489" y="239" type="curve" smooth="yes"/>
      <point x="489" y="114"/>
      <point x="436" y="47"/>
      <point x="327" y="47" type="curve" smooth="yes"/>
    </contour>
  </outline>
</glyph>
<glyph name="q" format="1">
  <advance width="593"/>
  <unicode hex="0071"/>
  <note>
	q
  </note>
  <outline>
    <contour>
      <point x="563" y="-213" type="line" smooth="yes"/>
      <point x="573" y="-213"/>
      <point x="576" y="-207"/>
      <point x="576" y="-199" type="curve" smooth="yes"/>
      <point x="576" y="-184"/>
      <point x="566" y="-177"/>
      <point x="545" y="-170" type="curve" smooth="yes"/>
      <point x="505" y="-157" type="line"/>
      <point x="505" y="490" type="line"/>
      <point x="445" y="490" type="line" smooth="yes"/>
      <point x="427" y="490"/>
      <point x="413" y="481"/>
      <point x="413" y="458" type="curve"/>
      <point x="374" y="483"/>
      <point x="326" y="500"/>
      <point x="271" y="500" type="curve" smooth="yes"/>
      <point x="141" y="500"/>
      <point x="36" y="402"/>
      <point x="36" y="240" type="curve" smooth="yes"/>
      <point x="36" y="64"/>
      <point x="142" y="-13"/>
      <point x="259" y="-13" type="curve" smooth="yes"/>
      <point x="333" y="-13"/>
      <point x="383" y="20"/>
      <point x="412" y="60" type="curve"/>
      <point x="416" y="60" type="line"/>
      <point x="416" y="-157" type="line"/>
      <point x="382" y="-157" type="line" smooth="yes"/>
      <point x="356" y="-157"/>
      <point x="339" y="-167"/>
      <point x="339" y="-189" type="curve" smooth="yes"/>
      <point x="339" y="-204"/>
      <point x="345" y="-213"/>
      <point x="358" y="-213" type="curve" smooth="yes"/>
    </contour>
    <contour>
      <point x="187" y="47"/>
      <point x="130" y="115"/>
      <point x="130" y="240" type="curve" smooth="yes"/>
      <point x="130" y="373"/>
      <point x="203" y="440"/>
      <point x="288" y="440" type="curve" smooth="yes"/>
      <point x="334" y="440"/>
      <point x="380" y="423"/>
      <point x="412" y="396" type="curve"/>
      <point x="412" y="171" type="line" smooth="yes"/>
      <point x="412" y="96"/>
      <point x="352" y="47"/>
      <point x="281" y="47" type="curve" smooth="yes"/>
    </contour>
  </outline>
</glyph>
<glyph name="r" format="1">
  <advance width="434"/>
  <unicode hex="0072"/>
  <note>
	r
  </note>
  <outline>
    <contour>
      <point x="268" y="0" type="line" smooth="yes"/>
      <point x="279" y="0"/>
      <point x="281" y="6"/>
      <point x="281" y="14" type="curve" smooth="yes"/>
      <point x="281" y="29"/>
      <point x="272" y="37"/>
      <point x="251" y="43" type="curve" smooth="yes"/>
      <point x="206" y="56" type="line"/>
      <point x="206" y="327" type="line"/>
      <point x="266" y="381"/>
      <point x="333" y="410"/>
      <point x="409" y="410" type="curve"/>
      <point x="418" y="420"/>
      <point x="424" y="436"/>
      <point x="424" y="453" type="curve" smooth="yes"/>
      <point x="424" y="479"/>
      <point x="407" y="500"/>
      <point x="374" y="500" type="curve" smooth="yes"/>
      <point x="318" y="500"/>
      <point x="250" y="447"/>
      <point x="205" y="390" type="curve"/>
      <point x="201" y="390" type="line"/>
      <point x="201" y="490" type="line"/>
      <point x="88" y="490" type="line" smooth="yes"/>
      <point x="63" y="490"/>
      <point x="45" y="480"/>
      <point x="45" y="457" type="curve" smooth="yes"/>
      <point x="45" y="442"/>
      <point x="52" y="434"/>
      <point x="64" y="434" type="curve" smooth="yes"/>
      <point x="113" y="434" type="line"/>
      <point x="113" y="56" type="line"/>
      <point x="88" y="56" type="line" smooth="yes"/>
      <point x="63" y="56"/>
      <point x="45" y="46"/>
      <point x="45" y="24" type="curve" smooth="yes"/>
      <point x="45" y="9"/>
      <point x="52" y="0"/>
      <point x="64" y="0" type="curve" smooth="yes"/>
    </contour>
  </outline>
</glyph>
<glyph name="t" format="1">
  <advance width="413"/>
  <unicode hex="0074"/>
  <note>
	t
  </note>
  <outline>
    <contour>
      <point x="297" y="-13"/>
      <point x="328" y="-2"/>
      <point x="354" y="15" type="curve" smooth="yes"/>
      <point x="377" y="29"/>
      <point x="388" y="45"/>
      <point x="388" y="58" type="curve" smooth="yes"/>
      <point x="388" y="75"/>
      <point x="377" y="84"/>
      <point x="364" y="84" type="curve" smooth="yes"/>
      <point x="355" y="84"/>
      <point x="348" y="78"/>
      <point x="341" y="72" type="curve" smooth="yes"/>
      <point x="321" y="55"/>
      <point x="303" y="47"/>
      <point x="277" y="47" type="curve" smooth="yes"/>
      <point x="240" y="47"/>
      <point x="214" y="68"/>
      <point x="214" y="112" type="curve" smooth="yes"/>
      <point x="214" y="427" type="line"/>
      <point x="215" y="427" type="line"/>
      <point x="335" y="442" type="line" smooth="yes"/>
      <point x="367" y="447"/>
      <point x="382" y="455"/>
      <point x="382" y="473" type="curve" smooth="yes"/>
      <point x="382" y="482"/>
      <point x="376" y="487"/>
      <point x="368" y="487" type="curve" smooth="yes"/>
      <point x="214" y="487" type="line"/>
      <point x="214" y="596" type="line"/>
      <point x="138" y="596" type="line"/>
      <point x="122" y="487" type="line"/>
      <point x="76" y="487" type="line" smooth="yes"/>
      <point x="50" y="487"/>
      <point x="33" y="474"/>
      <point x="33" y="452" type="curve" smooth="yes"/>
      <point x="33" y="437"/>
      <point x="41" y="427"/>
      <point x="53" y="427" type="curve" smooth="yes"/>
      <point x="121" y="427" type="line"/>
      <point x="121" y="118" type="line" smooth="yes"/>
      <point x="121" y="33"/>
      <point x="183" y="-13"/>
      <point x="257" y="-13" type="curve" smooth="yes"/>
    </contour>
  </outline>
</glyph>
<glyph name="v" format="1">
  <advance width="568"/>
  <unicode hex="0076"/>
  <note>
	v
  </note>
  <outline>
    <contour>
      <point x="340" y="0" type="line"/>
      <point x="496" y="433" type="line"/>
      <point x="536" y="447" type="line" smooth="yes"/>
      <point x="553" y="453"/>
      <point x="567" y="462"/>
      <point x="567" y="476" type="curve" smooth="yes"/>
      <point x="567" y="484"/>
      <point x="564" y="490"/>
      <point x="554" y="490" type="curve" smooth="yes"/>
      <point x="391" y="490" type="line" smooth="yes"/>
      <point x="366" y="490"/>
      <point x="348" y="480"/>
      <point x="348" y="457" type="curve" smooth="yes"/>
      <point x="348" y="442"/>
      <point x="355" y="434"/>
      <point x="368" y="434" type="curve" smooth="yes"/>
      <point x="426" y="434" type="line"/>
      <point x="302" y="87" type="line" smooth="yes"/>
      <point x="296" y="69"/>
      <point x="292" y="43"/>
      <point x="292" y="43" type="curve" smooth="yes"/>
      <point x="288" y="43" type="line" smooth="yes"/>
      <point x="288" y="43"/>
      <point x="283" y="69"/>
      <point x="277" y="87" type="curve" smooth="yes"/>
      <point x="158" y="433" type="line"/>
      <point x="208" y="447" type="line" smooth="yes"/>
      <point x="230" y="453"/>
      <point x="238" y="461"/>
      <point x="238" y="476" type="curve" smooth="yes"/>
      <point x="238" y="484"/>
      <point x="236" y="490"/>
      <point x="225" y="490" type="curve" smooth="yes"/>
      <point x="45" y="490" type="line" smooth="yes"/>
      <point x="20" y="490"/>
      <point x="2" y="480"/>
      <point x="2" y="457" type="curve" smooth="yes"/>
      <point x="2" y="442"/>
      <point x="9" y="434"/>
      <point x="21" y="434" type="curve" smooth="yes"/>
      <point x="61" y="434" type="line"/>
      <point x="217" y="0" type="line"/>
    </contour>
  </outline>
</glyph>
<glyph name="w" format="1">
  <advance width="866"/>
  <unicode hex="0077"/>
  <note>
	w
  </note>
  <outline>
    <contour>
      <point x="316" y="0" type="line"/>
      <point x="416" y="363" type="line" smooth="yes"/>
      <point x="424" y="391"/>
      <point x="426" y="431"/>
      <point x="426" y="431" type="curve"/>
      <point x="430" y="431" type="line"/>
      <point x="430" y="431"/>
      <point x="432" y="391"/>
      <point x="440" y="363" type="curve" smooth="yes"/>
      <point x="547" y="0" type="line"/>
      <point x="670" y="0" type="line"/>
      <point x="794" y="433" type="line"/>
      <point x="834" y="447" type="line" smooth="yes"/>
      <point x="852" y="453"/>
      <point x="865" y="462"/>
      <point x="865" y="476" type="curve" smooth="yes"/>
      <point x="865" y="484"/>
      <point x="862" y="490"/>
      <point x="852" y="490" type="curve" smooth="yes"/>
      <point x="689" y="490" type="line" smooth="yes"/>
      <point x="664" y="490"/>
      <point x="646" y="480"/>
      <point x="646" y="457" type="curve" smooth="yes"/>
      <point x="646" y="442"/>
      <point x="653" y="434"/>
      <point x="666" y="434" type="curve" smooth="yes"/>
      <point x="726" y="434" type="line"/>
      <point x="632" y="95" type="line" smooth="yes"/>
      <point x="626" y="73"/>
      <point x="624" y="48"/>
      <point x="624" y="48" type="curve" smooth="yes"/>
      <point x="620" y="48" type="line" smooth="yes"/>
      <point x="620" y="48"/>
      <point x="618" y="73"/>
      <point x="612" y="95" type="curve" smooth="yes"/>
      <point x="494" y="490" type="line"/>
      <point x="384" y="490" type="line"/>
      <point x="275" y="95" type="line" smooth="yes"/>
      <point x="269" y="73"/>
      <point x="267" y="48"/>
      <point x="267" y="48" type="curve" smooth="yes"/>
      <point x="263" y="48" type="line" smooth="yes"/>
      <point x="263" y="48"/>
      <point x="261" y="73"/>
      <point x="255" y="95" type="curve" smooth="yes"/>
      <point x="154" y="433" type="line"/>
      <point x="208" y="447" type="line" smooth="yes"/>
      <point x="228" y="452"/>
      <point x="238" y="461"/>
      <point x="238" y="476" type="curve" smooth="yes"/>
      <point x="238" y="484"/>
      <point x="236" y="490"/>
      <point x="225" y="490" type="curve" smooth="yes"/>
      <point x="45" y="490" type="line" smooth="yes"/>
      <point x="20" y="490"/>
      <point x="2" y="480"/>
      <point x="2" y="457" type="curve" smooth="yes"/>
      <point x="2" y="442"/>
      <point x="9" y="434"/>
      <point x="21" y="434" type="curve" smooth="yes"/>
      <point x="61" y="434" type="line"/>
      <point x="193" y="0" type="line"/>
    </contour>
  </outline>
</glyph>
<glyph name="x" format="1">
  <advance width="551"/>
  <unicode hex="0078"/>
  <note>
	x
  </note>
  <outline>
    <contour>
      <point x="210" y="0" type="line" smooth="yes"/>
      <point x="219" y="0"/>
      <point x="222" y="7"/>
      <point x="222" y="14" type="curve" smooth="yes"/>
      <point x="222" y="27"/>
      <point x="214" y="37"/>
      <point x="193" y="43" type="curve" smooth="yes"/>
      <point x="144" y="57" type="line"/>
      <point x="250" y="212" type="line"/>
      <point x="395" y="0" type="line"/>
      <point x="527" y="0" type="line" smooth="yes"/>
      <point x="536" y="0"/>
      <point x="538" y="7"/>
      <point x="538" y="14" type="curve" smooth="yes"/>
      <point x="538" y="27"/>
      <point x="529" y="36"/>
      <point x="509" y="43" type="curve" smooth="yes"/>
      <point x="469" y="57" type="line"/>
      <point x="333" y="253" type="line"/>
      <point x="461" y="433" type="line"/>
      <point x="500" y="447" type="line" smooth="yes"/>
      <point x="520" y="454"/>
      <point x="529" y="463"/>
      <point x="529" y="476" type="curve" smooth="yes"/>
      <point x="529" y="483"/>
      <point x="526" y="490"/>
      <point x="518" y="490" type="curve" smooth="yes"/>
      <point x="359" y="490" type="line" smooth="yes"/>
      <point x="339" y="490"/>
      <point x="320" y="478"/>
      <point x="320" y="457" type="curve" smooth="yes"/>
      <point x="320" y="442"/>
      <point x="327" y="434"/>
      <point x="339" y="434" type="curve" smooth="yes"/>
      <point x="388" y="434" type="line"/>
      <point x="290" y="293" type="line"/>
      <point x="159" y="490" type="line"/>
      <point x="60" y="490" type="line" smooth="yes"/>
      <point x="40" y="490"/>
      <point x="21" y="478"/>
      <point x="21" y="457" type="curve" smooth="yes"/>
      <point x="21" y="442"/>
      <point x="28" y="434"/>
      <point x="40" y="434" type="curve" smooth="yes"/>
      <point x="84" y="434" type="line"/>
      <point x="206" y="252" type="line"/>
      <point x="72" y="56" type="line"/>
      <point x="52" y="56" type="line" smooth="yes"/>
      <point x="32" y="56"/>
      <point x="13" y="44"/>
      <point x="13" y="24" type="curve" smooth="yes"/>
      <point x="13" y="9"/>
      <point x="20" y="0"/>
      <point x="32" y="0" type="curve" smooth="yes"/>
    </contour>
  </outline>
</glyph>
<glyph name="y" format="1">
  <advance width="564"/>
  <unicode hex="0079"/>
  <note>
	y
  </note>
  <outline>
    <contour>
      <point x="203" y="-226"/>
      <point x="257" y="-143"/>
      <point x="303" y="-32" type="curve" smooth="yes"/>
      <point x="491" y="433" type="line"/>
      <point x="532" y="447" type="line" smooth="yes"/>
      <point x="548" y="453"/>
      <point x="563" y="462"/>
      <point x="563" y="476" type="curve" smooth="yes"/>
      <point x="563" y="484"/>
      <point x="560" y="490"/>
      <point x="549" y="490" type="curve" smooth="yes"/>
      <point x="387" y="490" type="line" smooth="yes"/>
      <point x="362" y="490"/>
      <point x="344" y="480"/>
      <point x="344" y="457" type="curve" smooth="yes"/>
      <point x="344" y="442"/>
      <point x="351" y="434"/>
      <point x="363" y="434" type="curve" smooth="yes"/>
      <point x="422" y="434" type="line"/>
      <point x="298" y="126" type="line" smooth="yes"/>
      <point x="293" y="114"/>
      <point x="293" y="90"/>
      <point x="293" y="90" type="curve" smooth="yes"/>
      <point x="288" y="90" type="line" smooth="yes"/>
      <point x="288" y="90"/>
      <point x="288" y="113"/>
      <point x="283" y="126" type="curve" smooth="yes"/>
      <point x="160" y="433" type="line"/>
      <point x="210" y="447" type="line" smooth="yes"/>
      <point x="229" y="452"/>
      <point x="240" y="461"/>
      <point x="240" y="476" type="curve" smooth="yes"/>
      <point x="240" y="484"/>
      <point x="238" y="490"/>
      <point x="227" y="490" type="curve" smooth="yes"/>
      <point x="47" y="490" type="line" smooth="yes"/>
      <point x="22" y="490"/>
      <point x="4" y="480"/>
      <point x="4" y="457" type="curve" smooth="yes"/>
      <point x="4" y="442"/>
      <point x="11" y="434"/>
      <point x="23" y="434" type="curve" smooth="yes"/>
      <point x="63" y="434" type="line"/>
      <point x="242" y="0" type="line"/>
      <point x="227" y="-38" type="line" smooth="yes"/>
      <point x="192" y="-123"/>
      <point x="143" y="-147"/>
      <point x="54" y="-147" type="curve"/>
      <point x="48" y="-158"/>
      <point x="45" y="-167"/>
      <point x="45" y="-179" type="curve" smooth="yes"/>
      <point x="45" y="-209"/>
      <point x="69" y="-226"/>
      <point x="99" y="-226" type="curve" smooth="yes"/>
    </contour>
  </outline>
</glyph>
<glyph name="braceleft" format="1">
  <advance width="440"/>
  <unicode hex="007B"/>
  <note>
	braceleft
  </note>
  <outline>
    <contour>
      <point x="395" y="-156" type="line"/>
      <point x="395" y="-90" type="line"/>
      <point x="324" y="-90" type="line" smooth="yes"/>
      <point x="283" y="-90"/>
      <point x="258" y="-71"/>
      <point x="258" y="-22" type="curve" smooth="yes"/>
      <point x="258" y="162" type="line" smooth="yes"/>
      <point x="258" y="237"/>
      <point x="227" y="281"/>
      <point x="159" y="307" type="curve"/>
      <point x="228" y="335"/>
      <point x="258" y="378"/>
      <point x="258" y="454" type="curve" smooth="yes"/>
      <point x="258" y="636" type="line" smooth="yes"/>
      <point x="258" y="685"/>
      <point x="283" y="704"/>
      <point x="324" y="704" type="curve" smooth="yes"/>
      <point x="395" y="704" type="line"/>
      <point x="395" y="770" type="line"/>
      <point x="309" y="770" type="line" smooth="yes"/>
      <point x="230" y="770"/>
      <point x="163" y="736"/>
      <point x="163" y="630" type="curve" smooth="yes"/>
      <point x="163" y="468" type="line" smooth="yes"/>
      <point x="163" y="408"/>
      <point x="137" y="359"/>
      <point x="52" y="349" type="curve"/>
      <point x="52" y="265" type="line"/>
      <point x="137" y="256"/>
      <point x="163" y="213"/>
      <point x="163" y="146" type="curve" smooth="yes"/>
      <point x="163" y="-15" type="line" smooth="yes"/>
      <point x="163" y="-122"/>
      <point x="230" y="-156"/>
      <point x="309" y="-156" type="curve" smooth="yes"/>
    </contour>
  </outline>
</glyph>
<glyph name="bar" format="1">
  <advance width="302"/>
  <unicode hex="007C"/>
  <note>
	bar
  </note>
  <outline>
    <contour>
      <point x="198" y="-126" type="line"/>
      <point x="198" y="731" type="line"/>
      <point x="104" y="731" type="line"/>
      <point x="104" y="-126" type="line"/>
    </contour>
  </outline>
</glyph>
<glyph name="braceright" format="1">
  <advance width="440"/>
  <unicode hex="007D"/>
  <note>
	braceright
  </note>
  <outline>
    <contour>
      <point x="131" y="-156" type="line" smooth="yes"/>
      <point x="211" y="-156"/>
      <point x="277" y="-122"/>
      <point x="277" y="-15" type="curve" smooth="yes"/>
      <point x="277" y="146" type="line" smooth="yes"/>
      <point x="277" y="213"/>
      <point x="303" y="256"/>
      <point x="388" y="265" type="curve"/>
      <point x="388" y="349" type="line"/>
      <point x="303" y="359"/>
      <point x="277" y="408"/>
      <point x="277" y="468" type="curve" smooth="yes"/>
      <point x="277" y="630" type="line" smooth="yes"/>
      <point x="277" y="736"/>
      <point x="211" y="770"/>
      <point x="131" y="770" type="curve" smooth="yes"/>
      <point x="45" y="770" type="line"/>
      <point x="45" y="704" type="line"/>
      <point x="116" y="704" type="line" smooth="yes"/>
      <point x="157" y="704"/>
      <point x="183" y="685"/>
      <point x="183" y="636" type="curve" smooth="yes"/>
      <point x="183" y="454" type="line" smooth="yes"/>
      <point x="183" y="378"/>
      <point x="213" y="335"/>
      <point x="282" y="307" type="curve"/>
      <point x="213" y="281"/>
      <point x="183" y="237"/>
      <point x="183" y="162" type="curve" smooth="yes"/>
      <point x="183" y="-22" type="line" smooth="yes"/>
      <point x="183" y="-71"/>
      <point x="157" y="-90"/>
      <point x="116" y="-90" type="curve" smooth="yes"/>
      <point x="45" y="-90" type="line"/>
      <point x="45" y="-156" type="line"/>
    </contour>
  </outline>
</glyph>
<glyph name="asciitilde" format="1">
  <advance width="616"/>
  <unicode hex="007E"/>
  <note>
	asciitilde
  </note>
  <outline>
    <contour>
      <point x="463" y="234"/>
      <point x="510" y="257"/>
      <point x="557" y="292" type="curve"/>
      <point x="526" y="358" type="line"/>
      <point x="488" y="330"/>
      <point x="448" y="316"/>
      <point x="412" y="316" type="curve" smooth="yes"/>
      <point x="380" y="316"/>
      <point x="351" y="323"/>
      <point x="312" y="340" type="curve" smooth="yes"/>
      <point x="266" y="360"/>
      <point x="236" y="368"/>
      <point x="202" y="368" type="curve" smooth="yes"/>
      <point x="151" y="368"/>
      <point x="100" y="345"/>
      <point x="53" y="309" type="curve"/>
      <point x="84" y="244" type="line"/>
      <point x="123" y="272"/>
      <point x="163" y="286"/>
      <point x="200" y="286" type="curve" smooth="yes"/>
      <point x="231" y="286"/>
      <point x="259" y="279"/>
      <point x="298" y="262" type="curve" smooth="yes"/>
      <point x="343" y="242"/>
      <point x="377" y="234"/>
      <point x="412" y="234" type="curve" smooth="yes"/>
    </contour>
  </outline>
</glyph>
<glyph name="exclamdown" format="1">
  <advance width="324"/>
  <unicode hex="00A1"/>
  <note>
	exclamdown
  </note>
  <outline>
    <contour>
      <point x="217" y="-226" type="line"/>
      <point x="192" y="320" type="line"/>
      <point x="133" y="320" type="line"/>
      <point x="107" y="-226" type="line"/>
    </contour>
    <contour>
      <point x="190" y="386"/>
      <point x="214" y="406"/>
      <point x="214" y="438" type="curve" smooth="yes"/>
      <point x="214" y="470"/>
      <point x="190" y="490"/>
      <point x="162" y="490" type="curve" smooth="yes"/>
      <point x="133" y="490"/>
      <point x="110" y="470"/>
      <point x="110" y="438" type="curve" smooth="yes"/>
      <point x="110" y="406"/>
      <point x="133" y="386"/>
      <point x="162" y="386" type="curve" smooth="yes"/>
    </contour>
  </outline>
</glyph>
<glyph name="cent" format="1">
  <advance width="569"/>
  <unicode hex="00A2"/>
  <note>
	cent
  </note>
  <outline>
    <contour>
      <point x="339" y="-63" type="line"/>
      <point x="339" y="17" type="line"/>
      <point x="387" y="20"/>
      <point x="433" y="32"/>
      <point x="467" y="54" type="curve" smooth="yes"/>
      <point x="490" y="68"/>
      <point x="505" y="84"/>
      <point x="505" y="102" type="curve" smooth="yes"/>
      <point x="505" y="119"/>
      <point x="494" y="133"/>
      <point x="479" y="133" type="curve" smooth="yes"/>
      <point x="471" y="133"/>
      <point x="467" y="129"/>
      <point x="455" y="121" type="curve" smooth="yes"/>
      <point x="420" y="96"/>
      <point x="381" y="82"/>
      <point x="331" y="82" type="curve" smooth="yes"/>
      <point x="232" y="82"/>
      <point x="159" y="153"/>
      <point x="159" y="291" type="curve" smooth="yes"/>
      <point x="159" y="428"/>
      <point x="230" y="498"/>
      <point x="325" y="498" type="curve" smooth="yes"/>
      <point x="366" y="498"/>
      <point x="410" y="486"/>
      <point x="435" y="465" type="curve"/>
      <point x="445" y="414" type="line" smooth="yes"/>
      <point x="450" y="391"/>
      <point x="460" y="379"/>
      <point x="478" y="379" type="curve" smooth="yes"/>
      <point x="491" y="379"/>
      <point x="497" y="386"/>
      <point x="497" y="396" type="curve" smooth="yes"/>
      <point x="497" y="499" type="line"/>
      <point x="469" y="526"/>
      <point x="412" y="552"/>
      <point x="350" y="560" type="curve"/>
      <point x="350" y="637" type="line"/>
      <point x="275" y="637" type="line"/>
      <point x="275" y="560" type="line"/>
      <point x="150" y="544"/>
      <point x="60" y="449"/>
      <point x="60" y="292" type="curve" smooth="yes"/>
      <point x="60" y="145"/>
      <point x="139" y="46"/>
      <point x="264" y="22" type="curve"/>
      <point x="264" y="-63" type="line"/>
    </contour>
  </outline>
</glyph>
<glyph name="sterling" format="1">
  <advance width="649"/>
  <unicode hex="00A3"/>
  <note>
	sterling
  </note>
  <outline>
    <contour>
      <point x="540" y="0" type="line"/>
      <point x="540" y="121" type="line" smooth="yes"/>
      <point x="540" y="136"/>
      <point x="530" y="144"/>
      <point x="517" y="144" type="curve" smooth="yes"/>
      <point x="499" y="144"/>
      <point x="484" y="133"/>
      <point x="478" y="104" type="curve" smooth="yes"/>
      <point x="470" y="66" type="line"/>
      <point x="244" y="66" type="line"/>
      <point x="273" y="93"/>
      <point x="295" y="132"/>
      <point x="295" y="180" type="curve" smooth="yes"/>
      <point x="295" y="208"/>
      <point x="288" y="234"/>
      <point x="279" y="259" type="curve"/>
      <point x="452" y="272" type="line" smooth="yes"/>
      <point x="471" y="273"/>
      <point x="490" y="283"/>
      <point x="490" y="304" type="curve" smooth="yes"/>
      <point x="490" y="316"/>
      <point x="484" y="325"/>
      <point x="468" y="325" type="curve" smooth="yes"/>
      <point x="250" y="325" type="line"/>
      <point x="235" y="359"/>
      <point x="222" y="392"/>
      <point x="222" y="425" type="curve" smooth="yes"/>
      <point x="222" y="494"/>
      <point x="269" y="529"/>
      <point x="333" y="529" type="curve" smooth="yes"/>
      <point x="381" y="529"/>
      <point x="417" y="517"/>
      <point x="449" y="496" type="curve"/>
      <point x="462" y="440" type="line" smooth="yes"/>
      <point x="469" y="413"/>
      <point x="480" y="400"/>
      <point x="499" y="400" type="curve" smooth="yes"/>
      <point x="513" y="400"/>
      <point x="524" y="406"/>
      <point x="524" y="423" type="curve" smooth="yes"/>
      <point x="524" y="524" type="line"/>
      <point x="471" y="566"/>
      <point x="401" y="594"/>
      <point x="326" y="594" type="curve" smooth="yes"/>
      <point x="218" y="594"/>
      <point x="126" y="540"/>
      <point x="126" y="425" type="curve" smooth="yes"/>
      <point x="126" y="390"/>
      <point x="137" y="357"/>
      <point x="150" y="325" type="curve"/>
      <point x="118" y="325" type="line" smooth="yes"/>
      <point x="94" y="325"/>
      <point x="75" y="310"/>
      <point x="75" y="286" type="curve" smooth="yes"/>
      <point x="75" y="270"/>
      <point x="86" y="259"/>
      <point x="101" y="259" type="curve" smooth="yes"/>
      <point x="179" y="259" type="line"/>
      <point x="191" y="233"/>
      <point x="199" y="207"/>
      <point x="199" y="182" type="curve" smooth="yes"/>
      <point x="199" y="133"/>
      <point x="184" y="101"/>
      <point x="144" y="66" type="curve"/>
      <point x="95" y="66" type="line" smooth="yes"/>
      <point x="71" y="66"/>
      <point x="52" y="51"/>
      <point x="52" y="27" type="curve" smooth="yes"/>
      <point x="52" y="12"/>
      <point x="61" y="0"/>
      <point x="76" y="0" type="curve" smooth="yes"/>
    </contour>
  </outline>
</glyph>
<glyph name="currency" format="1">
  <advance width="594"/>
  <unicode hex="00A4"/>
  <note>
	currency
  </note>
  <outline>
    <contour>
      <point x="202" y="136" type="line"/>
      <point x="229" y="119"/>
      <point x="261" y="111"/>
      <point x="297" y="111" type="curve" smooth="yes"/>
      <point x="334" y="111"/>
      <point x="365" y="119"/>
      <point x="393" y="136" type="curve"/>
      <point x="450" y="66" type="line"/>
      <point x="520" y="117" type="line"/>
      <point x="455" y="189" type="line"/>
      <point x="484" y="225"/>
      <point x="501" y="268"/>
      <point x="501" y="319" type="curve" smooth="yes"/>
      <point x="501" y="370"/>
      <point x="484" y="414"/>
      <point x="455" y="450" type="curve"/>
      <point x="520" y="522" type="line"/>
      <point x="450" y="573" type="line"/>
      <point x="393" y="503" type="line"/>
      <point x="365" y="520"/>
      <point x="334" y="528"/>
      <point x="297" y="528" type="curve" smooth="yes"/>
      <point x="262" y="528"/>
      <point x="229" y="519"/>
      <point x="203" y="503" type="curve"/>
      <point x="145" y="574" type="line"/>
      <point x="75" y="522" type="line"/>
      <point x="139" y="450" type="line"/>
      <point x="107" y="412"/>
      <point x="93" y="371"/>
      <point x="93" y="319" type="curve" smooth="yes"/>
      <point x="93" y="269"/>
      <point x="111" y="225"/>
      <point x="139" y="190" type="curve"/>
      <point x="75" y="117" type="line"/>
      <point x="144" y="66" type="line"/>
    </contour>
    <contour>
      <point x="230" y="192"/>
      <point x="178" y="242"/>
      <point x="178" y="319" type="curve" smooth="yes"/>
      <point x="178" y="397"/>
      <point x="230" y="447"/>
      <point x="297" y="447" type="curve" smooth="yes"/>
      <point x="365" y="447"/>
      <point x="417" y="397"/>
      <point x="417" y="319" type="curve" smooth="yes"/>
      <point x="417" y="242"/>
      <point x="365" y="192"/>
      <point x="297" y="192" type="curve" smooth="yes"/>
    </contour>
  </outline>
</glyph>
<glyph name="yen" format="1">
  <advance width="644"/>
  <unicode hex="00A5"/>
  <note>
	yen
  </note>
  <outline>
    <contour>
      <point x="434" y="0" type="line" smooth="yes"/>
      <point x="445" y="0"/>
      <point x="448" y="6"/>
      <point x="448" y="15" type="curve" smooth="yes"/>
      <point x="448" y="29"/>
      <point x="439" y="38"/>
      <point x="416" y="45" type="curve" smooth="yes"/>
      <point x="369" y="59" type="line"/>
      <point x="369" y="192" type="line"/>
      <point x="561" y="192" type="line"/>
      <point x="561" y="255" type="line"/>
      <point x="369" y="255" type="line"/>
      <point x="369" y="304" type="line"/>
      <point x="399" y="349" type="line"/>
      <point x="560" y="349" type="line"/>
      <point x="560" y="412" type="line"/>
      <point x="441" y="412" type="line"/>
      <point x="588" y="630" type="line"/>
      <point x="637" y="645" type="line" smooth="yes"/>
      <point x="654" y="650"/>
      <point x="666" y="660"/>
      <point x="666" y="674" type="curve" smooth="yes"/>
      <point x="666" y="682"/>
      <point x="662" y="689"/>
      <point x="652" y="689" type="curve" smooth="yes"/>
      <point x="481" y="689" type="line" smooth="yes"/>
      <point x="454" y="689"/>
      <point x="436" y="677"/>
      <point x="436" y="655" type="curve" smooth="yes"/>
      <point x="436" y="640"/>
      <point x="444" y="630"/>
      <point x="457" y="630" type="curve" smooth="yes"/>
      <point x="509" y="630" type="line"/>
      <point x="336" y="371" type="line"/>
      <point x="172" y="630" type="line"/>
      <point x="223" y="641" type="line" smooth="yes"/>
      <point x="243" y="645"/>
      <point x="257" y="655"/>
      <point x="257" y="673" type="curve" smooth="yes"/>
      <point x="257" y="682"/>
      <point x="253" y="689"/>
      <point x="243" y="689" type="curve" smooth="yes"/>
      <point x="30" y="689" type="line" smooth="yes"/>
      <point x="3" y="689"/>
      <point x="-14" y="677"/>
      <point x="-14" y="655" type="curve" smooth="yes"/>
      <point x="-14" y="640"/>
      <point x="-7" y="630"/>
      <point x="6" y="630" type="curve" smooth="yes"/>
      <point x="52" y="630" type="line"/>
      <point x="191" y="412" type="line"/>
      <point x="79" y="412" type="line"/>
      <point x="79" y="349" type="line"/>
      <point x="231" y="349" type="line"/>
      <point x="270" y="288" type="line"/>
      <point x="270" y="255" type="line"/>
      <point x="79" y="255" type="line"/>
      <point x="79" y="192" type="line"/>
      <point x="270" y="192" type="line"/>
      <point x="270" y="59" type="line"/>
      <point x="245" y="59" type="line" smooth="yes"/>
      <point x="218" y="59"/>
      <point x="200" y="47"/>
      <point x="200" y="25" type="curve" smooth="yes"/>
      <point x="200" y="10"/>
      <point x="207" y="0"/>
      <point x="220" y="0" type="curve" smooth="yes"/>
    </contour>
  </outline>
</glyph>
<glyph name="brokenbar" format="1">
  <advance width="310"/>
  <unicode hex="00A6"/>
  <note>
	brokenbar
  </note>
  <outline>
    <contour>
      <point x="202" y="360" type="line"/>
      <point x="202" y="735" type="line"/>
      <point x="108" y="735" type="line"/>
      <point x="108" y="360" type="line"/>
    </contour>
    <contour>
      <point x="202" y="-170" type="line"/>
      <point x="202" y="205" type="line"/>
      <point x="108" y="205" type="line"/>
      <point x="108" y="-170" type="line"/>
    </contour>
  </outline>
</glyph>
<glyph name="section" format="1">
  <advance width="596"/>
  <unicode hex="00A7"/>
  <note>
	section
  </note>
  <outline>
    <contour>
      <point x="394" y="-111"/>
      <point x="493" y="-64"/>
      <point x="493" y="46" type="curve" smooth="yes"/>
      <point x="493" y="69"/>
      <point x="489" y="88"/>
      <point x="482" y="106" type="curve"/>
      <point x="509" y="131"/>
      <point x="526" y="166"/>
      <point x="526" y="211" type="curve" smooth="yes"/>
      <point x="526" y="309"/>
      <point x="458" y="352"/>
      <point x="357" y="396" type="curve" smooth="yes"/>
      <point x="252" y="442"/>
      <point x="192" y="466"/>
      <point x="192" y="526" type="curve" smooth="yes"/>
      <point x="192" y="586"/>
      <point x="245" y="610"/>
      <point x="309" y="610" type="curve" smooth="yes"/>
      <point x="361" y="610"/>
      <point x="406" y="598"/>
      <point x="435" y="576" type="curve"/>
      <point x="448" y="524" type="line" smooth="yes"/>
      <point x="456" y="491"/>
      <point x="465" y="482"/>
      <point x="480" y="482" type="curve" smooth="yes"/>
      <point x="490" y="482"/>
      <point x="494" y="489"/>
      <point x="494" y="497" type="curve" smooth="yes"/>
      <point x="494" y="606" type="line"/>
      <point x="449" y="643"/>
      <point x="375" y="667"/>
      <point x="303" y="667" type="curve" smooth="yes"/>
      <point x="203" y="667"/>
      <point x="104" y="622"/>
      <point x="104" y="516" type="curve" smooth="yes"/>
      <point x="104" y="494"/>
      <point x="109" y="474"/>
      <point x="118" y="457" type="curve"/>
      <point x="90" y="433"/>
      <point x="71" y="397"/>
      <point x="71" y="351" type="curve" smooth="yes"/>
      <point x="71" y="259"/>
      <point x="153" y="211"/>
      <point x="252" y="170" type="curve" smooth="yes"/>
      <point x="364" y="122"/>
      <point x="405" y="100"/>
      <point x="405" y="37" type="curve" smooth="yes"/>
      <point x="405" y="-32"/>
      <point x="336" y="-53"/>
      <point x="268" y="-53" type="curve" smooth="yes"/>
      <point x="221" y="-53"/>
      <point x="164" y="-42"/>
      <point x="132" y="-20" type="curve"/>
      <point x="119" y="37" type="line" smooth="yes"/>
      <point x="110" y="71"/>
      <point x="103" y="81"/>
      <point x="87" y="81" type="curve" smooth="yes"/>
      <point x="76" y="81"/>
      <point x="71" y="74"/>
      <point x="71" y="65" type="curve" smooth="yes"/>
      <point x="71" y="-56" type="line"/>
      <point x="120" y="-91"/>
      <point x="210" y="-111"/>
      <point x="275" y="-111" type="curve" smooth="yes"/>
    </contour>
    <contour>
      <point x="404" y="188"/>
      <point x="360" y="209"/>
      <point x="303" y="233" type="curve" smooth="yes"/>
      <point x="209" y="273"/>
      <point x="169" y="291"/>
      <point x="162" y="344" type="curve" smooth="yes"/>
      <point x="160" y="363"/>
      <point x="163" y="381"/>
      <point x="170" y="398" type="curve"/>
      <point x="200" y="375"/>
      <point x="257" y="350"/>
      <point x="301" y="331" type="curve" smooth="yes"/>
      <point x="406" y="287"/>
      <point x="439" y="270"/>
      <point x="443" y="214" type="curve"/>
      <point x="443" y="197"/>
      <point x="441" y="171"/>
      <point x="435" y="157" type="curve"/>
    </contour>
  </outline>
</glyph>
<glyph name="dieresis" format="1">
  <advance width="407"/>
  <unicode hex="00A8"/>
  <note>
	dieresis
  </note>
  <outline>
    <contour>
      <point x="332" y="550"/>
      <point x="358" y="573"/>
      <point x="358" y="605" type="curve" smooth="yes"/>
      <point x="358" y="637"/>
      <point x="332" y="660"/>
      <point x="303" y="660" type="curve" smooth="yes"/>
      <point x="273" y="660"/>
      <point x="248" y="637"/>
      <point x="248" y="605" type="curve" smooth="yes"/>
      <point x="248" y="573"/>
      <point x="273" y="550"/>
      <point x="303" y="550" type="curve" smooth="yes"/>
    </contour>
    <contour>
      <point x="135" y="550"/>
      <point x="161" y="573"/>
      <point x="161" y="605" type="curve" smooth="yes"/>
      <point x="161" y="637"/>
      <point x="135" y="660"/>
      <point x="106" y="660" type="curve" smooth="yes"/>
      <point x="76" y="660"/>
      <point x="51" y="637"/>
      <point x="51" y="605" type="curve" smooth="yes"/>
      <point x="51" y="573"/>
      <point x="76" y="550"/>
      <point x="106" y="550" type="curve" smooth="yes"/>
    </contour>
  </outline>
</glyph>
<glyph name="copyright" format="1">
  <advance width="794"/>
  <unicode hex="00A9"/>
  <note>
	copyright
  </note>
  <outline>
    <contour>
      <point x="608" y="-13"/>
      <point x="751" y="129"/>
      <point x="751" y="338" type="curve" smooth="yes"/>
      <point x="751" y="545"/>
      <point x="608" y="687"/>
      <point x="397" y="687" type="curve" smooth="yes"/>
      <point x="188" y="687"/>
      <point x="43" y="545"/>
      <point x="43" y="338" type="curve" smooth="yes"/>
      <point x="43" y="129"/>
      <point x="188" y="-13"/>
      <point x="397" y="-13" type="curve" smooth="yes"/>
    </contour>
    <contour>
      <point x="453" y="136"/>
      <point x="489" y="145"/>
      <point x="518" y="164" type="curve" smooth="yes"/>
      <point x="534" y="175"/>
      <point x="547" y="186"/>
      <point x="547" y="200" type="curve" smooth="yes"/>
      <point x="547" y="214"/>
      <point x="538" y="223"/>
      <point x="528" y="223" type="curve" smooth="yes"/>
      <point x="522" y="223"/>
      <point x="518" y="221"/>
      <point x="510" y="215" type="curve" smooth="yes"/>
      <point x="485" y="197"/>
      <point x="455" y="186"/>
      <point x="418" y="186" type="curve" smooth="yes"/>
      <point x="345" y="186"/>
      <point x="293" y="235"/>
      <point x="293" y="337" type="curve" smooth="yes"/>
      <point x="293" y="439"/>
      <point x="344" y="487"/>
      <point x="413" y="487" type="curve" smooth="yes"/>
      <point x="444" y="487"/>
      <point x="477" y="478"/>
      <point x="494" y="463" type="curve"/>
      <point x="503" y="426" type="line" smooth="yes"/>
      <point x="508" y="408"/>
      <point x="515" y="399"/>
      <point x="529" y="399" type="curve" smooth="yes"/>
      <point x="538" y="399"/>
      <point x="543" y="405"/>
      <point x="543" y="413" type="curve" smooth="yes"/>
      <point x="543" y="489" type="line"/>
      <point x="517" y="512"/>
      <point x="463" y="537"/>
      <point x="405" y="537" type="curve" smooth="yes"/>
      <point x="299" y="537"/>
      <point x="216" y="466"/>
      <point x="216" y="338" type="curve" smooth="yes"/>
      <point x="216" y="212"/>
      <point x="296" y="136"/>
      <point x="413" y="136" type="curve" smooth="yes"/>
    </contour>
    <contour>
      <point x="220" y="37"/>
      <point x="101" y="161"/>
      <point x="101" y="338" type="curve" smooth="yes"/>
      <point x="101" y="513"/>
      <point x="220" y="637"/>
      <point x="396" y="637" type="curve" smooth="yes"/>
      <point x="572" y="637"/>
      <point x="692" y="513"/>
      <point x="692" y="338" type="curve" smooth="yes"/>
      <point x="692" y="161"/>
      <point x="572" y="37"/>
      <point x="396" y="37" type="curve" smooth="yes"/>
    </contour>
  </outline>
</glyph>
<glyph name="ordfeminine" format="1">
  <advance width="400"/>
  <unicode hex="00AA"/>
  <note>
	ordfeminine
  </note>
  <outline>
    <contour>
      <point x="198" y="317"/>
      <point x="234" y="338"/>
      <point x="255" y="366" type="curve"/>
      <point x="259" y="366" type="line"/>
      <point x="259" y="325" type="line"/>
      <point x="356" y="325" type="line" smooth="yes"/>
      <point x="364" y="325"/>
      <point x="366" y="329"/>
      <point x="366" y="336" type="curve" smooth="yes"/>
      <point x="366" y="346"/>
      <point x="359" y="352"/>
      <point x="344" y="357" type="curve" smooth="yes"/>
      <point x="320" y="365" type="line"/>
      <point x="320" y="540" type="line" smooth="yes"/>
      <point x="320" y="608"/>
      <point x="272" y="643"/>
      <point x="201" y="643" type="curve" smooth="yes"/>
      <point x="157" y="643"/>
      <point x="106" y="627"/>
      <point x="73" y="607" type="curve"/>
      <point x="73" y="542" type="line" smooth="yes"/>
      <point x="73" y="534"/>
      <point x="77" y="529"/>
      <point x="87" y="529" type="curve" smooth="yes"/>
      <point x="98" y="529"/>
      <point x="106" y="537"/>
      <point x="109" y="552" type="curve" smooth="yes"/>
      <point x="114" y="580" type="line"/>
      <point x="132" y="590"/>
      <point x="166" y="601"/>
      <point x="192" y="601" type="curve" smooth="yes"/>
      <point x="235" y="601"/>
      <point x="257" y="580"/>
      <point x="257" y="542" type="curve" smooth="yes"/>
      <point x="257" y="518" type="line"/>
      <point x="175" y="506" type="line" smooth="yes"/>
      <point x="112" y="496"/>
      <point x="53" y="473"/>
      <point x="53" y="405" type="curve" smooth="yes"/>
      <point x="53" y="344"/>
      <point x="102" y="317"/>
      <point x="153" y="317" type="curve" smooth="yes"/>
    </contour>
    <contour>
      <point x="136" y="361"/>
      <point x="116" y="379"/>
      <point x="116" y="407" type="curve" smooth="yes"/>
      <point x="116" y="442"/>
      <point x="143" y="458"/>
      <point x="183" y="465" type="curve" smooth="yes"/>
      <point x="257" y="477" type="line"/>
      <point x="257" y="439" type="line" smooth="yes"/>
      <point x="257" y="396"/>
      <point x="214" y="361"/>
      <point x="171" y="361" type="curve" smooth="yes"/>
    </contour>
  </outline>
</glyph>
<glyph name="logicalnot" format="1">
  <advance width="644"/>
  <unicode hex="00AC"/>
  <note>
	logicalnot
  </note>
  <outline>
    <contour>
      <point x="561" y="141" type="line"/>
      <point x="561" y="379" type="line"/>
      <point x="74" y="379" type="line"/>
      <point x="74" y="300" type="line"/>
      <point x="468" y="300" type="line"/>
      <point x="468" y="141" type="line"/>
    </contour>
  </outline>
</glyph>
<glyph name="softhyphen" format="1">
  <advance width="299"/>
  <unicode hex="00AD"/>
  <note>
	softhyphen
  </note>
  <outline>
    <contour>
      <point x="255" y="273" type="line"/>
      <point x="255" y="352" type="line"/>
      <point x="45" y="352" type="line"/>
      <point x="45" y="273" type="line"/>
    </contour>
  </outline>
</glyph>
<glyph name="registered" format="1">
  <advance width="471"/>
  <unicode hex="00AE"/>
  <note>
	registered
  </note>
  <outline>
    <contour>
      <point x="360" y="334"/>
      <point x="455" y="422"/>
      <point x="455" y="550" type="curve" smooth="yes"/>
      <point x="455" y="678"/>
      <point x="360" y="766"/>
      <point x="235" y="766" type="curve" smooth="yes"/>
      <point x="112" y="766"/>
      <point x="17" y="678"/>
      <point x="17" y="550" type="curve" smooth="yes"/>
      <point x="17" y="422"/>
      <point x="112" y="334"/>
      <point x="235" y="334" type="curve" smooth="yes"/>
    </contour>
    <contour>
      <point x="139" y="375"/>
      <point x="64" y="439"/>
      <point x="64" y="550" type="curve" smooth="yes"/>
      <point x="64" y="661"/>
      <point x="139" y="725"/>
      <point x="235" y="725" type="curve" smooth="yes"/>
      <point x="332" y="725"/>
      <point x="407" y="661"/>
      <point x="407" y="550" type="curve" smooth="yes"/>
      <point x="407" y="439"/>
      <point x="332" y="375"/>
      <point x="235" y="375" type="curve" smooth="yes"/>
    </contour>
    <contour>
      <point x="227" y="445" type="line" smooth="yes"/>
      <point x="233" y="445"/>
      <point x="236" y="447"/>
      <point x="236" y="452" type="curve" smooth="yes"/>
      <point x="236" y="459"/>
      <point x="230" y="462"/>
      <point x="219" y="466" type="curve" smooth="yes"/>
      <point x="206" y="471" type="line"/>
      <point x="206" y="531" type="line"/>
      <point x="280" y="445" type="line"/>
      <point x="338" y="445" type="line" smooth="yes"/>
      <point x="342" y="445"/>
      <point x="345" y="448"/>
      <point x="345" y="453" type="curve" smooth="yes"/>
      <point x="345" y="460"/>
      <point x="342" y="463"/>
      <point x="329" y="467" type="curve" smooth="yes"/>
      <point x="313" y="472" type="line"/>
      <point x="249" y="537" type="line"/>
      <point x="261" y="537" type="line" smooth="yes"/>
      <point x="298" y="537"/>
      <point x="320" y="560"/>
      <point x="320" y="597" type="curve" smooth="yes"/>
      <point x="320" y="635"/>
      <point x="292" y="660"/>
      <point x="246" y="660" type="curve" smooth="yes"/>
      <point x="145" y="660" type="line" smooth="yes"/>
      <point x="139" y="660"/>
      <point x="135" y="656"/>
      <point x="135" y="650" type="curve" smooth="yes"/>
      <point x="135" y="643"/>
      <point x="141" y="641"/>
      <point x="151" y="636" type="curve" smooth="yes"/>
      <point x="163" y="630" type="line"/>
      <point x="163" y="472" type="line"/>
      <point x="156" y="472" type="line" smooth="yes"/>
      <point x="143" y="472"/>
      <point x="136" y="466"/>
      <point x="136" y="456" type="curve" smooth="yes"/>
      <point x="136" y="449"/>
      <point x="141" y="445"/>
      <point x="147" y="445" type="curve" smooth="yes"/>
    </contour>
    <contour>
      <point x="207" y="629" type="line"/>
      <point x="243" y="629" type="line" smooth="yes"/>
      <point x="266" y="629"/>
      <point x="278" y="618"/>
      <point x="278" y="597" type="curve" smooth="yes"/>
      <point x="278" y="576"/>
      <point x="266" y="565"/>
      <point x="243" y="565" type="curve" smooth="yes"/>
      <point x="207" y="565" type="line"/>
    </contour>
  </outline>
</glyph>
<glyph name="macron" format="1">
  <advance width="379"/>
  <unicode hex="00AF"/>
  <note>
	macron
  </note>
  <outline>
    <contour>
      <point x="333" y="566" type="line"/>
      <point x="333" y="632" type="line"/>
      <point x="46" y="632" type="line"/>
      <point x="46" y="566" type="line"/>
    </contour>
  </outline>
</glyph>
<glyph name="degree" format="1">
  <advance width="357"/>
  <unicode hex="00B0"/>
  <note>
	degree
  </note>
  <outline>
    <contour>
      <point x="253" y="548"/>
      <point x="311" y="595"/>
      <point x="311" y="672" type="curve" smooth="yes"/>
      <point x="311" y="749"/>
      <point x="253" y="796"/>
      <point x="178" y="796" type="curve" smooth="yes"/>
      <point x="103" y="796"/>
      <point x="45" y="749"/>
      <point x="45" y="672" type="curve" smooth="yes"/>
      <point x="45" y="595"/>
      <point x="103" y="548"/>
      <point x="178" y="548" type="curve" smooth="yes"/>
    </contour>
    <contour>
      <point x="140" y="599"/>
      <point x="109" y="624"/>
      <point x="109" y="672" type="curve" smooth="yes"/>
      <point x="109" y="720"/>
      <point x="140" y="745"/>
      <point x="178" y="745" type="curve" smooth="yes"/>
      <point x="215" y="745"/>
      <point x="246" y="720"/>
      <point x="246" y="672" type="curve" smooth="yes"/>
      <point x="246" y="624"/>
      <point x="215" y="599"/>
      <point x="178" y="599" type="curve" smooth="yes"/>
    </contour>
  </outline>
</glyph>
<glyph name="plusminus" format="1">
  <advance width="559"/>
  <unicode hex="00B1"/>
  <note>
	plusminus
  </note>
  <outline>
    <contour>
      <point x="327" y="180" type="line"/>
      <point x="327" y="356" type="line"/>
      <point x="502" y="356" type="line"/>
      <point x="502" y="421" type="line"/>
      <point x="327" y="421" type="line"/>
      <point x="327" y="600" type="line"/>
      <point x="232" y="600" type="line"/>
      <point x="232" y="421" type="line"/>
      <point x="57" y="421" type="line"/>
      <point x="57" y="356" type="line"/>
      <point x="232" y="356" type="line"/>
      <point x="232" y="180" type="line"/>
    </contour>
    <contour>
      <point x="502" y="0" type="line"/>
      <point x="502" y="65" type="line"/>
      <point x="57" y="65" type="line"/>
      <point x="57" y="0" type="line"/>
    </contour>
  </outline>
</glyph>
<glyph name="twosuperior" format="1">
  <advance width="319"/>
  <unicode hex="00B2"/>
  <note>
	twosuperior
  </note>
  <outline>
    <contour>
      <point x="289" y="390" type="line"/>
      <point x="289" y="435" type="line"/>
      <point x="112" y="435" type="line"/>
      <point x="208" y="534" type="line" smooth="yes"/>
      <point x="256" y="584"/>
      <point x="283" y="625"/>
      <point x="283" y="665" type="curve" smooth="yes"/>
      <point x="283" y="734"/>
      <point x="236" y="769"/>
      <point x="167" y="769" type="curve" smooth="yes"/>
      <point x="125" y="769"/>
      <point x="81" y="754"/>
      <point x="42" y="731" type="curve"/>
      <point x="42" y="660" type="line" smooth="yes"/>
      <point x="42" y="651"/>
      <point x="47" y="645"/>
      <point x="56" y="645" type="curve" smooth="yes"/>
      <point x="69" y="645"/>
      <point x="75" y="652"/>
      <point x="81" y="675" type="curve" smooth="yes"/>
      <point x="89" y="706" type="line"/>
      <point x="109" y="717"/>
      <point x="134" y="724"/>
      <point x="157" y="724" type="curve" smooth="yes"/>
      <point x="191" y="724"/>
      <point x="218" y="707"/>
      <point x="218" y="669" type="curve" smooth="yes"/>
      <point x="218" y="640"/>
      <point x="196" y="607"/>
      <point x="156" y="566" type="curve" smooth="yes"/>
      <point x="32" y="440" type="line"/>
      <point x="32" y="390" type="line"/>
    </contour>
  </outline>
</glyph>
<glyph name="threesuperior" format="1">
  <advance width="320"/>
  <unicode hex="00B3"/>
  <note>
	threesuperior
  </note>
  <outline>
    <contour>
      <point x="221" y="382"/>
      <point x="284" y="417"/>
      <point x="284" y="489" type="curve" smooth="yes"/>
      <point x="284" y="539"/>
      <point x="251" y="574"/>
      <point x="198" y="584" type="curve"/>
      <point x="243" y="599"/>
      <point x="271" y="631"/>
      <point x="271" y="676" type="curve" smooth="yes"/>
      <point x="271" y="742"/>
      <point x="214" y="769"/>
      <point x="154" y="769" type="curve" smooth="yes"/>
      <point x="109" y="769"/>
      <point x="63" y="753"/>
      <point x="27" y="731" type="curve"/>
      <point x="27" y="655" type="line" smooth="yes"/>
      <point x="27" y="648"/>
      <point x="31" y="643"/>
      <point x="39" y="643" type="curve" smooth="yes"/>
      <point x="50" y="643"/>
      <point x="56" y="650"/>
      <point x="62" y="672" type="curve" smooth="yes"/>
      <point x="70" y="704" type="line"/>
      <point x="90" y="716"/>
      <point x="115" y="724"/>
      <point x="142" y="724" type="curve" smooth="yes"/>
      <point x="182" y="724"/>
      <point x="207" y="708"/>
      <point x="207" y="668" type="curve" smooth="yes"/>
      <point x="207" y="626"/>
      <point x="175" y="605"/>
      <point x="128" y="599" type="curve" smooth="yes"/>
      <point x="86" y="594" type="line"/>
      <point x="86" y="554" type="line"/>
      <point x="119" y="559"/>
      <point x="133" y="561"/>
      <point x="146" y="561" type="curve" smooth="yes"/>
      <point x="191" y="561"/>
      <point x="220" y="533"/>
      <point x="220" y="495" type="curve" smooth="yes"/>
      <point x="220" y="451"/>
      <point x="193" y="427"/>
      <point x="135" y="427" type="curve" smooth="yes"/>
      <point x="99" y="427"/>
      <point x="55" y="437"/>
      <point x="22" y="451" type="curve"/>
      <point x="22" y="405" type="line"/>
      <point x="49" y="393"/>
      <point x="95" y="382"/>
      <point x="139" y="382" type="curve" smooth="yes"/>
    </contour>
  </outline>
</glyph>
<glyph name="acute" format="1">
  <advance width="305"/>
  <unicode hex="00B4"/>
  <note>
	acute
  </note>
  <outline>
    <contour>
      <point x="240" y="683" type="line"/>
      <point x="167" y="730" type="line"/>
      <point x="73" y="573" type="line"/>
      <point x="128" y="537" type="line"/>
    </contour>
  </outline>
</glyph>
<glyph name="mu" format="1">
  <advance width="622"/>
  <unicode hex="00B5"/>
  <note>
	mu
  </note>
  <outline>
    <contour>
      <point x="186" y="-240" type="line"/>
      <point x="177" y="27" type="line"/>
      <point x="204" y="1"/>
      <point x="241" y="-13"/>
      <point x="279" y="-13" type="curve" smooth="yes"/>
      <point x="344" y="-13"/>
      <point x="394" y="22"/>
      <point x="431" y="64" type="curve"/>
      <point x="435" y="64" type="line"/>
      <point x="435" y="49" type="line" smooth="yes"/>
      <point x="435" y="4"/>
      <point x="468" y="-13"/>
      <point x="506" y="-13" type="curve" smooth="yes"/>
      <point x="541" y="-13"/>
      <point x="581" y="2"/>
      <point x="600" y="14" type="curve"/>
      <point x="600" y="65" type="line"/>
      <point x="583" y="55"/>
      <point x="564" y="47"/>
      <point x="545" y="47" type="curve" smooth="yes"/>
      <point x="527" y="47"/>
      <point x="514" y="54"/>
      <point x="514" y="80" type="curve" smooth="yes"/>
      <point x="514" y="490" type="line"/>
      <point x="421" y="490" type="line"/>
      <point x="421" y="125" type="line"/>
      <point x="379" y="78"/>
      <point x="333" y="50"/>
      <point x="279" y="50" type="curve" smooth="yes"/>
      <point x="214" y="50"/>
      <point x="180" y="90"/>
      <point x="180" y="146" type="curve" smooth="yes"/>
      <point x="180" y="490" type="line"/>
      <point x="86" y="490" type="line"/>
      <point x="86" y="48" type="line"/>
      <point x="77" y="-240" type="line"/>
    </contour>
  </outline>
</glyph>
<glyph name="paragraph" format="1">
  <advance width="705"/>
  <unicode hex="00B6"/>
  <note>
	paragraph
  </note>
  <outline>
    <contour>
      <point x="581" y="-160" type="line" smooth="yes"/>
      <point x="592" y="-160"/>
      <point x="596" y="-152"/>
      <point x="596" y="-144" type="curve" smooth="yes"/>
      <point x="596" y="-128"/>
      <point x="583" y="-118"/>
      <point x="551" y="-116" type="curve" smooth="yes"/>
      <point x="384" y="-104" type="line"/>
      <point x="384" y="638" type="line"/>
      <point x="456" y="638" type="line"/>
      <point x="456" y="-44" type="line"/>
      <point x="524" y="-44" type="line"/>
      <point x="524" y="637" type="line"/>
      <point x="563" y="651" type="line" smooth="yes"/>
      <point x="585" y="659"/>
      <point x="593" y="669"/>
      <point x="593" y="681" type="curve" smooth="yes"/>
      <point x="593" y="689"/>
      <point x="591" y="695"/>
      <point x="580" y="695" type="curve" smooth="yes"/>
      <point x="291" y="695" type="line" smooth="yes"/>
      <point x="174" y="695"/>
      <point x="90" y="642"/>
      <point x="90" y="527" type="curve" smooth="yes"/>
      <point x="90" y="425"/>
      <point x="164" y="358"/>
      <point x="265" y="358" type="curve" smooth="yes"/>
      <point x="316" y="358" type="line"/>
      <point x="316" y="-103" type="line"/>
      <point x="276" y="-103" type="line" smooth="yes"/>
      <point x="250" y="-103"/>
      <point x="233" y="-114"/>
      <point x="233" y="-136" type="curve" smooth="yes"/>
      <point x="233" y="-151"/>
      <point x="240" y="-160"/>
      <point x="252" y="-160" type="curve" smooth="yes"/>
    </contour>
  </outline>
</glyph>
<glyph name="periodcentered" format="1">
  <advance width="292"/>
  <unicode hex="00B7"/>
  <note>
	periodcentered
  </note>
  <outline>
    <contour>
      <point x="182" y="263"/>
      <point x="211" y="290"/>
      <point x="211" y="328" type="curve" smooth="yes"/>
      <point x="211" y="366"/>
      <point x="182" y="393"/>
      <point x="147" y="393" type="curve" smooth="yes"/>
      <point x="111" y="393"/>
      <point x="82" y="366"/>
      <point x="82" y="328" type="curve" smooth="yes"/>
      <point x="82" y="290"/>
      <point x="111" y="263"/>
      <point x="147" y="263" type="curve" smooth="yes"/>
    </contour>
  </outline>
</glyph>
<glyph name="cedilla" format="1">
  <advance width="388"/>
  <unicode hex="00B8"/>
  <note>
	cedilla
  </note>
  <outline>
    <contour>
      <point x="200" y="-198"/>
      <point x="259" y="-160"/>
      <point x="259" y="-112" type="curve" smooth="yes"/>
      <point x="259" y="-77"/>
      <point x="237" y="-57"/>
      <point x="210" y="-46" type="curve"/>
      <point x="231" y="0" type="line"/>
      <point x="167" y="0" type="line"/>
      <point x="146" y="-58" type="line"/>
      <point x="178" y="-68"/>
      <point x="191" y="-85"/>
      <point x="191" y="-110" type="curve" smooth="yes"/>
      <point x="191" y="-138"/>
      <point x="170" y="-162"/>
      <point x="123" y="-177" type="curve"/>
      <point x="137" y="-212" type="line"/>
    </contour>
  </outline>
</glyph>
<glyph name="onesuperior" format="1">
  <advance width="240"/>
  <unicode hex="00B9"/>
  <note>
	onesuperior
  </note>
  <outline>
    <contour>
      <point x="199" y="390" type="line" smooth="yes"/>
      <point x="208" y="390"/>
      <point x="210" y="395"/>
      <point x="210" y="403" type="curve" smooth="yes"/>
      <point x="210" y="414"/>
      <point x="204" y="420"/>
      <point x="185" y="424" type="curve" smooth="yes"/>
      <point x="153" y="430" type="line"/>
      <point x="153" y="761" type="line"/>
      <point x="87" y="761" type="line"/>
      <point x="20" y="737" type="line"/>
      <point x="20" y="700" type="line"/>
      <point x="82" y="719" type="line"/>
      <point x="82" y="431" type="line"/>
      <point x="48" y="431" type="line" smooth="yes"/>
      <point x="30" y="431"/>
      <point x="19" y="423"/>
      <point x="19" y="408" type="curve" smooth="yes"/>
      <point x="19" y="397"/>
      <point x="25" y="390"/>
      <point x="34" y="390" type="curve" smooth="yes"/>
    </contour>
  </outline>
</glyph>
<glyph name="ordmasculine" format="1">
  <advance width="397"/>
  <unicode hex="00BA"/>
  <note>
	ordmasculine
  </note>
  <outline>
    <contour>
      <point x="286" y="317"/>
      <point x="350" y="375"/>
      <point x="350" y="480" type="curve" smooth="yes"/>
      <point x="350" y="585"/>
      <point x="286" y="643"/>
      <point x="199" y="643" type="curve" smooth="yes"/>
      <point x="111" y="643"/>
      <point x="47" y="585"/>
      <point x="47" y="480" type="curve" smooth="yes"/>
      <point x="47" y="375"/>
      <point x="111" y="317"/>
      <point x="199" y="317" type="curve" smooth="yes"/>
    </contour>
    <contour>
      <point x="142" y="360"/>
      <point x="111" y="404"/>
      <point x="111" y="480" type="curve" smooth="yes"/>
      <point x="111" y="557"/>
      <point x="142" y="601"/>
      <point x="199" y="601" type="curve" smooth="yes"/>
      <point x="255" y="601"/>
      <point x="286" y="557"/>
      <point x="286" y="480" type="curve" smooth="yes"/>
      <point x="286" y="404"/>
      <point x="255" y="360"/>
      <point x="199" y="360" type="curve" smooth="yes"/>
    </contour>
  </outline>
</glyph>
<glyph name="guillemotright" format="1">
  <advance width="545"/>
  <unicode hex="00BB"/>
  <note>
	guillemotright
  </note>
  <outline>
    <contour>
      <point x="480" y="224" type="line"/>
      <point x="480" y="250" type="line"/>
      <point x="338" y="429" type="line"/>
      <point x="281" y="384" type="line"/>
      <point x="384" y="237" type="line"/>
      <point x="281" y="90" type="line"/>
      <point x="338" y="45" type="line"/>
    </contour>
    <contour>
      <point x="274" y="224" type="line"/>
      <point x="274" y="250" type="line"/>
      <point x="132" y="429" type="line"/>
      <point x="75" y="384" type="line"/>
      <point x="178" y="237" type="line"/>
      <point x="75" y="90" type="line"/>
      <point x="132" y="45" type="line"/>
    </contour>
  </outline>
</glyph>
<glyph name="onequarter" format="1">
  <advance width="807"/>
  <unicode hex="00BC"/>
  <note>
	onequarter
  </note>
  <outline>
    <contour>
      <point x="669" y="656" type="line"/>
      <point x="609" y="695" type="line"/>
      <point x="143" y="20" type="line"/>
      <point x="202" y="-19" type="line"/>
    </contour>
    <contour>
      <point x="215" y="307" type="line" smooth="yes"/>
      <point x="224" y="307"/>
      <point x="226" y="312"/>
      <point x="226" y="320" type="curve" smooth="yes"/>
      <point x="226" y="331"/>
      <point x="220" y="337"/>
      <point x="201" y="341" type="curve" smooth="yes"/>
      <point x="169" y="347" type="line"/>
      <point x="169" y="678" type="line"/>
      <point x="103" y="678" type="line"/>
      <point x="36" y="654" type="line"/>
      <point x="36" y="617" type="line"/>
      <point x="98" y="636" type="line"/>
      <point x="98" y="348" type="line"/>
      <point x="64" y="348" type="line" smooth="yes"/>
      <point x="46" y="348"/>
      <point x="35" y="340"/>
      <point x="35" y="325" type="curve" smooth="yes"/>
      <point x="35" y="313"/>
      <point x="41" y="307"/>
      <point x="50" y="307" type="curve" smooth="yes"/>
    </contour>
    <contour>
      <point x="663" y="303" type="line"/>
      <point x="663" y="126" type="line"/>
      <point x="536" y="126" type="line"/>
    </contour>
    <contour>
      <point x="733" y="0" type="line"/>
      <point x="733" y="81" type="line"/>
      <point x="782" y="81" type="line"/>
      <point x="782" y="126" type="line"/>
      <point x="733" y="126" type="line"/>
      <point x="733" y="371" type="line"/>
      <point x="660" y="371" type="line"/>
      <point x="485" y="125" type="line"/>
      <point x="485" y="81" type="line"/>
      <point x="669" y="81" type="line"/>
      <point x="669" y="0" type="line"/>
    </contour>
  </outline>
</glyph>
<glyph name="onehalf" format="1">
  <advance width="845"/>
  <unicode hex="00BD"/>
  <note>
	onehalf
  </note>
  <outline>
    <contour>
      <point x="669" y="656" type="line"/>
      <point x="609" y="695" type="line"/>
      <point x="143" y="20" type="line"/>
      <point x="202" y="-19" type="line"/>
    </contour>
    <contour>
      <point x="215" y="307" type="line" smooth="yes"/>
      <point x="224" y="307"/>
      <point x="226" y="312"/>
      <point x="226" y="320" type="curve" smooth="yes"/>
      <point x="226" y="331"/>
      <point x="220" y="337"/>
      <point x="201" y="341" type="curve" smooth="yes"/>
      <point x="169" y="347" type="line"/>
      <point x="169" y="678" type="line"/>
      <point x="103" y="678" type="line"/>
      <point x="36" y="654" type="line"/>
      <point x="36" y="617" type="line"/>
      <point x="98" y="636" type="line"/>
      <point x="98" y="348" type="line"/>
      <point x="64" y="348" type="line" smooth="yes"/>
      <point x="46" y="348"/>
      <point x="35" y="340"/>
      <point x="35" y="325" type="curve" smooth="yes"/>
      <point x="35" y="313"/>
      <point x="41" y="307"/>
      <point x="50" y="307" type="curve" smooth="yes"/>
    </contour>
    <contour>
      <point x="815" y="0" type="line"/>
      <point x="815" y="45" type="line"/>
      <point x="638" y="45" type="line"/>
      <point x="731" y="141" type="line" smooth="yes"/>
      <point x="781" y="193"/>
      <point x="809" y="231"/>
      <point x="809" y="275" type="curve" smooth="yes"/>
      <point x="809" y="344"/>
      <point x="762" y="379"/>
      <point x="693" y="379" type="curve" smooth="yes"/>
      <point x="651" y="379"/>
      <point x="607" y="364"/>
      <point x="568" y="340" type="curve"/>
      <point x="568" y="270" type="line" smooth="yes"/>
      <point x="568" y="261"/>
      <point x="573" y="255"/>
      <point x="582" y="255" type="curve" smooth="yes"/>
      <point x="595" y="255"/>
      <point x="601" y="261"/>
      <point x="607" y="285" type="curve" smooth="yes"/>
      <point x="615" y="316" type="line"/>
      <point x="635" y="326"/>
      <point x="660" y="334"/>
      <point x="683" y="334" type="curve" smooth="yes"/>
      <point x="717" y="334"/>
      <point x="744" y="317"/>
      <point x="744" y="279" type="curve" smooth="yes"/>
      <point x="744" y="247"/>
      <point x="722" y="216"/>
      <point x="681" y="175" type="curve" smooth="yes"/>
      <point x="558" y="49" type="line"/>
      <point x="558" y="0" type="line"/>
    </contour>
  </outline>
</glyph>
<glyph name="threequarters" format="1">
  <advance width="811"/>
  <unicode hex="00BE"/>
  <note>
	threequarters
  </note>
  <outline>
    <contour>
      <point x="673" y="656" type="line"/>
      <point x="613" y="695" type="line"/>
      <point x="147" y="20" type="line"/>
      <point x="206" y="-19" type="line"/>
    </contour>
    <contour>
      <point x="223" y="299"/>
      <point x="286" y="333"/>
      <point x="286" y="405" type="curve" smooth="yes"/>
      <point x="286" y="455"/>
      <point x="253" y="490"/>
      <point x="200" y="501" type="curve"/>
      <point x="245" y="516"/>
      <point x="273" y="548"/>
      <point x="273" y="593" type="curve" smooth="yes"/>
      <point x="273" y="658"/>
      <point x="216" y="685"/>
      <point x="156" y="685" type="curve" smooth="yes"/>
      <point x="111" y="685"/>
      <point x="65" y="669"/>
      <point x="29" y="647" type="curve"/>
      <point x="29" y="571" type="line" smooth="yes"/>
      <point x="29" y="564"/>
      <point x="33" y="559"/>
      <point x="41" y="559" type="curve" smooth="yes"/>
      <point x="52" y="559"/>
      <point x="59" y="565"/>
      <point x="64" y="588" type="curve" smooth="yes"/>
      <point x="72" y="621" type="line"/>
      <point x="92" y="632"/>
      <point x="117" y="640"/>
      <point x="144" y="640" type="curve" smooth="yes"/>
      <point x="184" y="640"/>
      <point x="209" y="624"/>
      <point x="209" y="584" type="curve" smooth="yes"/>
      <point x="209" y="542"/>
      <point x="177" y="521"/>
      <point x="130" y="516" type="curve" smooth="yes"/>
      <point x="88" y="511" type="line"/>
      <point x="88" y="470" type="line"/>
      <point x="126" y="475"/>
      <point x="135" y="477"/>
      <point x="148" y="477" type="curve" smooth="yes"/>
      <point x="193" y="477"/>
      <point x="222" y="449"/>
      <point x="222" y="411" type="curve" smooth="yes"/>
      <point x="222" y="367"/>
      <point x="195" y="344"/>
      <point x="137" y="344" type="curve" smooth="yes"/>
      <point x="101" y="344"/>
      <point x="57" y="354"/>
      <point x="24" y="367" type="curve"/>
      <point x="24" y="321" type="line"/>
      <point x="51" y="309"/>
      <point x="97" y="299"/>
      <point x="141" y="299" type="curve" smooth="yes"/>
    </contour>
    <contour>
      <point x="668" y="303" type="line"/>
      <point x="668" y="126" type="line"/>
      <point x="541" y="126" type="line"/>
    </contour>
    <contour>
      <point x="738" y="0" type="line"/>
      <point x="738" y="81" type="line"/>
      <point x="787" y="81" type="line"/>
      <point x="787" y="126" type="line"/>
      <point x="738" y="126" type="line"/>
      <point x="738" y="371" type="line"/>
      <point x="665" y="371" type="line"/>
      <point x="490" y="125" type="line"/>
      <point x="490" y="81" type="line"/>
      <point x="674" y="81" type="line"/>
      <point x="674" y="0" type="line"/>
    </contour>
  </outline>
</glyph>
<glyph name="questiondown" format="1">
  <advance width="478"/>
  <unicode hex="00BF"/>
  <note>
	questiondown
  </note>
  <outline>
    <contour>
      <point x="299" y="-234"/>
      <point x="367" y="-204"/>
      <point x="403" y="-174" type="curve"/>
      <point x="403" y="-79" type="line" smooth="yes"/>
      <point x="403" y="-71"/>
      <point x="397" y="-64"/>
      <point x="385" y="-64" type="curve" smooth="yes"/>
      <point x="368" y="-64"/>
      <point x="359" y="-75"/>
      <point x="354" y="-96" type="curve" smooth="yes"/>
      <point x="344" y="-143" type="line"/>
      <point x="317" y="-162"/>
      <point x="276" y="-174"/>
      <point x="237" y="-174" type="curve" smooth="yes"/>
      <point x="176" y="-174"/>
      <point x="139" y="-138"/>
      <point x="139" y="-83" type="curve" smooth="yes"/>
      <point x="139" y="-26"/>
      <point x="169" y="10"/>
      <point x="204" y="45" type="curve" smooth="yes"/>
      <point x="253" y="94"/>
      <point x="284" y="131"/>
      <point x="284" y="208" type="curve" smooth="yes"/>
      <point x="284" y="320" type="line"/>
      <point x="202" y="320" type="line"/>
      <point x="202" y="225" type="line" smooth="yes"/>
      <point x="202" y="150"/>
      <point x="185" y="126"/>
      <point x="134" y="74" type="curve" smooth="yes"/>
      <point x="94" y="35"/>
      <point x="50" y="-10"/>
      <point x="50" y="-88" type="curve" smooth="yes"/>
      <point x="50" y="-179"/>
      <point x="118" y="-234"/>
      <point x="227" y="-234" type="curve" smooth="yes"/>
    </contour>
    <contour>
      <point x="271" y="386"/>
      <point x="295" y="406"/>
      <point x="295" y="438" type="curve" smooth="yes"/>
      <point x="295" y="470"/>
      <point x="271" y="490"/>
      <point x="243" y="490" type="curve" smooth="yes"/>
      <point x="214" y="490"/>
      <point x="191" y="470"/>
      <point x="191" y="438" type="curve" smooth="yes"/>
      <point x="191" y="406"/>
      <point x="214" y="386"/>
      <point x="243" y="386" type="curve" smooth="yes"/>
    </contour>
  </outline>
</glyph>
<glyph name="Agrave" format="1">
  <advance width="728"/>
  <unicode hex="00C0"/>
  <note>
	Agrave
  </note>
  <outline>
    <contour>
      <point x="405" y="789" type="line"/>
      <point x="311" y="946" type="line"/>
      <point x="238" y="899" type="line"/>
      <point x="350" y="753" type="line"/>
    </contour>
    <component base="A"/>
  </outline>
</glyph>
<glyph name="Aacute" format="1">
  <advance width="728"/>
  <unicode hex="00C1"/>
  <note>
	Aacute
  </note>
  <outline>
    <contour>
      <point x="478" y="898" type="line"/>
      <point x="405" y="945" type="line"/>
      <point x="311" y="788" type="line"/>
      <point x="366" y="752" type="line"/>
    </contour>
    <component base="A"/>
  </outline>
</glyph>
<glyph name="Acircumflex" format="1">
  <advance width="728"/>
  <unicode hex="00C2"/>
  <note>
	Acircumflex
  </note>
  <outline>
    <contour>
      <point x="353" y="854" type="line"/>
      <point x="446" y="752" type="line"/>
      <point x="490" y="789" type="line"/>
      <point x="378" y="932" type="line"/>
      <point x="329" y="932" type="line"/>
      <point x="217" y="789" type="line"/>
      <point x="261" y="752" type="line"/>
    </contour>
    <component base="A"/>
  </outline>
</glyph>
<glyph name="Atilde" format="1">
  <advance width="728"/>
  <unicode hex="00C3"/>
  <note>
	Atilde
  </note>
  <outline>
    <contour>
      <point x="454" y="763"/>
      <point x="489" y="782"/>
      <point x="518" y="810" type="curve"/>
      <point x="484" y="856" type="line"/>
      <point x="464" y="841"/>
      <point x="444" y="831"/>
      <point x="421" y="831" type="curve" smooth="yes"/>
      <point x="383" y="831"/>
      <point x="345" y="868"/>
      <point x="303" y="868" type="curve" smooth="yes"/>
      <point x="271" y="868"/>
      <point x="233" y="846"/>
      <point x="204" y="820" type="curve"/>
      <point x="237" y="774" type="line"/>
      <point x="258" y="789"/>
      <point x="277" y="800"/>
      <point x="302" y="800" type="curve" smooth="yes"/>
      <point x="344" y="800"/>
      <point x="377" y="763"/>
      <point x="422" y="763" type="curve" smooth="yes"/>
    </contour>
    <component base="A"/>
  </outline>
</glyph>
<glyph name="Adieresis" format="1">
  <advance width="728"/>
  <unicode hex="00C4"/>
  <note>
	Adieresis
  </note>
  <outline>
    <contour>
      <point x="289" y="763"/>
      <point x="315" y="786"/>
      <point x="315" y="818" type="curve" smooth="yes"/>
      <point x="315" y="850"/>
      <point x="289" y="873"/>
      <point x="260" y="873" type="curve" smooth="yes"/>
      <point x="230" y="873"/>
      <point x="205" y="850"/>
      <point x="205" y="818" type="curve" smooth="yes"/>
      <point x="205" y="786"/>
      <point x="230" y="763"/>
      <point x="260" y="763" type="curve" smooth="yes"/>
    </contour>
    <contour>
      <point x="486" y="763"/>
      <point x="512" y="786"/>
      <point x="512" y="818" type="curve" smooth="yes"/>
      <point x="512" y="850"/>
      <point x="486" y="873"/>
      <point x="457" y="873" type="curve" smooth="yes"/>
      <point x="427" y="873"/>
      <point x="402" y="850"/>
      <point x="402" y="818" type="curve" smooth="yes"/>
      <point x="402" y="786"/>
      <point x="427" y="763"/>
      <point x="457" y="763" type="curve" smooth="yes"/>
    </contour>
    <component base="A"/>
  </outline>
</glyph>
<glyph name="Aring" format="1">
  <advance width="728"/>
  <unicode hex="00C5"/>
  <note>
	Aring
  </note>
  <outline>
    <contour>
      <point x="420" y="744"/>
      <point x="458" y="786"/>
      <point x="458" y="837" type="curve" smooth="yes"/>
      <point x="458" y="888"/>
      <point x="420" y="931"/>
      <point x="358" y="931" type="curve" smooth="yes"/>
      <point x="297" y="931"/>
      <point x="259" y="888"/>
      <point x="259" y="837" type="curve" smooth="yes"/>
      <point x="259" y="786"/>
      <point x="297" y="744"/>
      <point x="358" y="744" type="curve" smooth="yes"/>
    </contour>
    <contour>
      <point x="334" y="792"/>
      <point x="314" y="808"/>
      <point x="314" y="837" type="curve" smooth="yes"/>
      <point x="314" y="867"/>
      <point x="334" y="883"/>
      <point x="359" y="883" type="curve" smooth="yes"/>
      <point x="383" y="883"/>
      <point x="403" y="867"/>
      <point x="403" y="837" type="curve" smooth="yes"/>
      <point x="403" y="808"/>
      <point x="383" y="792"/>
      <point x="359" y="792" type="curve" smooth="yes"/>
    </contour>
    <component base="A"/>
  </outline>
</glyph>
